<?xml version="1.0" encoding="UTF-8"?>
<svg id="Layer_1" data-name="Layer 1" xmlns="http://www.w3.org/2000/svg" viewBox="0 0 230.78 278.45">
  <defs>
    <style>
      .cls-1 {
        fill: #0284c7;
      }

      .cls-2 {
        fill: #006394;
      }

      .cls-3 {
        fill: #e3e3e3;
      }
    </style>
  </defs>
  <g>
    <path class="cls-1" d="m226.92,161.4l-48.2-28.59c-2.09-1.24-4.67-1.22-6.74.05l-61.1,37.55c-4.38,2.69-4.39,9.26-.01,11.96l13.01,8.04c2.07,1.28,4.65,1.31,6.75.07l42.25-24.96c2.22-1.31,4.96-1.2,7.07.28l17.96,12.58c1.8,1.26,2.89,3.34,2.95,5.58l.05,2.1c.06,2.59-1.26,5-3.44,6.26l-78.44,45.35c-2.03,1.17-4.51,1.17-6.54,0l-39.91-23.15c-2.13-1.23-3.44-3.57-3.43-6.09l.16-48.75c0-2.49,1.29-4.78,3.37-6.01l74.12-44.08c2.1-1.25,3.38-3.57,3.37-6.08l-.48-80.47c-.01-2.47-1.29-4.74-3.34-5.98L119.49.94c-2.06-1.24-4.6-1.25-6.67-.03L3.39,65.4C1.29,66.64,0,68.95,0,71.46l.18,126.88c0,2.42,1.22,4.67,3.22,5.93l14.04,8.86c4.43,2.79,10.1-.45,10.19-5.83l1.89-117.91c.04-2.41,1.27-4.62,3.27-5.86l79.25-49.06c1.9-1.18,4.23-1.3,6.24-.34,2.41,1.15,3.94,3.67,3.9,6.42l-.65,46.99c-.03,2.45-1.31,4.7-3.35,5.92l-73.59,44.07c-2.07,1.24-3.35,3.54-3.35,6.02l-.04,80.32c0,2.51,1.3,4.82,3.41,6.06l68.72,40.28c2.07,1.21,4.6,1.2,6.65-.03l107.45-64.43c2.11-1.26,3.39-3.61,3.35-6.13l-.48-32.29c-.04-2.46-1.32-4.71-3.38-5.93Z"/>
    <path class="cls-1" d="m226.92,161.4l-48.2-28.59c-2.09-1.24-4.67-1.22-6.74.05l-61.1,37.55c-4.38,2.69-4.39,9.26-.01,11.96l13.01,8.04c2.07,1.28,4.65,1.31,6.75.07l42.25-24.96c2.22-1.31,4.96-1.2,7.07.28l17.96,12.58c1.8,1.26,2.89,3.34,2.95,5.58l.05,2.1c.06,2.59-1.26,5-3.44,6.26l-78.44,45.35c-2.03,1.17-4.51,1.17-6.54,0l-39.91-23.15c-2.13-1.23-3.44-3.57-3.43-6.09l.16-48.75c0-2.49,1.29-4.78,3.37-6.01l74.12-44.08c2.1-1.25,3.38-3.57,3.37-6.08l-.48-80.47c-.01-2.47-1.29-4.74-3.34-5.98L119.49.94c-2.06-1.24-4.6-1.25-6.67-.03L3.39,65.4C1.29,66.64,0,68.95,0,71.46l.18,126.88c0,2.42,1.22,4.67,3.22,5.93l14.04,8.86c4.43,2.79,10.1-.45,10.19-5.83l1.89-117.91c.04-2.41,1.27-4.62,3.27-5.86l79.25-49.06c1.9-1.18,4.23-1.3,6.24-.34,2.41,1.15,3.94,3.67,3.9,6.42l-.65,46.99c-.03,2.45-1.31,4.7-3.35,5.92l-73.59,44.07c-2.07,1.24-3.35,3.54-3.35,6.02l-.04,80.32c0,2.51,1.3,4.82,3.41,6.06l68.72,40.28c2.07,1.21,4.6,1.2,6.65-.03l107.45-64.43c2.11-1.26,3.39-3.61,3.35-6.13l-.48-32.29c-.04-2.46-1.32-4.71-3.38-5.93Z"/>
  </g>
  <path class="cls-3" d="m165.51,69.44l34.67,20.03c1.65.95,2.66,2.76,2.64,4.72l-.23,25.26c-.02,1.91.95,3.69,2.54,4.66l17.36,10.57c3.43,2.09,7.76-.48,7.75-4.61l-.02-52.21c0-1.93-1-3.7-2.62-4.65l-57.37-33.64c-3.46-2.03-7.74.61-7.68,4.73l.31,20.56c.03,1.91,1.04,3.66,2.64,4.58Z"/>
  <path class="cls-1" d="m226.92,168.73l-48.2-28.59c-2.09-1.24-4.67-1.22-6.74.05l-61.1,37.55c-4.38,2.69-4.39,9.26-.01,11.96l13.01,8.04c2.07,1.28,4.65,1.31,6.75.07l42.25-24.96c2.22-1.31,4.96-1.2,7.07.28l17.96,12.58c1.8,1.26,2.89,3.34,2.95,5.58l.05,2.1c.06,2.59-1.26,5-3.44,6.26l-78.44,45.35c-2.03,1.17-4.51,1.17-6.54,0l-39.91-23.15c-2.13-1.23-3.44-3.57-3.43-6.09l.16-48.75c0-2.49,1.29-4.78,3.37-6.01l74.12-44.08c2.1-1.25,3.38-3.57,3.37-6.08l-.48-80.47c-.01-2.47-1.29-4.74-3.34-5.98l-26.84-16.13c-2.06-1.24-4.6-1.25-6.67-.03L3.39,72.73C1.29,73.97,0,76.28,0,78.79l.18,126.88c0,2.42,1.22,4.67,3.22,5.93l14.04,8.86c4.43,2.79,10.1-.45,10.19-5.83l1.89-117.91c.04-2.41,1.27-4.62,3.27-5.86l79.25-49.06c1.9-1.18,4.23-1.3,6.24-.34,2.41,1.15,3.94,3.67,3.9,6.42l-.65,46.99c-.03,2.45-1.31,4.7-3.35,5.92l-73.59,44.07c-2.07,1.24-3.35,3.54-3.35,6.02l-.04,80.32c0,2.51,1.3,4.82,3.41,6.06l68.72,40.28c2.07,1.21,4.6,1.2,6.65-.03l107.45-64.43c2.11-1.26,3.39-3.61,3.35-6.13l-.48-32.29c-.04-2.46-1.32-4.71-3.38-5.93Z"/>
  <path class="cls-2" d="m226.92,168.73l-48.2-28.59c-2.09-1.24-4.67-1.22-6.74.05l-61.1,37.55c-4.38,2.69-4.39,9.26-.01,11.96l13.01,8.04c2.07,1.28,4.65,1.31,6.75.07l42.25-24.96c2.22-1.31,4.96-1.2,7.07.28l17.96,12.58c1.8,1.26,2.89,3.34,2.95,5.58l.05,2.1c.06,2.59-1.26,5-3.44,6.26l-78.44,45.35c-2.03,1.17-4.51,1.17-6.54,0l-39.91-23.15c-2.13-1.23-3.44-3.57-3.43-6.09l.16-48.75c0-2.49,1.29-4.78,3.37-6.01l74.12-44.08c2.1-1.25,3.38-3.57,3.37-6.08l-.48-80.47c-.01-2.47-1.29-4.74-3.34-5.98l-26.84-16.13c-2.06-1.24-4.6-1.25-6.67-.03L3.39,72.73C1.29,73.97,0,76.28,0,78.79l.18,126.88c0,2.42,1.22,4.67,3.22,5.93l14.04,8.86c4.43,2.79,10.1-.45,10.19-5.83l1.89-117.91c.04-2.41,1.27-4.62,3.27-5.86l79.25-49.06c1.9-1.18,4.23-1.3,6.24-.34,2.41,1.15,3.94,3.67,3.9,6.42l-.65,46.99c-.03,2.45-1.31,4.7-3.35,5.92l-73.59,44.07c-2.07,1.24-3.35,3.54-3.35,6.02l-.04,80.32c0,2.51,1.3,4.82,3.41,6.06l68.72,40.28c2.07,1.21,4.6,1.2,6.65-.03l107.45-64.43c2.11-1.26,3.39-3.61,3.35-6.13l-.48-32.29c-.04-2.46-1.32-4.71-3.38-5.93Z"/>
</svg>