<svg xmlns="http://www.w3.org/2000/svg" class="w-8/12 my-4" fill="none" viewBox="0 0 1562 358">
  <g class="logo-g-m">
    <g class="g-blue ">
      <path class="stroke-sky-400 stroke-2  fill-sky-600" d="m1493.37 131.948-.18-.289-.01-.012-19.5-31.072v-.006a.968.968 0 0 1 0-1.059v-.005l29.84-47.54v-.001c.19-.297.53-.494.91-.494h39.37c.87 0 1.32.905.91 1.569v.002l-49.52 78.904v.003c-.42.663-1.4.663-1.82 0Z" />
      <path fill="#075985" d="m1549.42 248.94-51.17-81.53c-1.23-1.96-4.12-1.96-5.35 0l-20.76 33.08a3.117 3.117 0 0 0 0 3.3l30.41 48.45c.57.92 1.59 1.47 2.67 1.47h41.52c2.47 0 3.98-2.69 2.68-4.77Z" class="fill-sky-600" />
    </g>
    <path fill="#BAE6FD" d="M522.69 130.23c.73-4.28 1.12-8.65 1.12-12.93 0-4.28-.34-8.65-1.12-12.93v.09c-1.94-10.19-5.78-19.52-11.52-27.56-5.78-8.05-13.68-15.07-23.74-20.37-10.06-5.31-22.01-8.05-36.34-8.05h-83.66c-2.57 0-4.65 2.06-4.65 4.61V78.2c0 2.55 2.08 4.61 4.65 4.61h83.45c7.04 0 12.6 1.71 17.09 5.09 4.49 3.6 7.68 7.83 10.06 12.93 2.16 4.88 3.19 10.62 3.19 16.52s-1.08 11.64-3.19 16.52c-2.33 5.09-5.57 9.33-10.06 12.93-4.49 3.38-10.06 5.09-17.09 5.09h-28.93c-2.57 0-4.65 2.06-4.65 4.61v25.11c0 2.55 2.08 4.61 4.65 4.61h29.15c14.33 0 26.28-2.74 36.34-8.05 10.06-5.31 17.96-12.28 23.74-20.37 5.78-8.09 9.63-17.38 11.52-27.56l-.01-.01Zm348.53 30.81c6.65-8.05 10.92-16.95 13.25-26.71 2.33-9.76 2.55-19.95.86-29.88-1.94-10.19-5.78-19.52-11.52-27.56-5.78-8.05-13.68-15.07-23.74-20.37-10.06-5.31-22.06-8.05-36.34-8.05h-84.46c-2.13 0-3.85 1.71-3.85 3.82v197.17c0 2.11 1.72 3.82 3.85 3.82h33.99c2.13 0 3.85-1.71 3.85-3.82V86.62c0-2.11 1.72-3.82 3.85-3.82h42.55c7.04 0 12.6 1.71 17.09 5.1 4.49 3.59 7.68 7.83 10.06 12.92 2.16 4.88 3.19 10.62 3.19 16.52s-1.3 11.43-3.41 16.52c-2.16 5.31-5.57 9.55-10.06 12.93-4.49 3.38-10.27 5.09-16.66 5.09h-29.95c-2.13 0-3.85 1.71-3.85 3.82v26.69c0 2.11 1.72 3.82 3.85 3.82h21.93c1.38 0 2.65.73 3.34 1.91l36.88 63.58a3.866 3.866 0 0 0 3.34 1.91h32.82c2.96 0 4.81-3.17 3.34-5.72L846 179.69l-.04-.09.05.08c10.27-4.24 18.81-10.61 25.2-18.66l.01.02Z" class="Vector" />
    <path fill="#FCFCFC" d="M846.02 179.71v-.01l-.05-.08.05.09Z" class="Vector" />
    <path fill="#BAE6FD" d="m400.78 155.58-37.38 37.07c-.41.4-.63.95-.63 1.51v56.98c0 1.18.97 2.14 2.16 2.14h37.38c1.19 0 2.16-.96 2.16-2.14v-94.05c0-1.91-2.32-2.86-3.68-1.51h-.01Zm1092.5-6.38-62.13-99.02a3.671 3.671 0 0 0-3.1-1.71h-40.35c-2.86 0-4.61 3.12-3.1 5.53l59.73 95.19c.73 1.17.73 2.66 0 3.82l-59.73 95.15c-1.51 2.41.23 5.53 3.1 5.53h40.35c1.26 0 2.43-.64 3.1-1.71l62.13-98.98c.73-1.17.73-2.65 0-3.82v.02Zm-229.9-15.29c-1.92 0-3.48 1.54-3.48 3.45v27.43c0 1.91 1.56 3.45 3.48 3.45h71.94c1.92 0 3.48-1.54 3.48-3.45v-27.43c0-1.91-1.56-3.45-3.48-3.45h-71.94Z" class="Vector" />
    <path fill="#BAE6FD" d="M1353.96 218.96h-103.22c-2.02 0-3.66-1.62-3.66-3.63V86.69c0-2.01 1.64-3.63 3.66-3.63h99.16c2.02 0 3.66-1.62 3.66-3.63V52.1c0-2-1.64-3.63-3.66-3.63h-140.86c-2.02 0-3.66 1.63-3.66 3.63v197.98c0 2 1.64 3.63 3.66 3.63h144.91c2.02 0 3.66-1.62 3.66-3.63v-27.5c0-2.01-1.64-3.63-3.66-3.63l.01.01ZM1098.84 95.77h-30.44c-3.23 0-5.84 2.59-5.84 5.79v146.35c0 3.2 2.62 5.79 5.84 5.79h30.44c3.23 0 5.84-2.59 5.84-5.79V101.56c0-3.2-2.61-5.79-5.84-5.79ZM955.62 48.48h-29.21c-3.45 0-6.24 2.77-6.24 6.19v192.85c0 3.42 2.8 6.19 6.24 6.19h29.21c3.45 0 6.24-2.77 6.24-6.19V54.67c0-3.42-2.8-6.19-6.24-6.19Zm-334.49-.02-32.18-.17a5.473 5.473 0 0 0-5.15 3.52l-73.7 194.36c-1.34 3.55 1.3 7.33 5.12 7.33h33.92c2.35 0 4.44-1.49 5.18-3.7l45.33-133.7c1.67-4.92 8.69-4.93 10.37 0l45.73 133.93c.75 2.2 2.84 3.68 5.18 3.68h41.79l-76.5-201.74c-.8-2.1-2.82-3.5-5.09-3.51Zm552.09.02H994.03c-2.41 0-4.37 1.94-4.37 4.33v25.92c0 2.39 1.95 4.33 4.37 4.33h179.19c2.41 0 4.37-1.94 4.37-4.33V52.81c0-2.39-1.96-4.33-4.37-4.33Z" class="Vector" />
    <g class="icon-logo">
      <path class="stroke-sky-400 stroke-1 fill-sky-600" d="m219.197 86.38 49.162 28.413c2.335 1.354 3.779 3.917 3.745 6.694l-.327 35.84c-.023 2.709 1.353 5.238 3.61 6.615l24.614 15.003c4.862 2.968 10.999-.678 10.999-6.548l-.034-74.074c0-2.732-1.421-5.25-3.711-6.593l-81.357-47.738c-4.907-2.879-10.976.858-10.897 6.716l.44 29.17c.045 2.709 1.466 5.192 3.745 6.502h.011Z" />
      <path stroke="#075985" stroke-miterlimit="10" stroke-width="6" d="m290.57 210.111-57.949-34.425a7.813 7.813 0 0 0-8.111.067l-73.452 45.211c-5.26 3.238-5.27 11.15-.019 14.406l15.647 9.684a7.811 7.811 0 0 0 8.11.087l50.786-30.049c2.668-1.58 5.958-1.446 8.502.336l21.586 15.143c2.162 1.514 3.482 4.024 3.549 6.725l.067 2.528c.076 3.114-1.512 6.016-4.132 7.539l-94.302 54.608c-2.439 1.417-5.414 1.408-7.862 0l-47.974-27.874c-2.553-1.485-4.131-4.291-4.122-7.337l.191-58.698c0-2.989 1.55-5.748 4.056-7.242l89.099-53.075c2.525-1.504 4.065-4.301 4.055-7.318l-.574-96.879c-.019-2.97-1.549-5.709-4.017-7.193l-32.269-19.426a7.806 7.806 0 0 0-8.024-.038L21.866 94.526c-2.525 1.494-4.084 4.282-4.084 7.299l.22 152.77c0 2.921 1.473 5.622 3.873 7.145l16.881 10.661c5.318 3.363 12.147-.546 12.252-7.021l2.276-141.965c.048-2.902 1.53-5.565 3.93-7.05l95.269-59.071a7.788 7.788 0 0 1 7.508-.412c2.898 1.389 4.734 4.416 4.686 7.73l-.784 56.581c-.038 2.95-1.568 5.661-4.026 7.136l-88.468 53.066c-2.497 1.494-4.027 4.262-4.027 7.251l-.048 96.696c0 3.018 1.569 5.805 4.094 7.299l82.614 48.506a7.798 7.798 0 0 0 7.996-.038l129.173-77.577c2.535-1.523 4.074-4.349 4.026-7.386l-.583-38.879c-.048-2.96-1.588-5.671-4.055-7.146l-.019-.01Z" class="stroke-sky-400" />
    </g>
  </g>
</svg>