<svg xmlns="http://www.w3.org/2000/svg"
    xmlns:xlink="http://www.w3.org/1999/xlink" version="1.1" width="768px" height="384px" viewBox="0 0 768 384">
    <defs>
        <clipPath id="clip-1" fill-rule="nonzero">
            <path d="M 0,0 L 0,384 768,384 768,0 Z" />
        </clipPath>
    </defs>
    <g stroke="none" fill="transparent" fill-rule="nonzero" fill-opacity="1">
        <rect x="0" y="0" width="768" height="384" transform="matrix(1 0 0 1 0 0)" />
    </g>
    <g stroke="rgb(255,99,132)" stroke-width="7" stroke-linecap="butt" stroke-linejoin="round" stroke-miterlimit="4" stroke-opacity="1" fill="none" clip-path="url(#clip-1)">
        <path d="M 11,357.047867 C 23.862069,343.312983 27.751089,345.771459 36.724138,329.5781 C 53.475227,299.347975 48.761724,296.53885
62.448276,264.2009 C 74.485862,235.75905 70.877126,232.168473 88.172414,208.0185 C 96.601264,196.249023 102.750869,189.291733
113.896552,192.362 C 128.475007,196.377883 124.901962,217.759995 139.62069,222.1908 C 150.6261,225.503778 158.042877,219.778666
165.344828,207.849567 C 183.767015,177.753483 173.021127,156.153692 191.068966,138.140433 C 198.745265,130.478842 203.356827,155.146366
216.793103,156.499867 C 229.080965,157.737682 231.517614,139.961522 242.517241,143.323067 C 257.241752,147.822956 256.846651,174.968745
268.241379,172.222733 C 282.570789,168.769495 280.99801,131.160275 293.965517,130.924567 C 306.722148,130.692692 307.650478,173.060829
319.689655,171.287567 C 333.374616,169.271895 331.545022,125.825317 345.413793,123.3467 C 357.26916,121.227917 354.669605,148.205229
371.137931,162.092767 C 380.393743,169.898079 385.328976,170.02029 396.862069,166.7324 C 411.053114,162.686773 411.687659,144.018395
422.586207,147.425733 C 437.411796,152.060828 435.384284,182.682357 448.310345,182.817267 C 461.108422,182.95084 458.504187,162.141022
474.034483,147.9627 C 484.228325,138.656272 486.253457,139.113457 499.758621,135.847767 C 511.977595,132.89309 513.763887,139.431767
525.482759,135.521967 C 539.488025,130.84935 537.202054,123.146831 551.206897,118.682933 C 562.926192,114.947531 565.101259,115.376333
576.931034,119.123367  " />
    </g>

    <g stroke="none" fill="rgb(255,99,132)" fill-rule="nonzero" fill-opacity="0.5" clip-path="url(#clip-1)">
        <path d="M 33.724138,329.5781 L 39.724138,329.5781 M 36.724138,326.5781 L 36.724138,332.5781 M 34.602818,327.45678 L 38.845458,331.69942
M 38.845458,327.45678 L 34.602818,331.69942" />
    </g>
    <g stroke="rgb(255,99,132)" stroke-width="7" stroke-linecap="butt" stroke-linejoin="miter" stroke-miterlimit="4" stroke-opacity="1" fill="none" clip-path="url(#clip-1)">
        <path d="M 33.724138,329.5781 L 39.724138,329.5781 M 36.724138,326.5781 L 36.724138,332.5781 M 34.602818,327.45678 L 38.845458,331.69942
M 38.845458,327.45678 L 34.602818,331.69942" />
    </g>
    <g stroke="none" fill="rgb(255,99,132)" fill-rule="nonzero" fill-opacity="0.5" clip-path="url(#clip-1)">
        <path d="M 59.448276,264.2009 L 65.448276,264.2009 M 62.448276,261.2009 L 62.448276,267.2009 M 60.326956,262.07958 L 64.569596,266.32222
M 64.569596,262.07958 L 60.326956,266.32222" />
    </g>
    <g stroke="rgb(255,99,132)" stroke-width="7" stroke-linecap="butt" stroke-linejoin="miter" stroke-miterlimit="4" stroke-opacity="1" fill="none" clip-path="url(#clip-1)">
        <path d="M 59.448276,264.2009 L 65.448276,264.2009 M 62.448276,261.2009 L 62.448276,267.2009 M 60.326956,262.07958 L 64.569596,266.32222
M 64.569596,262.07958 L 60.326956,266.32222" />
    </g>
    <g stroke="none" fill="rgb(255,99,132)" fill-rule="nonzero" fill-opacity="0.5" clip-path="url(#clip-1)">
        <path d="M 85.172414,208.0185 L 91.172414,208.0185 M 88.172414,205.0185 L 88.172414,211.0185 M 86.051093,205.89718 L 90.293734,210.13982
M 90.293734,205.89718 L 86.051093,210.13982" />
    </g>
    <g stroke="rgb(255,99,132)" stroke-width="7" stroke-linecap="butt" stroke-linejoin="miter" stroke-miterlimit="4" stroke-opacity="1" fill="none" clip-path="url(#clip-1)">
        <path d="M 85.172414,208.0185 L 91.172414,208.0185 M 88.172414,205.0185 L 88.172414,211.0185 M 86.051093,205.89718 L 90.293734,210.13982
M 90.293734,205.89718 L 86.051093,210.13982" />
    </g>
    <g stroke="none" fill="rgb(255,99,132)" fill-rule="nonzero" fill-opacity="0.5" clip-path="url(#clip-1)">
        <path d="M 110.896552,192.362 L 116.896552,192.362 M 113.896552,189.362 L 113.896552,195.362 M 111.775231,190.24068 L 116.017872,194.48332
M 116.017872,190.24068 L 111.775231,194.48332" />
    </g>
    <g stroke="rgb(255,99,132)" stroke-width="7" stroke-linecap="butt" stroke-linejoin="miter" stroke-miterlimit="4" stroke-opacity="1" fill="none" clip-path="url(#clip-1)">
        <path d="M 110.896552,192.362 L 116.896552,192.362 M 113.896552,189.362 L 113.896552,195.362 M 111.775231,190.24068 L 116.017872,194.48332
M 116.017872,190.24068 L 111.775231,194.48332" />
    </g>
    <g stroke="none" fill="rgb(255,99,132)" fill-rule="nonzero" fill-opacity="0.5" clip-path="url(#clip-1)">
        <path d="M 136.62069,222.1908 L 142.62069,222.1908 M 139.62069,219.1908 L 139.62069,225.1908 M 137.499369,220.06948 L 141.74201,224.31212
M 141.74201,220.06948 L 137.499369,224.31212" />
    </g>
    <g stroke="rgb(255,99,132)" stroke-width="7" stroke-linecap="butt" stroke-linejoin="miter" stroke-miterlimit="4" stroke-opacity="1" fill="none" clip-path="url(#clip-1)">
        <path d="M 136.62069,222.1908 L 142.62069,222.1908 M 139.62069,219.1908 L 139.62069,225.1908 M 137.499369,220.06948 L 141.74201,224.31212
M 141.74201,220.06948 L 137.499369,224.31212" />
    </g>
    <g stroke="none" fill="rgb(255,99,132)" fill-rule="nonzero" fill-opacity="0.5" clip-path="url(#clip-1)">
        <path d="M 162.344828,207.849567 L 168.344828,207.849567 M 165.344828,204.849567 L 165.344828,210.849567 M 163.223507,205.728246
L 167.466148,209.970887 M 167.466148,205.728246 L 163.223507,209.970887" />
    </g>
    <g stroke="rgb(255,99,132)" stroke-width="7" stroke-linecap="butt" stroke-linejoin="miter" stroke-miterlimit="4" stroke-opacity="1" fill="none" clip-path="url(#clip-1)">
        <path d="M 162.344828,207.849567 L 168.344828,207.849567 M 165.344828,204.849567 L 165.344828,210.849567 M 163.223507,205.728246
L 167.466148,209.970887 M 167.466148,205.728246 L 163.223507,209.970887" />
    </g>
    <g stroke="none" fill="rgb(255,99,132)" fill-rule="nonzero" fill-opacity="0.5" clip-path="url(#clip-1)">
        <path d="M 188.068966,138.140433 L 194.068966,138.140433 M 191.068966,135.140433 L 191.068966,141.140433 M 188.947645,136.019113
L 193.190286,140.261754 M 193.190286,136.019113 L 188.947645,140.261754" />
    </g>
    <g stroke="rgb(255,99,132)" stroke-width="7" stroke-linecap="butt" stroke-linejoin="miter" stroke-miterlimit="4" stroke-opacity="1" fill="none" clip-path="url(#clip-1)">
        <path d="M 188.068966,138.140433 L 194.068966,138.140433 M 191.068966,135.140433 L 191.068966,141.140433 M 188.947645,136.019113
L 193.190286,140.261754 M 193.190286,136.019113 L 188.947645,140.261754" />
    </g>
    <g stroke="none" fill="rgb(255,99,132)" fill-rule="nonzero" fill-opacity="0.5" clip-path="url(#clip-1)">
        <path d="M 213.793103,156.499867 L 219.793103,156.499867 M 216.793103,153.499867 L 216.793103,159.499867 M 214.671783,154.378546
L 218.914424,158.621187 M 218.914424,154.378546 L 214.671783,158.621187" />
    </g>
    <g stroke="rgb(255,99,132)" stroke-width="7" stroke-linecap="butt" stroke-linejoin="miter" stroke-miterlimit="4" stroke-opacity="1" fill="none" clip-path="url(#clip-1)">
        <path d="M 213.793103,156.499867 L 219.793103,156.499867 M 216.793103,153.499867 L 216.793103,159.499867 M 214.671783,154.378546
L 218.914424,158.621187 M 218.914424,154.378546 L 214.671783,158.621187" />
    </g>
    <g stroke="none" fill="rgb(255,99,132)" fill-rule="nonzero" fill-opacity="0.5" clip-path="url(#clip-1)">
        <path d="M 239.517241,143.323067 L 245.517241,143.323067 M 242.517241,140.323067 L 242.517241,146.323067 M 240.395921,141.201746
L 244.638562,145.444387 M 244.638562,141.201746 L 240.395921,145.444387" />
    </g>
    <g stroke="rgb(255,99,132)" stroke-width="7" stroke-linecap="butt" stroke-linejoin="miter" stroke-miterlimit="4" stroke-opacity="1" fill="none" clip-path="url(#clip-1)">
        <path d="M 239.517241,143.323067 L 245.517241,143.323067 M 242.517241,140.323067 L 242.517241,146.323067 M 240.395921,141.201746
L 244.638562,145.444387 M 244.638562,141.201746 L 240.395921,145.444387" />
    </g>
    <g stroke="none" fill="rgb(255,99,132)" fill-rule="nonzero" fill-opacity="0.5" clip-path="url(#clip-1)">
        <path d="M 265.241379,172.222733 L 271.241379,172.222733 M 268.241379,169.222733 L 268.241379,175.222733 M 266.120059,170.101413
L 270.3627,174.344054 M 270.3627,170.101413 L 266.120059,174.344054" />
    </g>
    <g stroke="rgb(255,99,132)" stroke-width="7" stroke-linecap="butt" stroke-linejoin="miter" stroke-miterlimit="4" stroke-opacity="1" fill="none" clip-path="url(#clip-1)">
        <path d="M 265.241379,172.222733 L 271.241379,172.222733 M 268.241379,169.222733 L 268.241379,175.222733 M 266.120059,170.101413
L 270.3627,174.344054 M 270.3627,170.101413 L 266.120059,174.344054" />
    </g>
    <g stroke="none" fill="rgb(255,99,132)" fill-rule="nonzero" fill-opacity="0.5" clip-path="url(#clip-1)">
        <path d="M 290.965517,130.924567 L 296.965517,130.924567 M 293.965517,127.924567 L 293.965517,133.924567 M 291.844197,128.803246
L 296.086838,133.045887 M 296.086838,128.803246 L 291.844197,133.045887" />
    </g>
    <g stroke="rgb(255,99,132)" stroke-width="7" stroke-linecap="butt" stroke-linejoin="miter" stroke-miterlimit="4" stroke-opacity="1" fill="none" clip-path="url(#clip-1)">
        <path d="M 290.965517,130.924567 L 296.965517,130.924567 M 293.965517,127.924567 L 293.965517,133.924567 M 291.844197,128.803246
L 296.086838,133.045887 M 296.086838,128.803246 L 291.844197,133.045887" />
    </g>
    <g stroke="none" fill="rgb(255,99,132)" fill-rule="nonzero" fill-opacity="0.5" clip-path="url(#clip-1)">
        <path d="M 316.689655,171.287567 L 322.689655,171.287567 M 319.689655,168.287567 L 319.689655,174.287567 M 317.568335,169.166246
L 321.810976,173.408887 M 321.810976,169.166246 L 317.568335,173.408887" />
    </g>
    <g stroke="rgb(255,99,132)" stroke-width="7" stroke-linecap="butt" stroke-linejoin="miter" stroke-miterlimit="4" stroke-opacity="1" fill="none" clip-path="url(#clip-1)">
        <path d="M 316.689655,171.287567 L 322.689655,171.287567 M 319.689655,168.287567 L 319.689655,174.287567 M 317.568335,169.166246
L 321.810976,173.408887 M 321.810976,169.166246 L 317.568335,173.408887" />
    </g>
    <g stroke="none" fill="rgb(255,99,132)" fill-rule="nonzero" fill-opacity="0.5" clip-path="url(#clip-1)">
        <path d="M 342.413793,123.3467 L 348.413793,123.3467 M 345.413793,120.3467 L 345.413793,126.3467 M 343.292473,121.22538 L 347.535113,125.46802
M 347.535113,121.22538 L 343.292473,125.46802" />
    </g>
    <g stroke="rgb(255,99,132)" stroke-width="7" stroke-linecap="butt" stroke-linejoin="miter" stroke-miterlimit="4" stroke-opacity="1" fill="none" clip-path="url(#clip-1)">
        <path d="M 342.413793,123.3467 L 348.413793,123.3467 M 345.413793,120.3467 L 345.413793,126.3467 M 343.292473,121.22538 L 347.535113,125.46802
M 347.535113,121.22538 L 343.292473,125.46802" />
    </g>
    <g stroke="none" fill="rgb(255,99,132)" fill-rule="nonzero" fill-opacity="0.5" clip-path="url(#clip-1)">
        <path d="M 368.137931,162.092767 L 374.137931,162.092767 M 371.137931,159.092767 L 371.137931,165.092767 M 369.016611,159.971446
L 373.259251,164.214087 M 373.259251,159.971446 L 369.016611,164.214087" />
    </g>
    <g stroke="rgb(255,99,132)" stroke-width="7" stroke-linecap="butt" stroke-linejoin="miter" stroke-miterlimit="4" stroke-opacity="1" fill="none" clip-path="url(#clip-1)">
        <path d="M 368.137931,162.092767 L 374.137931,162.092767 M 371.137931,159.092767 L 371.137931,165.092767 M 369.016611,159.971446
L 373.259251,164.214087 M 373.259251,159.971446 L 369.016611,164.214087" />
    </g>
    <g stroke="none" fill="rgb(255,99,132)" fill-rule="nonzero" fill-opacity="0.5" clip-path="url(#clip-1)">
        <path d="M 393.862069,166.7324 L 399.862069,166.7324 M 396.862069,163.7324 L 396.862069,169.7324 M 394.740749,164.61108 L 398.983389,168.85372
M 398.983389,164.61108 L 394.740749,168.85372" />
    </g>
    <g stroke="rgb(255,99,132)" stroke-width="7" stroke-linecap="butt" stroke-linejoin="miter" stroke-miterlimit="4" stroke-opacity="1" fill="none" clip-path="url(#clip-1)">
        <path d="M 393.862069,166.7324 L 399.862069,166.7324 M 396.862069,163.7324 L 396.862069,169.7324 M 394.740749,164.61108 L 398.983389,168.85372
M 398.983389,164.61108 L 394.740749,168.85372" />
    </g>
    <g stroke="none" fill="rgb(255,99,132)" fill-rule="nonzero" fill-opacity="0.5" clip-path="url(#clip-1)">
        <path d="M 419.586207,147.425733 L 425.586207,147.425733 M 422.586207,144.425733 L 422.586207,150.425733 M 420.464887,145.304413
L 424.707527,149.547054 M 424.707527,145.304413 L 420.464887,149.547054" />
    </g>
    <g stroke="rgb(255,99,132)" stroke-width="7" stroke-linecap="butt" stroke-linejoin="miter" stroke-miterlimit="4" stroke-opacity="1" fill="none" clip-path="url(#clip-1)">
        <path d="M 419.586207,147.425733 L 425.586207,147.425733 M 422.586207,144.425733 L 422.586207,150.425733 M 420.464887,145.304413
L 424.707527,149.547054 M 424.707527,145.304413 L 420.464887,149.547054" />
    </g>
    <g stroke="none" fill="rgb(255,99,132)" fill-rule="nonzero" fill-opacity="0.5" clip-path="url(#clip-1)">
        <path d="M 445.310345,182.817267 L 451.310345,182.817267 M 448.310345,179.817267 L 448.310345,185.817267 M 446.189024,180.695946
L 450.431665,184.938587 M 450.431665,180.695946 L 446.189024,184.938587" />
    </g>
    <g stroke="rgb(255,99,132)" stroke-width="7" stroke-linecap="butt" stroke-linejoin="miter" stroke-miterlimit="4" stroke-opacity="1" fill="none" clip-path="url(#clip-1)">
        <path d="M 445.310345,182.817267 L 451.310345,182.817267 M 448.310345,179.817267 L 448.310345,185.817267 M 446.189024,180.695946
L 450.431665,184.938587 M 450.431665,180.695946 L 446.189024,184.938587" />
    </g>
    <g stroke="none" fill="rgb(255,99,132)" fill-rule="nonzero" fill-opacity="0.5" clip-path="url(#clip-1)">
        <path d="M 471.034483,147.9627 L 477.034483,147.9627 M 474.034483,144.9627 L 474.034483,150.9627 M 471.913162,145.84138 L 476.155803,150.08402
M 476.155803,145.84138 L 471.913162,150.08402" />
    </g>
    <g stroke="rgb(255,99,132)" stroke-width="7" stroke-linecap="butt" stroke-linejoin="miter" stroke-miterlimit="4" stroke-opacity="1" fill="none" clip-path="url(#clip-1)">
        <path d="M 471.034483,147.9627 L 477.034483,147.9627 M 474.034483,144.9627 L 474.034483,150.9627 M 471.913162,145.84138 L 476.155803,150.08402
M 476.155803,145.84138 L 471.913162,150.08402" />
    </g>
    <g stroke="none" fill="rgb(255,99,132)" fill-rule="nonzero" fill-opacity="0.5" clip-path="url(#clip-1)">
        <path d="M 496.758621,135.847767 L 502.758621,135.847767 M 499.758621,132.847767 L 499.758621,138.847767 M 497.6373,133.726446 L
501.879941,137.969087 M 501.879941,133.726446 L 497.6373,137.969087" />
    </g>
    <g stroke="rgb(255,99,132)" stroke-width="7" stroke-linecap="butt" stroke-linejoin="miter" stroke-miterlimit="4" stroke-opacity="1" fill="none" clip-path="url(#clip-1)">
        <path d="M 496.758621,135.847767 L 502.758621,135.847767 M 499.758621,132.847767 L 499.758621,138.847767 M 497.6373,133.726446 L
501.879941,137.969087 M 501.879941,133.726446 L 497.6373,137.969087" />
    </g>
    <g stroke="none" fill="rgb(255,99,132)" fill-rule="nonzero" fill-opacity="0.5" clip-path="url(#clip-1)">
        <path d="M 522.482759,135.521967 L 528.482759,135.521967 M 525.482759,132.521967 L 525.482759,138.521967 M 523.361438,133.400646
L 527.604079,137.643287 M 527.604079,133.400646 L 523.361438,137.643287" />
    </g>
    <g stroke="rgb(255,99,132)" stroke-width="7" stroke-linecap="butt" stroke-linejoin="miter" stroke-miterlimit="4" stroke-opacity="1" fill="none" clip-path="url(#clip-1)">
        <path d="M 522.482759,135.521967 L 528.482759,135.521967 M 525.482759,132.521967 L 525.482759,138.521967 M 523.361438,133.400646
L 527.604079,137.643287 M 527.604079,133.400646 L 523.361438,137.643287" />
    </g>

</svg>