<svg xmlns="http://www.w3.org/2000/svg" width="459" height="512" fill="none" viewBox="0 0 459 512">
  <path fill="#000" d="M284.92 379.43h-37.61c10.8-3.02 20.7-8.62 28.84-16.32a68.961 68.961 0 0 0 20.74-60.9c-5.95-37.63-41.28-63.31-78.91-57.36a69.01 69.01 0 0 0-47.71 31.55 5.99 5.99 0 0 0-.78 4.54 5.993 5.993 0 0 0 4.86 4.59c1.58.26 3.19-.11 4.49-1.04a5.84 5.84 0 0 0 1.6-1.72c16.7-26.67 51.86-34.76 78.53-18.06s34.76 51.86 18.06 78.53S225.17 378 198.5 361.3a56.957 56.957 0 0 1-25.44-36.18 5.996 5.996 0 0 0-7.22-4.46 6.002 6.002 0 0 0-4.51 7 69.208 69.208 0 0 0 17.33 32.66 69.396 69.396 0 0 0 31.65 19.12h-37.73c-10.77.01-21.09 4.3-28.7 11.92A40.639 40.639 0 0 0 132 420.08c0 10.77 4.27 21.1 11.88 28.72a40.614 40.614 0 0 0 28.7 11.92h112.33c10.79.02 21.15-4.25 28.78-11.88 15.88-15.86 15.91-41.59.05-57.47l-.05-.05a40.593 40.593 0 0 0-28.78-11.88l.01-.01Zm0 69.28H172.59c-7.59 0-14.86-3.03-20.22-8.4a28.65 28.65 0 0 1-8.37-20.24c0-7.59 3.01-14.87 8.37-20.24a28.615 28.615 0 0 1 20.22-8.4h112.33c3.77-.01 7.5.72 10.98 2.16 3.48 1.44 6.64 3.55 9.31 6.21 2.67 2.66 4.78 5.82 6.22 9.3 1.44 3.48 2.19 7.2 2.19 10.97 0 3.77-.74 7.5-2.19 10.97a28.661 28.661 0 0 1-6.22 9.3 28.782 28.782 0 0 1-9.31 6.21 28.506 28.506 0 0 1-10.98 2.16Z"/>
  <path fill="#000" d="M458.02 404.95V295.47c.01-30.24-12.79-59.06-35.24-79.32.81-7.22 1.22-14.47 1.23-21.73C424.01 87.22 336.53 0 229.01 0s-195 87.22-195 194.42c0 7.25.42 14.49 1.22 21.7a107.113 107.113 0 0 0-33.88 62.3 5.996 5.996 0 0 0 4.98 6.87c3.27.52 6.35-1.7 6.87-4.98a94.578 94.578 0 0 1 31.23-56.54c.36-.19.69-.42 1-.68A94.355 94.355 0 0 1 91 201.76c.1-.02.2-.03.3-.05 2.33-.39 4.68-.69 7.05-.91.02 0 .04-.01.07-.01 2.87-.25 5.75-.38 8.63-.38h243.92c3.04 0 6.04.15 9.01.43 1.07.1 2.14.22 3.2.35l.67.09c.8.11 1.59.23 2.38.35l1.29.21c1.52.27 3.03.58 4.54.91l.6.14c42.95 10.12 73.32 48.43 73.37 92.55v109.48c-.06 52.47-42.58 94.99-95.05 95.05H107.06c-52.47-.06-94.99-42.58-95.05-95.05v-78.78c0-3.31-2.69-6-6-6s-6 2.69-6 6v78.78c.07 59.09 47.96 106.98 107.05 107.05h243.92c59.09-.07 106.98-47.96 107.05-107.05l-.01.03ZM350.97 188.42H107.05c-1.03 0-2.06.04-3.1.07 3.12-65.97 58.02-118.69 125.06-118.69 67.04 0 121.92 52.71 125.05 118.67-1.03-.03-2.06-.05-3.09-.05Zm60.6 18.78a105.815 105.815 0 0 0-41.39-17.05c-.13-.02-.25-.05-.38-.07a53.1 53.1 0 0 0-1.82-.3c-.4-.07-.8-.13-1.21-.19-.22-.03-.44-.07-.66-.1C363.5 116.43 302.99 57.8 229 57.8c-73.99 0-134.5 58.63-137.11 131.69a105.988 105.988 0 0 0-45.45 17.72 187.9 187.9 0 0 1-.44-12.78C46 93.84 128.09 12.01 229 12.01s183 81.83 183 182.42c0 4.26-.15 8.53-.44 12.78l.01-.01Z"/>
  <path fill="#000" d="M6 313.27c3.31 0 6-2.69 6-6v-9c0-3.31-2.69-6-6-6s-6 2.69-6 6v9c0 3.31 2.69 6 6 6Z"/>
</svg>
