<svg xmlns="http://www.w3.org/2000/svg" width="504" height="399" fill="none" viewBox="0 0 504 399">
  <path fill="#000" d="m464.38 57.93-197.459-.14A82.161 82.161 0 0 1 209.11 33.7l-22.56-22.74A37.057 37.057 0 0 0 160.45.09L38.01 0C17.72-.01 1.25 16.42 1.23 36.72v4.8c0 3.31 2.69 6 6 6s6-2.69 6-6v-4.8C13.25 23.05 24.34 11.98 38.01 12l122.43.09c6.6.02 12.93 2.65 17.59 7.33l22.56 22.74a94.206 94.206 0 0 0 66.31 27.63l197.46.14c14.81 0 26.821 12.01 26.811 26.83v.03l-.021 36.07a39.579 39.579 0 0 0-27.85-11.38l-422.31-.3c-.38 0-.76.02-1.14.03-.28 0-.56 0-.84.02-.29.01-.57.04-.86.06-.39.03-.78.05-1.16.09-.19.02-.38.05-.58.07-.48.05-.96.11-1.44.18-.1.01-.19.03-.29.05a39.521 39.521 0 0 0-21.54 10.83l.03-44.18c0-3.31-2.68-6-6-6-3.31 0-6 2.68-6 6l-.05 72.57v.12L.98 358.14c-.02 22.01 17.82 39.87 39.83 39.89l422.31.3c21.99-.03 39.82-17.84 39.86-39.83l.14-197.12v-.37l.04-64.19a38.812 38.812 0 0 0-38.8-38.86l.02-.03ZM491 358.46c-.03 15.37-12.489 27.82-27.859 27.84l-422.3-.3c-11.27 0-21.42-6.8-25.73-17.21-1.4-3.38-2.12-7-2.11-10.66l.14-197.06v-.06c.03-15.37 12.49-27.82 27.86-27.83l422.299.3c13.11.05 24.43 9.21 27.22 22.02.08.38.14.74.21 1.11.02.13.04.25.07.38.04.25.07.51.1.76l.09.71c.02.16.03.32.04.48.03.32.05.64.07.97 0 .09 0 .18.01.27.02.4.031.79.031 1.19L491 358.49v-.03Z"/>
  <path fill="#000" d="M395.9 281.15H108.1c-1.88 0-3.68.73-5.02 2.05a6.93 6.93 0 0 0 0 9.9 7.14 7.14 0 0 0 5.02 2.05h287.79c1.88 0 3.68-.73 5.02-2.05a6.93 6.93 0 0 0 0-9.9 7.14 7.14 0 0 0-5.02-2.05h.01Zm0-77H108.1c-1.88 0-3.68.73-5.02 2.05a6.93 6.93 0 0 0 0 9.9 7.14 7.14 0 0 0 5.02 2.05h287.79c1.88 0 3.68-.73 5.02-2.05a6.93 6.93 0 0 0 0-9.9 7.14 7.14 0 0 0-5.02-2.05h.01Z"/>
</svg>
