<svg xmlns="http://www.w3.org/2000/svg" width="503" height="364" fill="none" viewBox="0 0 503 364">
  <path fill="#000" d="M447.32 196.29H202.04a53.387 53.387 0 0 0-37.65 15.62 53.345 53.345 0 0 0-15.62 37.65v61.17a53.345 53.345 0 0 0 15.62 37.65A53.345 53.345 0 0 0 202.04 364h245.28c29.41-.03 53.24-23.86 53.27-53.27v-61.17a53.387 53.387 0 0 0-15.62-37.65 53.387 53.387 0 0 0-37.65-15.62Zm41.27 114.44a41.346 41.346 0 0 1-12.1 29.17 41.304 41.304 0 0 1-29.17 12.1H202.04c-10.94 0-21.43-4.36-29.17-12.1a41.304 41.304 0 0 1-12.1-29.17v-61.17a41.346 41.346 0 0 1 12.1-29.17 41.388 41.388 0 0 1 29.17-12.1h245.29c10.94.02 21.43 4.37 29.17 12.1a41.304 41.304 0 0 1 12.1 29.17v61.17h-.01ZM88.271 224.9a24.17 24.17 0 0 0-8.87-11.26c-4.03-2.78-8.8-4.26-13.69-4.26-4.89 0-9.66 1.47-13.7 4.24-4.03 2.77-7.13 6.7-8.88 11.26L4.001 326.52c-1.7 4.43-1.57 9.36.35 13.7s5.48 7.75 9.91 9.47c9.21 3.59 19.59-.94 23.23-10.13l5.7-14.46c.1-.26.27-.48.5-.63.23-.15.49-.24.77-.24h42.68c.28 0 .55.09.78.25.23.16.4.38.5.64l5.39 14.22c.83 2.21 2.1 4.23 3.71 5.94 1.62 1.72 3.56 3.1 5.71 4.07 2.15.96 4.47 1.5 6.83 1.56 2.36.07 4.71-.33 6.91-1.17 4.45-1.7 8.04-5.11 9.98-9.46.96-2.16 1.48-4.48 1.54-6.84.06-2.36-.35-4.7-1.2-6.9L88.271 224.9Zm27.17 111.45a5.9 5.9 0 0 1-4.88 2.57c-1.2-.01-2.37-.38-3.36-1.06a5.929 5.929 0 0 1-2.17-2.77l-5.39-14.23a13.434 13.434 0 0 0-12.5-8.63h-42.68c-5.5-.02-10.44 3.35-12.43 8.47l-5.7 14.46a5.87 5.87 0 0 1-2.22 2.75c-1 .67-2.18 1.02-3.39 1.01-.96 0-1.91-.25-2.76-.7a5.93 5.93 0 0 1-2.12-1.89 5.98 5.98 0 0 1-.64-5.5l39.13-101.64c.88-2.3 2.44-4.28 4.47-5.67 2.03-1.4 4.44-2.14 6.9-2.14s4.87.75 6.9 2.14c2.03 1.4 3.59 3.38 4.47 5.68l39.03 101.64c.35.9.48 1.87.37 2.83-.12.96-.46 1.88-1.02 2.68h-.01Z"/>
  <path fill="#000" d="M74.81 256.19a9.54 9.54 0 0 0-8.95-6.13h-.01c-1.94 0-3.83.57-5.43 1.66a9.54 9.54 0 0 0-3.52 4.46l-12.06 30.9a9.614 9.614 0 0 0 4.46 12c1.38.73 2.92 1.11 4.49 1.11h24.05c5.3 0 9.61-4.29 9.61-9.59 0-1.2-.22-2.38-.66-3.5L74.8 256.19h.01Zm-17.52 32 8.55-21.92 8.5 21.92H57.28h.01ZM449.419 0h-245.29c-29.41.03-53.24 23.86-53.27 53.27v61.17a53.387 53.387 0 0 0 15.62 37.65 53.387 53.387 0 0 0 37.65 15.62h245.29a53.387 53.387 0 0 0 37.65-15.62 53.345 53.345 0 0 0 15.62-37.65V53.27c-.03-29.41-23.86-53.24-53.27-53.27Zm41.27 114.44a41.304 41.304 0 0 1-12.1 29.17 41.388 41.388 0 0 1-29.17 12.1h-245.29a41.388 41.388 0 0 1-29.17-12.1 41.304 41.304 0 0 1-12.1-29.17V53.27a41.346 41.346 0 0 1 12.1-29.17 41.304 41.304 0 0 1 29.17-12.1h245.29c10.94 0 21.43 4.36 29.17 12.1a41.304 41.304 0 0 1 12.1 29.17v61.17ZM67.63 13.08a65.614 65.614 0 0 0-33.54 9.12 66.828 66.828 0 0 0-22.2 20.86 5.953 5.953 0 0 0-.83 4.48c.67 3.22 3.81 5.3 7.04 4.66a5.983 5.983 0 0 0 3.8-2.52 54.661 54.661 0 0 1 18.25-17.12c8.32-4.92 17.82-7.5 27.48-7.48 15.07 0 27.66 5.32 38.49 16.25 10.85 10.95 16.12 23.95 16.12 39.73 0 13.48-3.92 24.9-11.97 34.9a10.154 10.154 0 0 0-.2 12.54l5.35 6.93c.52.65.85 1.45.93 2.28.08.84-.08 1.68-.46 2.43a4.446 4.446 0 0 1-2.52 2.24c-1.1.38-2.31.31-3.36-.2-.62-.29-1.16-.73-1.57-1.27l-5.16-6.66a10.053 10.053 0 0 0-12.2-2.94 53.298 53.298 0 0 1-23.18 5.01c-16.01 0-28.91-5.35-39.44-16.37a54.243 54.243 0 0 1-14.72-27.91 6.008 6.008 0 0 0-2.52-3.83 5.972 5.972 0 0 0-4.5-.93c-1.56.3-2.94 1.2-3.84 2.52a6.025 6.025 0 0 0-.93 4.5 66.751 66.751 0 0 0 17.83 33.95c12.74 13.32 28.93 20.07 48.12 20.07 9.23.08 18.38-1.79 26.84-5.49l4.18 5.4c1.53 1.99 3.5 3.6 5.75 4.71 2.26 1.1 4.73 1.68 7.24 1.68 3.07 0 6.09-.87 8.69-2.5 2.61-1.63 4.71-3.96 6.06-6.72 1.35-2.76 1.91-5.84 1.6-8.9a16.5 16.5 0 0 0-3.35-8.41l-4.42-5.73c9.12-11.81 13.74-25.69 13.74-41.3 0-18.84-6.59-35.05-19.6-48.17-13.01-13.14-28.83-19.81-47.01-19.81h.01Z"/>
  <path fill="#000" d="M83.15 96.55h.13c.68 0 1.34.16 1.95.46.61.3 1.14.73 1.55 1.27l3.65 4.73c1.05 1.37 2.43 2.44 4.02 3.12 1.58.67 3.32.93 5.03.75 1.709-.18 3.349-.8 4.759-1.8 1.41-1 2.53-2.34 3.27-3.89a46.991 46.991 0 0 0 4.48-20.29c.11-6-.98-11.96-3.19-17.53a45.114 45.114 0 0 0-9.71-14.95 42.601 42.601 0 0 0-14.3-10.07 42.299 42.299 0 0 0-17.15-3.41c-12.56 0-23.24 4.42-31.75 13.13-8.47 8.68-12.77 19.78-12.77 32.99 0 14.81 5.43 26.74 16.15 35.45a44.33 44.33 0 0 0 28.55 10.2c3.61 0 7.22-.44 10.72-1.32 1.63-.41 3.12-1.22 4.36-2.36 2.5-2.31 3.68-5.72 3.13-9.08-.27-1.65-.95-3.22-1.98-4.54l-4.37-5.65c-.53-.66-.85-1.45-.94-2.29-.09-.84.07-1.68.46-2.43a4.328 4.328 0 0 1 3.97-2.49h-.02Zm-14.74-2.79a16.358 16.358 0 0 0 1.77 17.35l2.5 3.23c-1.61.25-3.24.37-4.87.37-7.66.08-15.11-2.59-20.98-7.51-7.89-6.41-11.72-14.96-11.72-26.14 0-10.11 3.06-18.16 9.35-24.6 6.26-6.41 13.83-9.52 23.16-9.52 8.66-.14 16.96 3.43 22.82 9.81a33.189 33.189 0 0 1 9.54 24.15c.02 4.14-.68 8.26-2.08 12.16l-1.62-2.11a16.532 16.532 0 0 0-13-6.4h-.13c-3.07-.01-6.09.85-8.7 2.48-2.61 1.63-4.7 3.96-6.04 6.73ZM6.44 80.24c.19.02.38.03.57.03 1.49 0 2.93-.56 4.03-1.57 1.1-1 1.79-2.38 1.93-3.87.25-2.73.72-5.43 1.38-8.09a5.99 5.99 0 0 0-.63-4.57 6.017 6.017 0 0 0-3.7-2.78c-.77-.19-1.57-.23-2.35-.11-.79.11-1.54.38-2.22.79a5.984 5.984 0 0 0-2.73 3.73 65.17 65.17 0 0 0-1.7 9.91c-.07.78 0 1.57.24 2.33.23.75.61 1.45 1.11 2.06.5.6 1.12 1.1 1.82 1.47.7.37 1.46.6 2.24.67h.01Zm439.789 161.19h-243.11a6 6 0 0 0-6 6.01c0 1.59.63 3.12 1.76 4.24a6.02 6.02 0 0 0 4.24 1.75h243.11c1.59 0 3.12-.63 4.24-1.75 2.34-2.35 2.34-6.15 0-8.49a6.012 6.012 0 0 0-4.24-1.76Zm0 65.43h-243.11c-1.59 0-3.12.63-4.24 1.76a5.97 5.97 0 0 0-1.76 4.24c0 1.59.63 3.12 1.76 4.24a5.97 5.97 0 0 0 4.24 1.76h243.11c1.59 0 3.12-.63 4.24-1.76a5.97 5.97 0 0 0 1.76-4.24c0-1.59-.63-3.12-1.76-4.24a5.97 5.97 0 0 0-4.24-1.76ZM443.82 45.59H200.71c-1.59 0-3.12.63-4.24 1.75a6.011 6.011 0 0 0 0 8.49 6.03 6.03 0 0 0 4.24 1.76h243.11a6 6 0 0 0 6-6.01c0-1.59-.63-3.12-1.76-4.24a6.02 6.02 0 0 0-4.24-1.75Zm.001 65.42h-243.11c-1.59 0-3.12.63-4.24 1.76a5.97 5.97 0 0 0-1.76 4.24c0 1.59.63 3.12 1.76 4.24a5.97 5.97 0 0 0 4.24 1.76h243.11c1.59 0 3.12-.63 4.24-1.76a5.97 5.97 0 0 0 1.76-4.24c0-1.59-.63-3.12-1.76-4.24a5.97 5.97 0 0 0-4.24-1.76Z"/>
</svg>
