<svg xmlns="http://www.w3.org/2000/svg" width="459" height="502" fill="none" viewBox="0 0 459 502">
  <path fill="#000" d="M401.26 0H56.76C41.71.02 27.28 6 16.64 16.64A56.8 56.8 0 0 0 0 56.76v33.61c0 1.59.63 3.12 1.76 4.24A5.97 5.97 0 0 0 6 96.37c1.59 0 3.12-.63 4.24-1.76A5.97 5.97 0 0 0 12 90.37V56.76a44.8 44.8 0 0 1 13.12-31.64A44.8 44.8 0 0 1 56.76 12h344.5c11.87.01 23.24 4.73 31.64 13.12a44.8 44.8 0 0 1 13.12 31.64v388.48a44.8 44.8 0 0 1-13.12 31.64A44.8 44.8 0 0 1 401.26 490H56.76a44.818 44.818 0 0 1-31.64-13.12A44.8 44.8 0 0 1 12 445.24V137.17c0-1.59-.63-3.12-1.76-4.24A5.97 5.97 0 0 0 6 131.17c-1.59 0-3.12.63-4.24 1.76A5.97 5.97 0 0 0 0 137.17v308.07c.02 15.05 6 29.48 16.64 40.12A56.841 56.841 0 0 0 56.76 502h344.5c15.05-.02 29.48-6 40.12-16.64a56.799 56.799 0 0 0 16.64-40.12V56.76c-.02-15.05-6-29.48-16.64-40.12A56.84 56.84 0 0 0 401.26 0Z"/>
  <path fill="url(#a)" d="M6 124.27c1.59 0 3.12-.63 4.24-1.76a5.97 5.97 0 0 0 1.76-4.24v-9c0-1.59-.63-3.12-1.76-4.24A5.97 5.97 0 0 0 6 103.27c-1.59 0-3.12.63-4.24 1.76A5.97 5.97 0 0 0 0 109.27v9c0 1.59.63 3.12 1.76 4.24A5.97 5.97 0 0 0 6 124.27Z"/>
  <path fill="#000" d="M416.141 336.87V114.88a73.102 73.102 0 0 0-21.4-51.6 73.097 73.097 0 0 0-51.59-21.4h-228.27a73.06 73.06 0 0 0-72.99 73v221.99a73.08 73.08 0 0 0 21.4 51.59 73.097 73.097 0 0 0 51.59 21.4h228.27a73.08 73.08 0 0 0 51.59-21.4 73.08 73.08 0 0 0 21.4-51.59Zm-362.26 0V114.88a61.048 61.048 0 0 1 17.89-43.11 61.049 61.049 0 0 1 43.11-17.89h228.27c16.17.02 31.68 6.45 43.11 17.89a61.048 61.048 0 0 1 17.89 43.11v221.99a61.066 61.066 0 0 1-61 60.99h-228.27a61.039 61.039 0 0 1-43.11-17.88 61.108 61.108 0 0 1-17.89-43.11Z"/>
  <path fill="#000" d="M401.26 0H56.76C41.71.02 27.28 6 16.64 16.64A56.8 56.8 0 0 0 0 56.76v33.61c0 1.59.63 3.12 1.76 4.24A5.97 5.97 0 0 0 6 96.37c1.59 0 3.12-.63 4.24-1.76A5.97 5.97 0 0 0 12 90.37V56.76a44.8 44.8 0 0 1 13.12-31.64A44.8 44.8 0 0 1 56.76 12h344.5c11.87.01 23.24 4.73 31.64 13.12a44.8 44.8 0 0 1 13.12 31.64v388.48a44.8 44.8 0 0 1-13.12 31.64A44.8 44.8 0 0 1 401.26 490H56.76a44.818 44.818 0 0 1-31.64-13.12A44.8 44.8 0 0 1 12 445.24V137.17c0-1.59-.63-3.12-1.76-4.24A5.97 5.97 0 0 0 6 131.17c-1.59 0-3.12.63-4.24 1.76A5.97 5.97 0 0 0 0 137.17v308.07c.02 15.05 6 29.48 16.64 40.12A56.841 56.841 0 0 0 56.76 502h344.5c15.05-.02 29.48-6 40.12-16.64a56.799 56.799 0 0 0 16.64-40.12V56.76c-.02-15.05-6-29.48-16.64-40.12A56.84 56.84 0 0 0 401.26 0Z"/>
  <path fill="#000" d="M6 124.27c1.59 0 3.12-.63 4.24-1.76a5.97 5.97 0 0 0 1.76-4.24v-9c0-1.59-.63-3.12-1.76-4.24A5.97 5.97 0 0 0 6 103.27c-1.59 0-3.12.63-4.24 1.76A5.97 5.97 0 0 0 0 109.27v9c0 1.59.63 3.12 1.76 4.24A5.97 5.97 0 0 0 6 124.27Zm410.14 212.6V114.88a73.102 73.102 0 0 0-21.4-51.6 73.097 73.097 0 0 0-51.59-21.4H114.88a73.06 73.06 0 0 0-72.99 73v221.99a73.08 73.08 0 0 0 21.4 51.59 73.097 73.097 0 0 0 51.59 21.4h228.27a73.08 73.08 0 0 0 51.59-21.4 73.08 73.08 0 0 0 21.4-51.59Zm-362.26 0V114.88a61.048 61.048 0 0 1 17.89-43.11 61.048 61.048 0 0 1 43.11-17.89h228.27c16.17.02 31.68 6.45 43.11 17.89a61.048 61.048 0 0 1 17.89 43.11v221.99a61.066 61.066 0 0 1-61 60.99H114.88a61.039 61.039 0 0 1-43.11-17.88 61.108 61.108 0 0 1-17.89-43.11Zm137.2 113.59c0 15.34 9.24 29.17 23.42 35.04a37.981 37.981 0 0 0 21.92 2.16 37.907 37.907 0 0 0 19.42-10.38 38.02 38.02 0 0 0 10.38-19.42 37.95 37.95 0 0 0-16.13-38.95 38 38 0 0 0-21.08-6.39c-10.06.01-19.7 4.01-26.81 11.12a38.006 38.006 0 0 0-11.12 26.82Zm63.87 0c0 5.12-1.52 10.14-4.37 14.4-2.85 4.27-6.9 7.59-11.64 9.55a25.87 25.87 0 0 1-14.98 1.48c-5.03-1-9.65-3.47-13.28-7.1a25.89 25.89 0 0 1-7.1-13.28 25.91 25.91 0 0 1 11.03-26.62c4.26-2.85 9.28-4.37 14.41-4.37 6.88 0 13.47 2.74 18.33 7.61 4.86 4.86 7.6 11.45 7.61 18.33h-.01Z"/>
  <path fill="#000" stroke="#000" stroke-miterlimit="10" d="m267.97 159.57 34.67 20.03c1.65.95 2.66 2.76 2.64 4.72l-.23 25.26c-.02 1.91.95 3.69 2.54 4.66l17.36 10.57c3.43 2.09 7.76-.48 7.75-4.61l-.02-52.21c0-1.93-1-3.7-2.62-4.65l-57.37-33.64c-3.46-2.03-7.74.61-7.68 4.73l.31 20.56c.03 1.91 1.04 3.66 2.64 4.58h.01ZM304.95 247l-38.22-22.67a5.146 5.146 0 0 0-5.35.04l-48.45 29.77c-3.47 2.14-3.48 7.35 0 9.49l10.32 6.37a5.146 5.146 0 0 0 5.35.06l33.5-19.79a5.146 5.146 0 0 1 5.61.22l14.24 9.97c1.43 1 2.29 2.65 2.34 4.43l.04 1.66c.05 2.06-1 3.97-2.73 4.97l-62.2 35.96c-1.61.93-3.58.93-5.19 0l-31.65-18.36c-1.69-.97-2.73-2.83-2.72-4.83l.13-38.66c0-1.97 1.02-3.79 2.67-4.76l58.77-34.96c1.67-.99 2.68-2.83 2.67-4.82l-.38-63.81c0-1.96-1.02-3.76-2.65-4.75l-21.28-12.79a5.15 5.15 0 0 0-5.29-.02l-86.79 51.15c-1.66.98-2.69 2.81-2.69 4.8l.14 100.62c0 1.92.97 3.71 2.55 4.7l11.13 7.03c3.51 2.21 8.01-.36 8.08-4.62l1.5-93.51c.03-1.91 1.01-3.66 2.59-4.64l62.84-38.91c1.5-.93 3.36-1.03 4.95-.27 1.91.91 3.12 2.91 3.09 5.09l-.52 37.27c-.02 1.94-1.04 3.72-2.66 4.69l-58.35 34.95c-1.64.98-2.66 2.81-2.66 4.77l-.03 63.7c0 1.99 1.03 3.82 2.7 4.8l54.49 31.95c1.64.96 3.65.95 5.27-.03l85.2-51.09c1.67-1 2.69-2.86 2.66-4.86l-.38-25.61c-.03-1.95-1.05-3.73-2.68-4.7h.04Z"/>
  <path fill="#000" d="M191.08 450.46c0 15.34 9.24 29.17 23.42 35.04a37.981 37.981 0 0 0 21.92 2.16 37.907 37.907 0 0 0 19.42-10.38 38.02 38.02 0 0 0 10.38-19.42 37.95 37.95 0 0 0-16.13-38.95 38 38 0 0 0-21.08-6.39c-10.06.01-19.7 4.01-26.81 11.12a38.006 38.006 0 0 0-11.12 26.82Zm63.87 0c0 5.12-1.52 10.14-4.37 14.4-2.85 4.27-6.9 7.59-11.64 9.55a25.87 25.87 0 0 1-14.98 1.48c-5.03-1-9.65-3.47-13.28-7.1a25.89 25.89 0 0 1-7.1-13.28 25.91 25.91 0 0 1 11.03-26.62c4.26-2.85 9.28-4.37 14.41-4.37 6.88 0 13.47 2.74 18.33 7.61 4.86 4.86 7.6 11.45 7.61 18.33h-.01Z"/>
  <defs>
    <linearGradient id="a" x1="-1030.16" x2="-991.99" y1="113.77" y2="113.77" gradientUnits="userSpaceOnUse">
      <stop stop-color="#00FFA9"/>
      <stop offset=".15" stop-color="#02EAB3"/>
      <stop offset=".47" stop-color="#06B3CE"/>
      <stop offset=".93" stop-color="#0C5CF8"/>
      <stop offset="1" stop-color="#0D4DFF"/>
    </linearGradient>
  </defs>
</svg>
