<svg xmlns="http://www.w3.org/2000/svg" width="450" height="502" fill="none" viewBox="0 0 450 502">
  <path fill="#000" d="M6.99 228.32c.78.09 1.58.03 2.33-.19.76-.21 1.47-.58 2.08-1.07a5.972 5.972 0 0 0 2.23-4.01c.33-2.84.73-5.8 1.19-8.78.39-2.41-.72-4.81-2.8-6.07-.67-.42-1.42-.69-2.21-.81-.78-.12-1.58-.09-2.35.1a6.024 6.024 0 0 0-4.5 4.95c-.47 3.07-.89 6.15-1.25 9.23-.18 1.58.27 3.17 1.26 4.41a6.024 6.024 0 0 0 4.01 2.24h.01ZM413.87 423.7A237.047 237.047 0 0 1 250 489.09c-131.23 0-238-106.77-238-238 0-3.12.06-6.35.19-9.59a6.01 6.01 0 0 0-1.57-4.35 6.215 6.215 0 0 0-1.9-1.39 6.06 6.06 0 0 0-2.29-.55c-.79-.03-1.58.09-2.32.37-1.5.55-2.72 1.69-3.38 3.15-.33.72-.51 1.5-.53 2.29-.14 3.4-.2 6.79-.2 10.07 0 48.89 14.34 96.71 41.24 137.54a250.022 250.022 0 0 0 110.1 92.16c91.82 39.45 198.31 20.42 270.79-48.39a5.994 5.994 0 0 0 .32-8.48 5.969 5.969 0 0 0-4.28-1.92 6.15 6.15 0 0 0-2.32.42c-.74.29-1.41.72-1.98 1.28Zm5.55-356.44c-43.91-40.55-100.9-64-160.63-66.11A249.767 249.767 0 0 0 93.91 55.79 251.041 251.041 0 0 0 6.78 193.07c-.38 1.55-.13 3.19.71 4.56.41.67.96 1.26 1.6 1.72.64.47 1.37.8 2.14.99a6 6 0 0 0 2.35.08c.78-.13 1.53-.41 2.2-.82 1.36-.85 2.32-2.2 2.68-3.76C44.03 88.24 139.25 13.09 250.01 13.09a236.423 236.423 0 0 1 160.34 62.13l-17.84 15.65 56.66 19.22-11.68-58.68-18.06 15.85h-.01Z"/>
  <path fill="#000" d="m157.399 268.38-58.94 60.1a19.102 19.102 0 0 0-3.97 20.78c1.46 3.47 3.91 6.43 7.04 8.51 3.13 2.09 6.81 3.2 10.58 3.2h109.44c6.32 0 12.39-2.51 16.86-6.98a23.85 23.85 0 0 0 0-33.72 23.85 23.85 0 0 0-16.86-6.98h-40.42l13.1-13.82c18.54-19.27 31.53-36.33 38.62-50.69 7.23-14.64 10.89-28.6 10.89-41.51 0-11.12-3.12-22.16-9.28-32.82a64.502 64.502 0 0 0-24.9-24.72c-10.27-5.66-22.21-8.52-35.48-8.52-21.47 0-39.37 6.9-53.19 20.53a72.038 72.038 0 0 0-18.19 30.4 24.401 24.401 0 0 0-.75 11.23c.63 3.75 2.14 7.3 4.39 10.36 2.26 3.06 5.2 5.55 8.59 7.27 3.39 1.71 7.14 2.61 10.94 2.61h.83a24.474 24.474 0 0 0 23.25-17.3c.57-1.79 1.3-3.53 2.21-5.18a23.048 23.048 0 0 1 30.37-9.46c1.81.93 3.47 2.13 4.92 3.56 4.03 3.96 5.99 8.89 5.99 15.08 0 6.19-2.29 14.04-6.79 22.44-4.71 8.78-14.55 20.76-29.24 35.63h-.01Zm38.46-81.71a31.796 31.796 0 0 0-7.88-5.69 34.093 34.093 0 0 0-15.5-3.7c-6.28 0-12.45 1.66-17.87 4.83a35.286 35.286 0 0 0-12.95 13.23 41.552 41.552 0 0 0-3.13 7.33c-.76 2.56-2.32 4.8-4.44 6.4-2.12 1.61-4.7 2.5-7.37 2.54h-.83c-1.92 0-3.82-.46-5.54-1.32a12.3 12.3 0 0 1-6.18-14.6c2.86-9.6 8.06-18.33 15.15-25.41 11.66-11.49 26.31-17.07 44.77-17.07 11.22 0 21.21 2.36 29.69 7.03a52.703 52.703 0 0 1 20.3 20.21c5.09 8.81 7.67 17.84 7.67 26.82 0 11.05-3.25 23.23-9.65 36.2-6.54 13.25-18.82 29.3-36.53 47.71l-16.08 16.95c-2.8 2.95-3.57 7.28-1.96 11.01a10.14 10.14 0 0 0 3.75 4.47c1.66 1.09 3.6 1.68 5.59 1.68h44.7a11.829 11.829 0 0 1 11.84 11.84c0 6.54-5.3 11.84-11.84 11.84h-109.44c-1.4 0-2.77-.41-3.93-1.19a7.113 7.113 0 0 1-1.14-10.9l58.92-60.08c15.7-15.89 25.93-28.44 31.26-38.37 5.46-10.17 8.22-19.63 8.22-28.12 0-9.44-3.22-17.4-9.58-23.64h-.02Zm162.001-45.46c-5.1-.01-10.12 1.24-14.62 3.64-4.5 2.4-8.34 5.86-11.18 10.09l-75.64 112.47a33.396 33.396 0 0 0-5.63 16.9 33.355 33.355 0 0 0 3.87 17.38c2.84 5.34 7.08 9.8 12.27 12.91a33.27 33.27 0 0 0 17.16 4.76h53.43c.45 0 .87.18 1.19.49.32.32.49.75.49 1.19v15.05c0 6.6 2.62 12.93 7.29 17.59a24.846 24.846 0 0 0 17.59 7.29c6.6 0 12.92-2.62 17.59-7.29a24.846 24.846 0 0 0 7.29-17.59v-17.44c5.16-1.29 9.73-4.27 13-8.46a23.84 23.84 0 0 0 5.05-14.67 23.85 23.85 0 0 0-18.05-23.13v-100.1a31.124 31.124 0 0 0-9.12-21.97 31.072 31.072 0 0 0-21.97-9.11h-.01ZM395 295.52c0 3.14-1.25 6.15-3.47 8.37a11.838 11.838 0 0 1-8.37 3.47h-.21c-1.59 0-3.12.63-4.24 1.76a5.97 5.97 0 0 0-1.76 4.24v22.73c0 3.42-1.36 6.69-3.77 9.11a12.902 12.902 0 0 1-9.1 3.77c-3.42 0-6.69-1.36-9.11-3.77a12.907 12.907 0 0 1-3.77-9.11v-15.05c0-7.55-6.13-13.67-13.68-13.68h-53.43c-3.87 0-7.67-1.05-10.99-3.04a21.364 21.364 0 0 1-10.33-19.4c.2-3.86 1.45-7.6 3.61-10.81l75.64-112.47c2.28-3.39 5.6-5.96 9.45-7.33a19.04 19.04 0 0 1 11.96-.27c3.91 1.19 7.34 3.61 9.77 6.89 2.43 3.29 3.75 7.27 3.75 11.36v105.39c0 3.31 2.69 6 6 6h.21c3.14 0 6.15 1.25 8.37 3.47 2.22 2.22 3.47 5.23 3.47 8.37Z"/>
  <path fill="#000" d="M342.93 217.1c-2.39-.74-4.96-.7-7.33.13s-4.4 2.4-5.81 4.47l-29.75 43.66a11.698 11.698 0 0 0-.68 12.07c2.02 3.85 6.01 6.25 10.36 6.25h29.75c3.11 0 6.09-1.24 8.28-3.44 2.2-2.2 3.43-5.17 3.44-8.28V228.3c0-2.51-.79-4.95-2.28-6.97-1.49-2.01-3.59-3.5-5.99-4.23h.01Zm-3.73 54.58h-28.94l28.94-42.47v42.47Z"/>
</svg>
