<svg xmlns="http://www.w3.org/2000/svg" width="476" height="503" fill="none" viewBox="0 0 476 503">
  <path fill="#000" d="M466.75 2.29a14.342 14.342 0 0 0-7.87-1.31c-2.69.32-5.24 1.4-7.35 3.12-23.16 18.48-61.14 29.52-101.59 29.52S270.5 22.3 247.42 3.33c-5.31-4.44-13.04-4.44-18.36 0-23.08 18.97-61.41 30.29-102.52 30.29S48.11 22.58 24.96 4.1c-2.1-1.71-4.65-2.8-7.35-3.12-2.7-.32-5.43.13-7.88 1.31A15.696 15.696 0 0 0 .99 16.68l.02 66.69c0 1.59.63 3.12 1.76 4.24a5.97 5.97 0 0 0 4.24 1.76c3.31 0 6-2.69 6-6l-.02-66.69a3.772 3.772 0 0 1 1.94-3.57c.41-.21.87-.28 1.33-.21.45.06.87.26 1.21.58C42.69 33.6 83.46 45.62 126.54 45.62s84.98-12.34 110.14-33.02a2.298 2.298 0 0 1 3.12 0c25.16 20.68 66.33 33.02 110.14 33.02S433.8 33.6 459.02 13.47c.33-.31.76-.51 1.21-.58.45-.06.909.01 1.319.22.63.35 1.141.87 1.481 1.5.34.63.5 1.35.45 2.07l-.06 201.65c-2.12 58.18-36.44 118.92-101.99 180.51-51.62 48.51-106.47 81.79-122.05 90.84-.71.43-1.59.43-2.3 0-15.58-9.05-70.43-42.33-122.05-90.84-65.55-61.59-99.86-122.33-101.99-180.51l-.03-88.16a5.993 5.993 0 0 0-6-6c-.79 0-1.57.15-2.3.45-.73.31-1.39.75-1.95 1.31-.56.55-1 1.21-1.3 1.94-.3.73-.46 1.51-.46 2.3l.03 88.27v.21c1.21 33.68 12.7 68.51 34.17 103.53 17.41 28.39 41.5 57.13 71.59 85.41 52.55 49.38 108.38 83.26 124.24 92.47 2.17 1.28 4.65 1.95 7.17 1.95 2.52 0 5-.67 7.17-1.95 15.86-9.21 71.689-43.09 124.239-92.47 30.09-28.28 54.181-57.02 71.591-85.41 21.47-35.02 32.96-69.85 34.17-103.53v-.21l.06-201.76a15.703 15.703 0 0 0-8.74-14.39h.06Z"/>
  <path fill="#000" d="M111.92 351.38c44.53 47.35 96.27 82.48 123.15 99.21.95.59 2.05.91 3.17.91s2.22-.32 3.17-.91c26.88-16.73 78.63-51.86 123.16-99.21 44.69-47.52 68.25-92.71 70.03-134.32v-.25l.05-145.41c0-1.94-.94-3.75-2.51-4.88-.78-.55-1.68-.92-2.62-1.05a5.96 5.96 0 0 0-2.81.26c-23.29 7.96-49.84 12.17-76.77 12.17-40.7 0-79.29-9.44-108.67-26.58-.92-.54-1.96-.82-3.02-.82s-2.11.28-3.02.82C205.85 68.46 167.25 77.9 126.56 77.9c-26.93 0-53.48-4.21-76.77-12.17-.9-.31-1.87-.4-2.81-.26s-1.84.5-2.62 1.05c-.78.56-1.41 1.29-1.85 2.14-.44.85-.66 1.79-.66 2.74l.04 145.41v.25c1.79 41.61 25.35 86.8 70.04 134.32h-.01ZM126.55 89.9c41.42 0 80.92-9.39 111.7-26.5 30.78 17.11 70.28 26.5 111.7 26.5 24.6.08 49.09-3.38 72.71-10.28l-.04 137.05c-1.7 38.62-24.17 81.18-66.78 126.49-41.91 44.56-90.45 78.14-117.58 95.26-27.13-17.12-75.67-50.69-117.58-95.26-42.61-45.31-65.08-87.87-66.78-126.49l-.04-137.05c23.62 6.9 48.11 10.36 72.71 10.28h-.02Z"/>
  <path fill="#000" d="M234.621 297.21a26.4 26.4 0 0 0-18.63 7.81c-10.26 10.35-10.19 27.07.16 37.33 4.97 4.93 11.7 7.68 18.7 7.65 3.5.05 6.97-.62 10.2-1.95 3.24-1.33 6.17-3.3 8.62-5.8 2.51-2.42 4.51-5.32 5.85-8.54 1.35-3.22 2.02-6.68 1.97-10.17.05-3.49-.64-6.96-2-10.18a25.368 25.368 0 0 0-5.93-8.51 26.468 26.468 0 0 0-8.71-5.74 26.273 26.273 0 0 0-10.25-1.9h.02Zm10.61 36.52a13.92 13.92 0 0 1-4.74 3.21c-1.78.74-3.7 1.09-5.63 1.06-3.87.08-7.6-1.46-10.29-4.25-2.7-2.69-4.23-6.35-4.24-10.17 0-3.82 1.49-7.48 4.18-10.19a13.44 13.44 0 0 1 4.61-3.17c1.74-.72 3.62-1.06 5.5-1.01 1.96-.05 3.91.3 5.73 1.03 1.82.73 3.47 1.82 4.86 3.21a13.32 13.32 0 0 1 4.3 10.09c.04 1.9-.31 3.79-1.05 5.55-.74 1.76-1.83 3.34-3.23 4.64ZM199.31 216.8h.94c4.09-.04 8.07-1.29 11.46-3.58 3.39-2.29 6.03-5.52 7.59-9.3.88-2.03 2.19-3.85 3.83-5.33 3.55-3.27 8.08-4.86 13.86-4.86 5.78 0 10.04 1.27 13.19 3.9 2.86 2.38 4.19 5.02 4.19 8.29.08 2.31-.51 4.59-1.69 6.57-.64 1.03-3.31 4.44-14.06 13.89-9.32 8.15-16.18 17.07-20.4 26.51a76.709 76.709 0 0 0-6.34 31.54 11.54 11.54 0 0 0 3.46 7.93c2.14 2.09 5.01 3.27 8 3.29h21.67c5.99-.04 10.96-4.66 11.43-10.63.23-3.92.82-7.8 1.76-11.61.74-3.01 1.95-5.89 3.58-8.53.82-1.22 3.48-4.43 12.01-12.19 7.72-7.06 12.35-11.85 14.56-15.08 3.31-4.75 5.96-9.93 7.86-15.4a49.829 49.829 0 0 0 2.56-15.69 52.728 52.728 0 0 0-7.93-27.61 53.782 53.782 0 0 0-21.15-20.04c-8.67-4.56-19.19-6.87-31.28-6.87-18.83 0-34.3 5.58-46 16.58a54.914 54.914 0 0 0-12.86 17.98 21.538 21.538 0 0 0-1.74 10.45 21.606 21.606 0 0 0 11.23 17.19c3.15 1.7 6.68 2.6 10.26 2.6h.01Zm-8.77-25.42c2.38-5.32 5.81-10.1 10.09-14.06 9.53-8.96 21.89-13.32 37.78-13.32 10.12 0 18.76 1.85 25.69 5.49a41.312 41.312 0 0 1 16.47 15.64 40.288 40.288 0 0 1 6.19 21.39c0 4.05-.67 8.06-1.95 11.9a51.048 51.048 0 0 1-6.38 12.42c-1.12 1.63-4.23 5.21-12.73 12.98-9.73 8.86-12.58 12.43-13.87 14.34a40.827 40.827 0 0 0-5.2 12.05c-1.13 4.4-1.84 8.9-2.13 13.44h-20.63a64.43 64.43 0 0 1 5.29-25.87c3.5-7.84 9.33-15.36 17.35-22.38 11.87-10.43 14.99-14.43 16.31-16.54 2.38-3.89 3.61-8.38 3.53-12.94 0-3.37-.77-6.7-2.24-9.73a22.456 22.456 0 0 0-6.27-7.78c-5.32-4.43-12.34-6.68-20.87-6.68-8.53 0-16.2 2.7-21.98 8.03a27.356 27.356 0 0 0-6.73 9.44c-.65 1.61-1.75 3-3.17 4-1.43 1-3.11 1.55-4.85 1.6h-.94c-3.23 0-6.24-1.64-8.01-4.34a9.56 9.56 0 0 1-.76-9.08h.01ZM7.03 117.27c3.31 0 6-2.69 6-6v-9c0-1.59-.63-3.12-1.76-4.25a6.03 6.03 0 0 0-8.49 0 6.052 6.052 0 0 0-1.76 4.25v9c0 3.31 2.69 6 6 6h.01Z"/>
</svg>
