<?xml version="1.0" encoding="UTF-8"?><svg id="Layer_1" xmlns="http://www.w3.org/2000/svg" viewBox="0 0 1200 1200"><defs><style>.cls-1{fill:#3772ff;}</style></defs><polygon class="cls-1" points="139.97 1190 378.17 1190 378.17 606.11 139.97 844.31 139.97 1190"/><path class="cls-1" d="m1053.68,332.48c-11-58.63-32.98-112.38-65.96-158.8-32.98-46.42-78.18-86.73-135.59-117.26-57.41-30.54-125.82-46.42-207.66-46.42H139.97v197.89h503.27c40.31,0,72.07,9.77,97.72,29.32,25.65,20.76,43.98,45.19,57.41,74.51,12.21,28.09,18.32,61.08,18.32,95.28s-6.11,67.18-18.32,95.28c-13.44,29.32-31.76,53.75-57.41,74.51-25.65,19.55-57.41,29.32-97.72,29.32h-191.84v197.89h193.06c81.84,0,150.25-15.88,207.66-46.42,57.41-30.54,102.61-70.85,135.59-117.27,32.98-46.42,54.97-100.16,65.96-158.8,4.27-24.67,6.35-49.72,6.35-74.51s-2.08-49.84-6.35-74.51Z"/></svg>