<svg xmlns="http://www.w3.org/2000/svg" width="520" height="642" fill="none" viewBox="0 0 520 642">
    <g clip-path="url(#a)" style="mix-blend-mode:color-dodge">
        <path fill="url(#b)" d="m350.078 641.541-.914-.228 21.692-83.038c3.197-12.123.912-24.59-6.393-36.143l-36.305-56.731c-16.325-25.507-18.724-52.957-6.963-79.264l79.801-177.286c9.476-21.16-4.681-42.207-18.496-62.564-9.02-13.382-17.695-26.08-19.522-38.433C358.867 79.718 470.863 3.43 475.544.111l.458.684c-1.142.803-116.334 79.267-112.226 106.831 1.827 12.239 10.277 24.821 19.294 38.088 13.929 20.588 28.314 41.863 18.61 63.479l-79.688 177.286c-11.644 25.965-9.361 53.073 6.85 78.349l36.305 56.731c7.535 11.781 9.817 24.477 6.507 36.83l-21.69 83.038.114.114Z"/>
        <path fill="url(#c)" d="m350.076 641.541-.801-.228 20.095-84.18c.341-1.373.683-2.977.914-5.033a45.03 45.03 0 0 0-2.399-21.961c-.914-2.632-2.396-6.406-4.567-9.722l-34.134-57.762c-4.453-7.092-8.106-15.783-10.732-26.077-4.453-17.614-3.311-36.259 3.538-53.874 0 0 .687-1.828 2.057-5.147.798-1.942 1.712-4.116 2.054-5.033l.114-.456 37.79-95.505c.114-1.487 2.51-7.663 14.726-36.488 1.713-4.116 3.083-7.434 3.197-7.662l11.644-26.65c9.362-21.16-4.795-42.092-18.496-62.45-8.789-13.04-17.123-25.507-19.177-37.516-1.829-10.638 12.442-27.108 24.659-39.117C412.182 36.024 461.157.45 461.729.111l.456.684s-49.547 35.918-81.057 66.8c-17.354 17.042-25.801 30.31-24.431 38.316 2.054 11.895 10.274 24.134 19.066 37.172 13.815 20.474 28.199 41.748 18.61 63.25l-11.647 26.652s-.57 1.601-3.197 7.663c-4.681 10.866-14.157 33.283-14.726 36.029h.114l-.114.458-37.79 95.506c-.114.57-.684 1.943-2.054 5.375-.798 1.829-1.712 4.002-1.94 4.802l-.114.345c-6.736 17.5-7.992 35.915-3.539 53.299 2.624 10.18 6.165 18.759 10.616 25.735l34.137 57.762c2.168 3.318 3.652 7.206 4.564 9.835 2.627 7.207 3.427 14.755 2.513 22.306a39.057 39.057 0 0 1-.912 5.147l-20.094 84.18-.114.114Z" opacity=".98"/>
        <path fill="url(#d)" d="m350.077 641.541-.8-.228 18.496-85.211c.341-1.373.569-2.974.797-4.461v-.572c1.029-7.663.228-15.211-2.168-22.189l-.228-.687c-1.028-2.859-2.285-6.406-3.997-9.035l-31.852-58.79c-5.023-7.893-7.991-18.187-9.932-26.422-4.225-17.269-3.31-36.029 2.396-53.985 0-.458.459-1.603 1.715-5.147.684-1.831 1.599-4.232 1.827-5.033l.114-.458 32.08-94.361c-.342-1.718 2.168-9.266 13.356-37.058 1.598-3.89 2.855-7.092 2.855-7.32l11.53-27.108c9.248-21.16-4.795-42.207-18.493-62.45-8.564-12.698-16.67-24.707-18.952-36.488-1.598-8.462 6.507-22.075 22.832-38.43C401.907 35.682 447.343.453 447.802.111l.57.684s-45.781 35.573-76.035 65.769c-16.211 16.127-24.203 29.509-22.604 37.632 2.284 11.551 10.276 23.562 18.837 36.143 13.815 20.474 28.086 41.749 18.61 63.249l-11.53 26.994s-.914 2.403-2.969 7.436c-4.111 10.292-13.7 34.084-13.358 36.485h.227l-.114.459-32.08 94.361s-.456 1.831-1.94 5.605c-.684 1.715-1.484 3.888-1.598 4.575v.342c-5.823 17.844-6.621 36.487-2.51 53.643 1.94 8.121 4.795 18.301 9.817 26.079l31.853 58.791c1.712 2.746 2.966 6.289 3.994 9.263l.228.686c2.513 7.207 3.311 14.755 2.285 22.648v.572c-.228 1.487-.459 3.202-.801 4.575l-18.493 85.211-.114.228Z" opacity=".97"/>
        <path fill="url(#e)" d="M350.074 641.541h-.798l17.012-86.468c.342-1.145.456-2.745.57-4.118v-1.029c1.028-8.006.342-15.555-2.054-22.533-.231-.573-.345-1.142-.573-1.829-.912-2.746-1.826-5.947-3.31-8.121l-29.682-59.707c-4.681-7.204-7.08-17.956-8.906-25.735l-.228-.914c-3.883-17.042-3.424-35.801 1.371-54.33 0-.456.228-1.601 1.484-5.147.57-1.829 1.37-4.233 1.484-5.033v-.342l26.371-93.219c-.912-1.942 2.285-12.008 11.989-37.743 1.367-3.661 2.51-6.637 2.624-6.979l11.416-27.45c9.134-21.16-4.909-42.204-18.493-62.45-8.334-12.353-16.097-24.02-18.61-35.457-1.826-8.465 5.823-22.302 21.006-37.743C391.63 35.456 433.417.45 433.873.11l.57.684s-42.126 35.231-71.01 64.626c-15.071 15.325-22.604 28.823-20.778 37.058 2.51 11.208 10.274 22.875 18.493 35.115 13.701 20.474 27.972 41.634 18.61 63.25l-11.416 27.45s-.914 2.518-2.627 7.093c-3.652 9.607-13.242 35.228-11.986 37.057h.342l-.114.458-26.373 93.333s-.228 1.715-1.598 5.605c-.57 1.715-1.371 3.889-1.371 4.575v.342c-4.795 18.415-5.25 37.06-1.367 53.988l.228.914c1.826 7.776 4.222 18.415 8.789 25.507l29.684 59.705c1.484 2.287 2.51 5.489 3.424 8.349.228.572.342 1.259.57 1.831 2.399 7.09 3.083 14.869 2.171 22.875v1.029c-.228 1.373-.458 2.973-.8 4.232l-17.009 86.354h-.231Z" opacity=".95"/>
        <path fill="url(#f)" d="M350.08 641.541h-.8l15.413-87.613c.342-1.028.456-2.745.57-4.002 0-.458 0-.917.116-1.259.912-8.234.228-15.899-1.942-22.875-.228-.686-.456-1.601-.684-2.401-.687-2.632-1.599-5.606-2.855-7.665l-27.399-60.733c-3.997-6.178-5.937-15.786-7.536-23.448-.228-1.259-.456-2.404-.798-3.546-3.538-16.586-3.538-35.343.342-54.558-.114-.458.114-1.717 1.143-5.147.456-1.717 1.254-4.346 1.254-4.919h-.114v-.342l20.778-92.19c-1.713-2.287 2.74-16.469 10.504-38.544 1.256-3.432 2.054-5.947 2.168-6.52l11.416-27.908c9.02-21.161-4.909-42.205-18.493-62.451-7.992-12.009-15.641-23.333-18.268-34.428-2.054-8.463 5.139-22.417 19.296-37.171C381.362 35.112 419.491.567 419.95.11l.57.573s-38.474 34.884-65.987 63.593c-13.929 14.526-21.006 28.136-19.065 36.373 2.624 10.867 10.273 22.189 18.151 34.084 13.701 20.474 27.857 41.634 18.61 63.251l-11.303 27.794s-.914 2.86-2.284 6.52c-2.169 6.061-5.479 15.324-7.878 23.217-3.994 13.154-3.082 14.413-2.852 14.527h.342v.458l-20.778 92.188s0 1.831-1.256 5.605c-.456 1.715-1.143 4.002-1.143 4.575v.342c-3.766 19.101-3.88 37.86-.342 54.33.228 1.144.456 2.287.687 3.546 1.482 7.206 3.538 17.156 7.419 23.22l27.399 60.733c1.37 2.059 2.171 5.147 2.969 7.778.228.915.456 1.715.686 2.402 2.282 7.092 2.852 14.868 2.054 23.219v1.257c-.114 1.373-.228 2.973-.57 4.118l-15.413 87.385.114.342Z" opacity=".94"/>
        <path fill="url(#g)" d="M350.074 641.541h-.8l13.814-88.641c.228-1.031.342-2.518.456-3.774v-1.487c.915-8.465.228-16.241-1.826-23.106-.228-.8-.456-1.829-.684-2.86-.686-2.629-1.37-5.602-2.512-7.32l-25.231-61.764c-3.539-5.603-5.251-14.868-6.508-22.303-.342-1.828-.684-3.546-.912-5.033-3.31-16.013-3.541-34.428-.8-54.899-.228-.573 0-1.832.914-5.033.456-1.718 1.14-4.347 1.026-4.919h-.228v-.342l15.072-91.16c-2.513-2.289 1.826-17.386 9.017-39.233 1.028-3.202 1.826-5.489 1.94-6.061l11.305-28.25c8.903-21.161-5.026-42.207-18.61-62.565-7.763-11.667-15.069-22.647-18.037-33.283-2.285-8.696 4.222-22.306 17.467-36.488C371.08 34.767 405.556.567 405.901.111l.57.573S371.65 35.34 345.507 63.248c-12.9 13.726-19.522 27.45-17.239 35.685 2.854 10.524 10.162 21.505 17.923 33.055 13.701 20.474 27.858 41.635 18.724 63.251l-11.188 28.253c-.114.572-.798 2.859-1.941 6.175-3.31 10.066-12.216 36.944-9.248 38.43h.228v.459l-15.068 91.159s0 1.945-.915 5.606c-.456 1.714-1.026 3.888-.912 4.46h.114v.342c-2.74 20.36-2.512 38.775.684 54.788.342 1.487.57 3.202.915 5.147 1.254 7.435 2.968 16.584 6.507 22.075l25.231 61.764c1.254 1.829 1.94 4.917 2.624 7.549.228 1.028.456 2.059.687 2.859 2.054 6.976 2.738 14.869 1.826 23.448 0 .456 0 .914-.114 1.487a17.985 17.985 0 0 1-.459 3.888l-13.812 88.413Z" opacity=".92"/>
        <path fill="url(#h)" d="M350.082 641.541h-.798l12.214-89.672c.228-.914.344-2.515.344-3.774v-1.487c.798-8.807.228-16.697-1.714-23.448-.228-.8-.456-1.942-.684-3.087-.57-2.63-1.143-5.603-2.168-7.321l-23.063-62.792c-3.311-5.147-4.681-14.299-5.707-21.733-.345-2.173-.686-4.347-.914-6.061-3.767-19.444-2.969-39.69-1.827-55.131-.342-.572 0-1.945.57-5.033.345-1.828.915-4.46.687-4.919h-.228v-.342l9.476-90.13c-3.314-2.516 1.598-20.702 7.533-39.918.914-2.859 1.484-4.919 1.598-5.605l11.188-28.709c8.906-21.272-5.137-42.318-18.721-62.564-7.536-11.209-14.501-21.845-17.582-32.139-2.512-8.693 3.425-22.416 15.639-35.8A25224.1 25224.1 0 0 0 391.98.11l.572.573s-30.826 33.97-55.94 61.536c-11.989 13.268-17.924 26.647-15.528 34.998 3.083 10.18 10.046 20.816 17.468 31.91 13.701 20.474 27.741 41.749 18.724 63.368l-11.075 28.592c-.114.689-.8 2.746-1.598 5.605-3.197 10.18-11.416 37.288-7.764 39.117h.228v.459l-9.475 90.13c.456.57.114 2.174-.57 5.603-.342 1.601-.801 4.119-.687 4.461h.228v.344c-1.14 15.441-1.94 35.685 1.829 55.131.342 1.714.57 3.774.912 6.061 1.028 7.32 2.399 16.469 5.595 21.502l23.06 62.795c1.143 1.715 1.713 4.803 2.285 7.435.228 1.142.456 2.287.684 3.087 1.94 6.862 2.513 14.869 1.712 23.79v1.487c0 1.373-.114 2.974-.456 3.891l-12.216 89.555h.114Z" opacity=".9"/>
        <path fill="url(#i)" d="M350.077 641.544h-.798l10.616-90.703c.23-.915.228-2.516.344-3.775v-1.6c.798-9.266.228-17.042-1.484-23.79a52.893 52.893 0 0 1-.686-3.318c-.456-2.516-.912-5.606-1.941-7.207l-20.778-63.706c-3.082-4.806-4.111-13.955-5.023-21.275-.341-2.632-.569-5.033-.914-6.864-3.311-18.071-3.083-37.286-2.852-54.1v-1.258c-.345-.573-.231-2.06.228-5.033.228-1.715.684-4.461.456-4.803h-.228v-.344l3.766-89.1c-4.108-2.746.801-22.189 6.052-40.832.684-2.404 1.256-4.233 1.37-4.919l11.074-29.053c8.79-21.275-5.253-42.319-18.838-62.793-7.193-10.866-14.042-21.046-17.239-30.996-2.855-8.693 2.627-22.416 13.815-35.114C350.536 34.197 377.821.57 378.049.225l.57.459s-27.514 33.97-50.918 60.505c-11.074 12.467-16.439 25.963-13.699 34.314 3.197 9.835 9.932 20.015 17.123 30.768 13.701 20.588 27.744 41.748 18.952 63.479l-11.074 29.053c-.114.684-.684 2.515-1.37 4.917-2.967 10.294-10.844 37.86-6.277 40.033h.228v.342l-3.769 89.1c.458.573.344 2.29-.228 5.492-.228 1.6-.684 4.002-.456 4.46h.228v1.829c-.228 16.814-.342 36.029 2.854 53.988.342 1.829.57 4.232.912 6.862.801 7.32 1.829 16.355 4.909 21.046l20.778 63.709c1.143 1.715 1.599 4.803 2.057 7.435.228 1.256.342 2.401.57 3.201 1.826 6.862 2.399 14.755 1.598 24.021v1.6c0 1.373 0 2.974-.342 3.889l-10.618 90.586v.231Z" opacity=".89"/>
        <path fill="url(#j)" d="M350.079 641.544h-.798l9.018-91.846c.23-.8.23-2.404.23-3.774v-1.831c.798-9.722.342-17.387-1.37-24.135-.228-.914-.345-2.173-.572-3.429-.342-2.518-.798-5.72-1.713-7.207l-18.493-64.737c-2.855-4.575-3.655-13.726-4.225-21.161-.228-2.973-.456-5.491-.798-7.32-2.399-14.068-2.855-28.481-3.427-42.435-.228-4.688-.342-9.035-.57-13.382-.456-.572-.342-2.287 0-5.033.228-1.601.57-4.574 0-4.802h-.228v-.345l-1.826-88.071c-4.909-2.974-.456-22.761 4.567-41.863.57-2.056.912-3.429 1.026-4.23l10.96-29.509c8.678-21.388-5.365-42.549-18.952-62.909-6.963-10.41-13.47-20.243-16.781-29.737-3.082-8.807 1.598-22.305 12.1-34.428C340.262 33.967 363.894.567 364.122.225l.57.459S340.831 34.423 318.8 60.158c-10.277 12.011-14.844 25.165-11.875 33.744 3.311 9.494 9.818 19.215 16.67 29.623 13.698 20.588 27.855 41.863 19.065 63.596l-10.96 29.395c-.114.684-.572 2.173-1.028 4.23-2.741 10.524-10.16 38.433-4.795 41.062h.228v.344l1.826 88.069c.686.687.458 2.518.117 5.492-.231 1.487-.459 4.116-.117 4.346h.117v.342c.227 4.347.341 8.807.569 13.499.456 13.954 1.026 28.25 3.425 42.318.342 1.945.57 4.461.798 7.434.572 7.321 1.37 16.472 4.225 20.819l18.496 64.738c1.026 1.6 1.37 4.688 1.826 7.434.228 1.373.342 2.515.57 3.429 1.712 6.751 2.171 14.527 1.37 24.365v1.715c0 1.373 0 2.974-.228 3.888l-9.02 91.732v-.228Z" opacity=".87"/>
        <path fill="url(#k)" d="M349.966 641.541h-.801l7.422-92.874c.228-.8.228-2.401.228-3.774v-1.831c.456-6.862.8-15.897-1.257-24.363-.228-.914-.342-2.173-.456-3.66-.227-2.629-.569-5.717-1.484-7.09l-16.325-65.768c-2.627-4.233-3.196-13.496-3.652-20.93-.231-3.204-.345-5.948-.687-7.893-1.712-11.094-2.51-22.417-3.196-33.397-.57-7.893-1.026-15.441-1.827-22.648-.57-.572-.456-2.287-.342-4.919 0-1.714.342-4.574-.228-4.802h-.228v-.345l-7.535-87.04c-5.824-3.318-1.371-24.707 3.082-43.008.342-1.486.684-2.515.798-3.201l10.847-29.854c8.561-21.502-5.593-42.663-19.18-63.137-6.621-9.949-12.901-19.326-16.325-28.478-3.311-8.921.684-22.189 10.274-33.742C329.986 33.622 350.08.567 350.194.34l.683.344s-20.319 33.395-40.869 58.446c-9.248 11.209-13.359 24.593-10.162 33.056 3.427 9.035 9.706 18.414 16.213 28.366 13.699 20.702 27.969 41.977 19.294 63.824l-10.846 29.851c-.114.572-.456 1.715-.801 3.204-2.396 9.722-9.704 39.117-3.31 42.318h.228v.345l7.535 87.04c.687.573.687 2.516.456 5.375 0 1.601-.228 4.119.117 4.347h.114v.228c.798 7.32 1.367 14.871 1.826 22.761.684 10.981 1.484 22.306 3.197 33.4.342 1.945.456 4.689.683 7.893.456 7.434.915 16.583 3.539 20.702l16.328 65.766c.911 1.601 1.253 4.691 1.484 7.434.114 1.373.228 2.746.456 3.546 2.054 8.58 1.712 17.729 1.256 24.593v1.829c0 1.373 0 3.088-.23 3.888l-7.419 92.763v-.117Z" opacity=".85"/>
        <path fill="url(#l)" d="M349.967 641.541h-.8l5.823-93.902c.228-.801.228-2.404.114-3.775v-1.831c.456-7.662.8-16.586-1.142-24.707-.228-.8-.228-2.173-.342-3.66-.228-2.629-.342-5.947-1.257-7.203l-14.04-66.684c-2.513-4.002-2.741-13.381-2.969-21.046 0-3.43-.114-6.289-.456-8.121-1.256-8.807-2.056-17.728-2.74-26.535-.915-10.522-1.713-20.474-3.311-29.851-.686-.687-.686-2.632-.572-4.919 0-1.946 0-4.461-.57-4.805h-.228v-.228l-13.129-86.013c-6.851-3.774-2.398-26.993 1.599-44.263.228-.915.342-1.715.456-2.288l10.732-30.309c8.447-21.619-5.709-42.893-19.408-63.481-6.279-9.494-12.33-18.415-15.869-27.108-3.655-8.921-.228-22.19 8.448-33.17C319.599 33.394 336.152.683 336.266.34l.687.344s-16.67 33.056-35.85 57.418c-8.561 10.752-11.872 23.79-8.333 32.369 3.539 8.579 9.476 17.5 15.755 26.994 13.815 20.702 28.086 42.204 19.522 64.165l-10.73 30.195s-.23 1.259-.458 2.174c-6.166 26.419-6.736 41.062-1.827 43.463h.228v.228l13.129 86.012c.914.687.914 2.86.8 5.378 0 1.715 0 4.002.456 4.346h.114v.228c1.712 9.494 2.513 19.443 3.425 30.082.686 8.693 1.484 17.728 2.74 26.421.228 1.829.342 4.803.456 8.235.231 7.548.459 16.814 2.855 20.702l14.043 66.683c.914 1.487 1.142 4.689 1.256 7.548 0 1.487.228 2.86.342 3.547 1.826 8.234 1.598 17.155 1.142 24.934v1.829c0 1.487 0 3.088-.114 3.891l-5.823 93.788-.114.228Z" opacity=".84"/>
        <path fill="url(#m)" d="M349.963 641.427h-.683l4.222-95.047c.228-.687.114-2.516 0-3.888v-1.832c.459-8.12.8-16.814-.912-25.048-.228-.801-.228-2.174-.342-3.774 0-2.632-.23-5.948-1.028-7.207l-11.875-67.711c-2.396-3.774-2.396-13.382-2.396-21.047 0-3.543 0-6.748-.228-8.576-.914-6.865-1.598-14.069-2.168-20.933-1.143-12.695-2.285-24.59-4.912-35.684-.797-.687-.797-2.632-.911-4.805 0-1.943-.114-4.461-.915-4.803h-.114v-.23l-18.838-84.982c-5.934-3.201-5.82-18.528.231-45.867l.228-.8 10.616-30.652c8.336-21.733-5.935-43.121-19.636-63.823-6.051-9.035-11.644-17.5-15.299-25.735-3.881-8.921-1.254-21.961 6.624-32.483C309.322 33.052 322.222.683 322.334.339l.684.228s-13.129 32.827-30.938 56.389c-7.764 10.294-10.39 22.992-6.621 31.682 3.538 8.238 9.245 16.7 15.182 25.621 13.929 20.819 28.314 42.435 19.753 64.51l-10.619 30.654v.801c-7.649 33.855-4.567 43.235-.57 45.178h.114v.23l18.836 84.982c1.028.686 1.028 2.973 1.142 5.375 0 1.717.114 3.89.686 4.346h.114v.231c2.739 11.208 3.767 23.217 5.023 35.912.57 6.864 1.257 13.954 2.168 20.933.228 1.828.228 5.033.228 8.579 0 7.662 0 17.156 2.285 20.702l11.872 67.711c.915 1.373.915 4.689 1.029 7.548 0 1.487 0 2.974.228 3.661 1.712 8.234 1.37 17.386.914 25.162v5.834l-4.225 94.933.344-.114Z" opacity=".82"/>
        <path fill="url(#n)" d="M349.961 641.428h-.684l2.627-96.076c.114-.686 0-2.517 0-3.774v-1.945c.342-7.548.912-16.928-.8-25.277-.114-.8-.114-2.287-.228-3.89 0-2.743 0-6.062-.798-7.204l-9.59-68.742c-2.171-3.547-1.943-13.268-1.715-21.047 0-3.774.231-7.09 0-8.807-.684-5.375-1.14-10.864-1.712-16.241-1.368-13.838-2.738-28.137-6.507-40.718-.798-.686-1.026-2.632-1.254-4.805-.231-2.057-.345-4.344-1.256-4.803h-.114v-.228l-24.434-83.955c-9.359-4.916-4.108-34.426-1.367-46.893l10.501-31.112c8.334-21.961-6.051-43.464-19.977-64.28-5.709-8.465-11.074-16.47-14.615-24.248-3.425-7.32-1.824-17.73 4.797-31.682C302.813 36.14 308.289.796 308.403.457h.686s-5.709 36.029-25.801 55.472c-6.509 13.84-8.105 24.02-4.794 31.11 3.652 7.778 8.903 15.671 14.612 24.134 14.043 20.932 28.542 42.663 20.092 64.854l-10.502 30.996c-2.054 9.608-8.219 41.518 1.142 46.093h.114v.228l24.431 83.955c1.142.686 1.256 2.974 1.484 5.261.114 1.831.342 3.888 1.029 4.347v.228c3.88 12.697 5.251 27.107 6.507 40.948a388.707 388.707 0 0 0 1.712 16.241c.228 1.831.114 5.147 0 8.921-.228 7.779-.458 17.386 1.712 20.702l9.59 68.743c.798 1.372.798 4.688.798 7.548 0 1.601 0 3.088.228 3.774 1.712 8.465 1.143 17.959.801 25.507v1.945c0 1.487.114 3.202 0 3.888l-2.627 95.962.344.114Z" opacity=".81"/>
        <path fill="url(#o)" d="M349.963 641.428h-.684l1.026-97.106c.114-.684 0-2.516 0-3.889v-1.945c.228-5.03 0-10.063-.228-14.982a165.78 165.78 0 0 1-.342-10.636c-.342-.917-.228-2.86-.228-5.033 0-2.518.114-5.378-.458-6.292l-7.42-69.771c-2.054-3.43-1.598-13.268-1.142-21.158.228-3.891.342-7.32.228-9.038-.456-4.116-.912-8.348-1.256-12.353-1.482-15.324-2.966-31.224-7.992-44.95-.912-.687-1.254-2.629-1.482-4.689-.344-2.059-.572-4.346-1.598-4.805h-.116v-.228l-30.024-82.924c-11.988-6.176-3.538-45.406-3.196-47.124l10.387-31.454c8.22-22.075-6.393-43.805-20.436-64.852-5.365-7.89-10.387-15.44-13.926-22.645-3.655-7.32-2.627-17.158 2.969-31.112C292.766 36.142 294.476.798 294.476.457h.684s-1.71 35.915-20.89 54.33c-5.595 13.609-6.51 23.33-2.969 30.423 3.653 7.206 8.562 14.64 13.929 22.533 14.155 21.158 28.884 43.005 20.548 65.424l-10.388 31.452c-.342 1.604-8.789 40.72 2.969 46.323h.114v.228l30.14 82.927c1.139.684 1.484 2.974 1.826 5.261.228 1.829.57 3.774 1.256 4.347v.114c5.137 13.84 6.621 29.737 8.106 45.178.342 4.005.798 8.235 1.254 12.353.23 1.715 0 5.147-.114 9.149-.342 7.437-.912 17.731 1.142 20.819l7.422 69.771c.683 1.142.569 3.888.455 6.634 0 1.942-.114 4.002.228 4.802 0 3.66.228 7.32.342 10.753.231 4.919.459 10.063.345 14.982v1.945c0 1.601.228 3.316 0 4.003l-1.029 97.106.117.114Z" opacity=".79"/>
        <path fill="url(#p)" d="m349.274 641.427-.57-98.249v-3.774c0-.917-.117-1.717 0-2.059.228-4.575 0-9.266-.231-13.726a145.194 145.194 0 0 1-.228-12.237c-.342-.917-.228-2.86 0-5.147.114-2.404.342-5.492-.228-6.406l-5.136-70.799c-1.941-3.204-1.143-13.268-.57-21.389.342-4.118.57-7.551.456-9.265a227.997 227.997 0 0 1-.801-8.807c-1.484-16.7-3.082-33.97-9.476-48.725-1.026-.686-1.367-2.631-1.826-4.577-.456-2.057-.912-4.23-1.94-4.802v-.228l-35.733-81.896c-13.359-6.748-5.023-46.896-4.909-47.352l10.274-31.913c8.219-22.417-6.621-44.264-21.006-65.538-4.909-7.32-9.59-14.182-13.128-20.93-3.769-7.206-3.425-16.814 1.253-30.426v-.114C283.401 35.801 281.117.57 281.117.225h.683s2.285 35.801-15.755 53.301c-4.564 13.268-4.906 22.762-1.253 29.738 3.538 6.747 8.219 13.612 13.128 20.932 13.701 20.36 29.342 43.349 21.006 66.111l-10.274 31.91c-2.282 10.411-6.279 41.29 4.681 46.551v.228l35.733 81.896c1.256.801 1.712 2.974 2.171 5.261.341 1.832.797 3.66 1.598 4.233v.114c6.393 14.868 7.991 32.255 9.59 49.069.228 2.973.57 5.833.798 8.807.114 1.714 0 5.261-.456 9.379-.573 7.663-1.371 18.071.57 20.93l5.136 70.799c.573 1.145.459 4.005.345 6.751-.114 2.057-.231 4.116 0 4.916 0 4.119 0 8.352.228 12.354.228 4.574.456 9.151.228 13.84v2.059c.114 1.943.228 3.316 0 3.888l.57 98.135h-.684.114Z" opacity=".77"/>
        <path fill="url(#q)" d="m349.28 641.428-2.057-99.394s0-2.629-.114-3.888c0-.915-.114-1.601-.114-1.946.114-4.23 0-8.576-.228-12.695-.228-4.46-.342-9.035-.114-13.496-.228-.914 0-2.859 0-5.261.228-2.517.456-5.605 0-6.405l-2.968-71.717c-1.827-2.973-.798-13.267 0-21.502.456-4.233.8-7.893.686-9.38-.23-1.942-.344-3.888-.572-5.947-1.599-17.842-3.197-36.371-10.847-52.042-1.025-.801-1.484-2.63-2.054-4.575-.57-2.059-1.142-4.23-2.282-4.803v-.114l-41.442-80.865c-12.786-6.408-8.561-39.119-6.738-47.582l10.163-32.255c8.105-22.644-7.65-45.864-21.579-66.224-4.564-6.636-8.789-12.926-12.328-19.101-3.997-7.093-4.111-16.47-.572-29.737v-.117C272.903 36.141 266.852 1.03 266.738.684h.684s6.282 35.687-10.73 52.157c-3.541 12.925-3.31 22.188.57 29.053 3.425 6.175 7.764 12.467 12.217 19.098 14.042 20.591 29.909 43.808 21.689 66.911l-10.159 32.255c-1.827 8.352-6.052 40.72 6.507 46.782v.114l41.442 80.865c1.37.8 1.94 2.974 2.51 5.147.459 1.831.914 3.66 1.829 4.233v.114c7.761 15.783 9.476 34.314 10.958 52.384.23 1.945.344 3.891.572 5.833.114 1.601-.228 5.261-.572 9.608-.798 7.779-1.827 18.415 0 21.16l2.968 71.717c.573 1.028.345 3.774 0 6.747-.228 2.174-.342 4.347 0 5.033v.114c-.228 4.461 0 9.036.114 13.496.114 4.233.345 8.465.231 12.695 0 .345 0 1.031.114 1.946.114 1.945.342 3.432.114 4.118l2.054 99.28h-.684l.114-.116Z" opacity=".76"/>
        <path fill="url(#r)" d="m349.278 641.428-3.652-100.422s0-2.518-.231-3.891c0-1.028-.114-1.714-.114-2.056 0-3.891 0-7.893-.228-11.667-.228-4.919-.342-9.952 0-14.871-.228-.801 0-2.858.228-5.261.231-2.516.573-5.717.114-6.404v-.23l-.684-72.514c-1.484-2.518-.456-10.867.57-18.873.687-5.489 1.371-10.636.915-12.354 1.94-19.673-2.399-40.261-12.445-58.218-1.142-.8-1.712-2.631-2.282-4.46-.686-2.059-1.37-4.119-2.627-4.805v-.114l-47.037-79.834c-14.04-6.979-10.157-39.92-8.561-47.81l10.048-32.714c8.105-23.103-8.106-46.551-22.265-67.253-4.109-5.947-7.989-11.553-11.3-17.158-4.111-6.976-4.909-16.128-2.398-29.053v-.228C263.084 36.03 253.038.915 252.924.573l.684-.228s10.274 35.799-5.709 51.24c-2.397 12.581-1.713 21.733 2.284 28.48 3.311 5.49 7.077 11.095 11.188 17.042 14.385 20.816 30.596 44.378 22.377 67.826l-10.046 32.713c-1.712 7.662-5.481 40.376 8.219 47.01v.114l47.035 79.834c1.485.8 2.171 2.974 2.855 5.147.57 1.717 1.142 3.546 2.168 4.232 10.048 18.187 14.613 39.003 12.559 58.677.456 1.829-.114 6.862-.912 12.581-.915 7.662-2.057 16.242-.573 18.415v.228l.687 72.63c.456.915.228 3.319 0 6.748-.228 2.173-.459 4.461-.228 5.033-.345 5.033-.117 10.066 0 14.985.114 3.774.342 7.776.228 11.665 0 .23 0 1.144.114 1.945.228 2.059.342 3.432.228 4.002l3.652 100.311h-.684l.228.228v-.003Z" opacity=".74"/>
        <path fill="url(#s)" d="m349.275 641.544-5.251-101.57s-.114-2.515-.228-3.888c0-1.029-.23-1.829-.23-2.174 0-3.546 0-7.206-.228-10.749-.228-5.264-.342-10.753.114-16.128-.228-.686 0-2.518.344-5.377.342-2.63.798-5.834.342-6.52v-.228l1.484-73.545c-1.37-2.401-.114-10.75 1.026-18.987.801-5.717 1.599-10.981 1.143-12.582v-.114c2.398-19.787-2.397-40.489-13.471-58.445-1.142-.803-1.829-2.518-2.626-4.461-.801-2.059-1.599-4.119-2.969-4.805l-52.744-78.806c-15.299-7.548-11.986-40.262-10.274-48.04l9.929-33.17c8.108-23.561-8.561-47.351-23.174-68.398-3.652-5.147-7.077-10.063-10.046-14.982-4.339-6.864-5.592-15.669-4.225-28.367v-.228c14.73-14.184.801-49.183.573-49.524l.57-.228s14.159 35.684-.684 50.21c-1.371 12.468-.114 21.045 4.108 27.795 2.969 4.802 6.394 9.722 10.049 14.869 14.726 21.157 31.51 45.178 23.288 68.967l-9.932 33.056c-2.168 10.182-3.997 40.492 10.046 47.24l52.744 78.806c1.598.8 2.399 2.973 3.31 5.033.687 1.828 1.371 3.429 2.399 4.116 11.188 18.186 16.097 39.119 13.699 59.02.458 1.829-.342 6.862-1.14 12.81-1.029 7.32-2.399 16.586-1.143 18.528v.231l-1.484 73.545c.456.914.228 3.315-.228 6.862-.228 2.173-.57 4.574-.342 5.147v.114c-.458 5.261-.344 10.752-.114 16.127.114 3.546.228 7.206.228 10.753 0 .228 0 1.142.228 2.056.228 2.06.342 3.546.228 4.005l5.251 101.453h-.684l.114.573Z" opacity=".73"/>
        <path fill="url(#t)" d="m349.281 641.544-6.851-102.598s-.114-2.632-.342-4.002c-.114-1.145-.228-1.832-.228-2.06 0-3.318 0-6.748-.228-10.066-.228-5.603-.342-11.436.228-17.156-.228-.686 0-2.517.456-5.491.341-2.515.914-5.948.458-6.634v-.228l3.653-74.573c-1.257-2.29.228-10.753 1.598-18.987 1.026-5.834 1.94-11.439 1.484-12.926v-.114c2.855-20.016-2.399-40.834-14.613-58.79-1.256-.801-2.056-2.516-2.854-4.347-.915-1.943-1.826-4.002-3.311-4.803h-.114l-58.453-77.891c-15.527-7.665-14.271-37.974-11.986-48.152l9.818-33.514c8.105-24.02-9.134-48.382-24.317-69.77-3.083-4.347-6.054-8.466-8.678-12.468-5.707-8.693-6.165-19.329-5.935-27.68v-.228C242.651 35.912 224.839.914 224.613.567l.57-.344c.801 1.487 18.152 35.687 4.339 49.182-.228 8.238.228 18.643 5.821 27.108 2.627 4.002 5.595 8.121 8.678 12.468 15.299 21.505 32.65 45.981 24.43 70.34l-9.817 33.519c-2.169 10.066-3.539 40.034 11.758 47.468h.114l58.453 77.892c1.712.914 2.627 2.973 3.653 5.033.8 1.714 1.598 3.429 2.626 4.116 12.331 18.072 17.582 39.119 14.727 59.248.456 1.715-.456 6.976-1.484 13.04-1.257 7.434-2.855 16.812-1.599 18.643v.228l-3.652 74.576c.456.914 0 3.315-.456 6.861-.344 2.174-.686 4.689-.458 5.261v.114c-.684 5.606-.456 11.439-.228 17.159 0 3.315.228 6.748.114 10.063 0 .231 0 1.145.228 2.06.227 2.059.458 3.66.344 4.118l6.849 102.482h-.572l.23.342Z" opacity=".71"/>
        <path fill="url(#u)" d="m349.277 641.544-8.45-103.741-.342-4.118c-.114-1.145-.228-1.832-.228-2.06 0-3.087 0-6.289-.114-9.379-.228-5.948-.456-12.123.456-18.07-.228-.687.114-2.632.686-5.492.456-2.515 1.026-6.061.684-6.634v-.228l5.937-75.604c-1.142-2.059.456-10.75 2.055-19.215 1.142-6.062 2.168-11.667 1.826-13.04v-.114c3.883-24.134-1.94-46.209-15.641-59.132-1.026-.917-1.826-2.404-2.624-3.891-1.143-2.173-2.399-4.344-4.225-5.147l-64.047-76.86c-16.783-8.235-15.983-38.317-13.814-48.38l9.703-33.972c8.106-24.707-9.929-49.528-25.8-71.486-2.397-3.432-4.795-6.52-6.966-9.721-5.821-8.466-7.189-18.874-7.761-26.994v-.228C233.173 35.91 211.367.909 211.25.568l.572-.345c.912 1.487 22.146 35.573 9.474 48.151.572 8.01 1.943 18.304 7.649 26.538 2.171 3.202 4.567 6.406 6.966 9.722 15.983 22.075 34.134 47.012 25.801 72.058l-9.704 33.856c-2.171 9.952-2.969 39.691 13.584 47.696l64.047 76.863c1.94 1.028 3.196 3.201 4.453 5.375.8 1.487 1.598 2.859 2.512 3.66 13.813 13.04 19.75 35.342 15.869 59.591.342 1.6-.686 6.975-1.828 13.267-1.368 7.663-3.197 17.156-2.055 18.874v.227l-5.937 75.605c.345.8 0 3.201-.684 6.976-.342 2.287-.8 4.805-.684 5.261v.116c-.8 5.947-.572 12.123-.458 18.07 0 3.088.228 6.178.228 9.38 0 .228 0 1.028.23 1.945.228 2.173.456 3.774.342 4.23l8.448 103.627h-.57l-.228.23v.003Z" opacity=".69"/>
        <path fill="url(#v)" d="m349.28 641.541-10.048-104.769s-.228-2.746-.456-4.118c-.114-1.257-.228-1.943-.228-2.174 0-2.974 0-5.947-.228-8.807-.228-6.289-.456-12.695.57-18.985-.114-.686.228-2.631.8-5.605.456-2.401 1.254-6.178.912-6.634v-.228l8.106-76.518c-.912-1.832.458-9.152 2.512-19.332 1.257-6.176 2.51-12.009 2.169-13.268v-.114c4.225-23.79-1.941-45.981-16.667-59.477-1.029-.914-1.941-2.287-2.855-3.774-1.37-2.059-2.741-4.232-4.681-5.147l-69.753-75.832c-16.667-8.235-18.382-35.687-15.527-48.61l9.59-34.314c8.219-25.621-10.847-51.126-27.63-73.66-1.712-2.173-3.311-4.46-4.909-6.636-5.935-8.118-8.219-17.84-9.59-26.305v-.228C222.9 35.912 197.213 1.023 196.982.683l.456-.344c1.029 1.487 26.032 35.573 14.502 47.012 1.367 8.349 3.538 17.842 9.362 25.846a244.51 244.51 0 0 0 4.908 6.52c16.895 22.648 35.961 48.269 27.742 74.118l-9.59 34.314c-2.741 12.809-1.14 39.917 15.299 47.924l69.753 75.832c2.057 1.028 3.424 3.201 4.795 5.375.914 1.373 1.826 2.746 2.74 3.66 14.841 13.498 21.234 35.915 16.898 59.935.342 1.487-.8 7.092-2.171 13.496-1.598 7.779-3.652 17.386-2.624 18.987v.228l-8.108 76.519c.344.803 0 3.204-.912 6.978-.456 2.173-.914 4.919-.8 5.375v.114c-1.026 6.292-.798 12.698-.57 18.987 0 2.86.228 5.834.228 8.807 0 .228.114 1.145.228 2.06.344 2.173.458 3.774.458 4.232l10.046 104.655h-.57l.228.228Z" opacity=".68"/>
        <path fill="url(#w)" d="m349.389 641.545-11.644-105.914s-.342-2.746-.456-4.119c-.23-1.259-.344-1.945-.344-2.173 0-2.746 0-5.489-.228-8.121-.228-6.519-.456-13.381.686-19.901-.114-.687.228-2.515.912-5.606.572-2.515 1.37-6.289 1.028-6.748v-.227l10.388-77.55c-.798-1.715.687-9.149 3.083-19.557 1.37-6.062 2.74-12.353 2.399-13.382v-.116c4.68-23.562-1.941-45.865-17.81-59.705-1.142-.914-2.057-2.287-3.082-3.66-1.485-2.06-2.969-4.233-5.023-5.147l-75.349-74.804c-17.926-8.807-20.094-36.143-17.353-48.836l9.473-34.772c8.334-26.652-11.986-53.071-29.909-76.291l-2.285-2.86c-6.049-7.776-9.017-16.928-11.302-25.62l.114-.343c10.39-10.066-19.18-44.95-19.408-45.297l.456-.342c1.257 1.487 30.026 35.457 19.524 45.979 2.283 8.579 5.251 17.502 11.189 25.162l2.282 2.862c18.037 23.332 38.476 49.867 30.026 76.747l-9.476 34.656c-2.741 12.581-.57 39.575 17.123 48.152l75.351 74.804c2.168 1.031 3.766 3.318 5.25 5.375 1.029 1.373 1.941 2.632 2.969 3.546 15.983 13.954 22.718 36.487 18.037 60.277.228 1.373-1.025 7.092-2.51 13.612-1.826 7.891-3.997 17.729-3.082 19.215v.228l-10.391 77.55c.228.686-.114 2.86-1.026 7.09-.458 2.287-1.028 5.033-.914 5.377v.114c-1.142 6.52-.912 13.268-.684 19.788 0 2.629.228 5.489.228 8.121 0 .228.114 1.142.342 2.059.342 2.629.57 3.888.456 4.23l11.647 105.8h-.573l-.114.344v.003Z" opacity=".66"/>
        <path fill="url(#x)" d="M349.392 641.544 336.15 534.599s-.342-2.746-.572-4.233c-.228-1.256-.342-1.942-.342-2.173 0-2.515 0-5.03-.228-7.548-.228-6.862-.456-13.954.914-20.816-.114-.573.228-2.288 1.026-5.834.572-2.515 1.484-6.292 1.256-6.748v-.23l12.559-78.575c-.684-1.604.914-8.808 3.538-19.674 1.485-6.178 3.083-12.581 2.741-13.612v-.114c5.023-22.989-2.285-45.979-18.838-60.049-1.142-.915-2.168-2.171-3.196-3.544-1.599-2.059-3.311-4.119-5.479-5.261l-81.058-73.775c-19.065-9.263-21.806-36.602-19.065-49.067l9.361-35.114c8.562-28.023-14.843-56.962-31.966-78.12-6.279-7.778-9.932-16.586-13.128-24.937v-.342c1.026-1.028 1.596-2.401 1.596-4.116C195.499 28.02 169.47.911 169.131.683l.456-.455c1.023 1.14 26.48 27.56 26.252 40.487 0 1.828-.57 3.315-1.713 4.458 3.197 8.237 6.738 16.93 13.015 24.592 17.123 21.275 40.644 50.325 32.08 78.692l-9.36 35.117c-2.738 12.354 0 39.345 18.838 48.497l81.058 73.77c2.282 1.145 3.994 3.318 5.707 5.375 1.028 1.373 2.056 2.632 3.196 3.546 16.784 14.182 24.089 37.402 19.066 60.622.228 1.256-.912 6.175-2.738 13.837-1.943 8.007-4.339 18.073-3.541 19.332v.228l-12.556 78.578c.228.686-.231 2.86-1.257 7.092-.572 2.288-1.142 5.147-1.028 5.603v.114c-1.37 6.865-1.142 13.84-.912 20.702 0 2.518.228 5.033.228 7.551 0 .114.114 1.142.342 2.059.456 2.63.57 3.888.57 4.344l13.245 106.831h-.573l-.114-.114v.003Z" opacity=".65"/>
        <path fill="url(#y)" d="m349.394 641.544-14.843-108.087s-.342-2.86-.684-4.347c-.228-1.258-.342-1.945-.342-2.173 0-2.404 0-4.805-.228-7.206-.231-7.093-.572-14.413 1.026-21.503 0-.572.342-2.173 1.256-5.833.684-2.746 1.598-6.406 1.371-6.864v-.228l14.84-79.607c-.684-1.487 1.143-8.921 3.997-19.787 1.599-6.406 3.311-12.926 3.083-13.84v-.114c5.365-22.762-2.285-45.982-19.98-60.392-1.143-.914-2.282-2.173-3.425-3.432-1.826-2.059-3.652-4.116-5.937-5.261l-86.765-72.744c-19.407-9.494-23.974-35.001-20.892-49.297l9.362-35.571c7.992-27.221-12.102-53.987-31.624-77.09-6.165-7.32-10.39-15.214-14.843-24.249v-.344c.8-.8 1.142-1.83 1.142-3.088 0-11.55-30.368-39.803-30.596-40.031l.345-.456c1.254 1.14 30.71 28.706 30.824 40.487 0 1.373-.345 2.518-1.143 3.432 4.453 8.807 8.676 16.698 14.727 23.904 19.636 23.106 39.844 50.214 31.738 77.549l-9.362 35.568c-3.082 14.069 1.371 39.231 20.55 48.611l86.765 72.744c2.399 1.145 4.225 3.318 6.051 5.378 1.143 1.256 2.168 2.515 3.311 3.429 17.809 14.527 25.573 37.861 20.208 60.85.228 1.142-1.029 6.175-3.083 14.068-2.054 7.779-4.795 18.415-3.997 19.446v.228L337.405 485.3c.228.687-.341 2.86-1.37 7.206-.57 2.288-1.256 5.147-1.14 5.606v.114c-1.598 7.09-1.37 14.068-1.028 21.388 0 2.402.228 4.803.228 7.207 0 .114.114 1.142.342 2.056.458 2.746.686 4.005.686 4.461l14.841 107.973h-.57v.233Z" opacity=".63"/>
        <path fill="url(#z)" d="M349.389 641.544 332.95 532.426s-.458-2.86-.686-4.347c-.228-1.256-.342-1.943-.342-2.173 0-2.288 0-4.461-.228-6.634-.342-7.32-.57-14.869 1.256-22.303 0-.572.342-2.173 1.371-5.833.683-2.746 1.712-6.52 1.598-6.976v-.231l17.009-80.52c-.456-1.373 1.484-8.922 4.567-20.016 1.826-6.52 3.652-13.27 3.424-14.071v-.114c5.71-22.647-2.282-45.864-21.006-60.733-1.256-.917-2.282-2.059-3.538-3.318-1.94-2.059-3.997-4.116-6.393-5.261l-92.474-71.716c-20.55-10.063-25.687-35.457-22.604-49.525l9.245-35.915c7.766-27.222-12.67-54.9-31.394-76.06-6.165-6.864-10.846-14.413-15.527-21.619l-1.254-2.057h.114c.57-.686.798-1.486.798-2.403-.342-10.408-34.935-39.576-35.277-39.918l.342-.455c1.371 1.256 35.163 29.623 35.505 40.259 0 1.03-.228 1.831-.798 2.517l1.029 1.715c4.566 7.206 9.361 14.755 15.41 21.617 18.838 21.16 39.388 49.068 31.51 76.521l-9.245 35.912c-3.085 13.84 1.938 39.003 22.374 48.841l92.474 71.714c2.512 1.259 4.567 3.318 6.507 5.375 1.142 1.259 2.285 2.403 3.424 3.318 18.838 14.982 26.944 38.43 21.237 61.191.114 1.031-1.257 6.178-3.427 14.185-2.169 7.89-5.137 18.643-4.565 19.671v.231l-17.011 80.52c.114.573-.342 2.518-1.598 7.321-.57 2.401-1.371 5.261-1.371 5.605v.114c-1.826 7.32-1.484 14.527-1.256 22.189 0 2.173.228 4.461.228 6.748 0 .114.23 1.145.344 2.059.57 3.088.684 4.119.684 4.461l16.439 109.001h-.57l.114.231Z" opacity=".61"/>
        <path fill="url(#A)" d="m349.392 641.544-18.04-110.147s-.456-2.632-.684-4.232c-.342-1.601-.456-2.288-.456-2.402 0-2.059-.117-4.232-.231-6.178-.342-7.548-.684-15.441 1.371-22.989 0-.458.342-1.945 1.484-5.947.8-2.746 1.826-6.634 1.712-7.093v-.114l19.294-81.551c-.342-1.373 1.712-8.921 5.023-20.13 1.829-6.292 3.883-13.495 3.769-14.182v-.116c6.051-22.531-2.399-45.865-22.148-61.078-1.257-.914-2.399-2.057-3.539-3.202-2.171-2.059-4.339-4.118-6.966-5.375l-98.066-70.571c-21.921-10.638-27.513-35.456-24.317-49.755l9.134-36.374c6.049-21.844-3.883-45.634-31.054-75.029-5.365-5.72-10.046-11.78-14.499-17.73-1.256-1.715-2.627-3.43-3.88-5.147v-.343c.456-.341.57-.914.57-1.6-.456-9.035-39.616-39.236-40.072-39.576l.342-.455c1.598 1.256 39.73 30.651 40.185 39.917 0 .684-.114 1.373-.569 1.828 1.256 1.601 2.512 3.319 3.766 4.92 4.567 5.947 9.248 12.008 14.499 17.728 27.402 29.509 37.333 53.529 31.282 75.49l-9.134 36.374c-3.082 14.065 2.399 38.541 24.089 49.063l98.069 70.574c2.624 1.259 4.909 3.43 7.077 5.489 1.256 1.145 2.399 2.287 3.539 3.088 19.866 15.327 28.427 38.888 22.262 61.536 0 1.031-1.37 6.178-3.767 14.298-2.284 8.007-5.481 18.985-5.023 19.902v.228l-19.293 81.551c0 .573-.459 2.402-1.829 7.321-.684 2.401-1.482 5.375-1.482 5.719v.114c-1.943 7.548-1.715 14.983-1.37 22.875 0 2.06.114 4.119.228 6.29 0 .116.228 1.259.456 2.29.57 2.973.686 4.002.686 4.23l18.038 110.146h-.573l.117.345Z" opacity=".6"/>
        <path fill="url(#B)" d="m349.394 641.545-19.636-111.292s-.459-2.629-.801-4.23c-.341-1.831-.455-2.289-.455-2.403 0-1.943-.114-4.003-.228-5.834-.345-8.121-.687-15.897 1.484-23.676 0-.456.342-1.714 1.598-6.061.798-2.86 2.054-6.634 1.94-7.092v-.114l21.462-82.58c-.228-1.145 1.485-7.093 5.482-20.246 1.94-6.404 4.222-13.724 4.108-14.41 6.393-22.534-2.396-45.982-23.174-61.537a81.621 81.621 0 0 1-3.541-2.973c-2.396-2.06-4.795-4.119-7.647-5.492l-103.776-69.54c-21.692-10.639-29.684-33.628-26.145-49.869l9.02-36.716c5.937-21.961-4.453-46.779-30.827-74-3.994-4.12-7.877-8.466-11.644-12.584-2.852-3.088-5.707-6.404-8.675-9.494l-.228-.228.228-.228s.342-.572.342-.914c-.57-7.665-44.411-38.775-44.867-39.12l.342-.455c1.829 1.256 44.411 31.451 45.097 39.458 0 .459 0 .917-.344 1.145a626.324 626.324 0 0 1 8.45 9.38c3.766 4.116 7.533 8.462 11.644 12.581 26.487 27.336 36.875 52.384 30.937 74.459l-9.017 36.716c-3.541 16.127 4.336 38.889 25.912 49.297l103.779 69.542c2.855 1.373 5.365 3.544 7.649 5.603 1.254 1.031 2.397 2.06 3.539 2.974 20.892 15.671 29.912 39.347 23.402 61.878 0 .917-1.254 5.263-4.108 14.641-2.399 8.006-5.824 19.101-5.482 20.018v.228l-21.462 82.58s-.342 2.059-1.94 7.32c-.8 2.518-1.598 5.491-1.598 5.833v.114c-2.171 7.779-1.826 15.441-1.484 23.562 0 1.945.114 3.891.227 5.948 0 .116.228 1.258.456 2.289.573 3.202.801 4.002.801 4.344l19.635 111.178h-.455Z" opacity=".58"/>
        <path fill="url(#C)" d="m349.388 641.541-21.234-112.317s-.572-2.974-.914-4.577c-.342-1.601-.456-2.057-.456-2.174 0-1.828-.114-3.774-.228-5.489-.342-8.348-.687-16.241 1.712-24.362 0-.458.342-1.601 1.826-6.061.915-2.86 2.169-6.634 2.169-7.206v-.114l23.746-83.611c-.114-1.029 1.485-6.634 5.938-20.36 2.168-6.862 4.452-13.955 4.452-14.641v-.114c6.85-22.531-2.17-45.637-24.202-61.65a68.195 68.195 0 0 1-3.427-2.629c-2.624-2.06-5.251-4.233-8.448-5.72l-109.368-68.512c-23.063-11.208-31.511-33.741-27.858-50.097l8.906-37.174c7.307-28.136-12.559-55.244-30.598-72.975l-6.049-6.059c-5.137-5.146-10.39-10.41-15.983-15.44l-.228-.228.228-.231s.228-.344.114-.572c-.57-6.29-49.206-38.203-49.662-38.43l.228-.457c2.054 1.37 49.32 32.367 49.89 38.886 0 .229 0 .573-.114.687 5.481 4.919 10.732 10.18 15.755 15.327l6.051 6.061c18.037 17.843 38.017 44.951 30.71 73.431l-8.904 37.174c-3.541 16.242 4.793 38.431 27.628 49.525l109.368 68.512c3.083 1.487 5.824 3.66 8.45 5.833 1.14.915 2.283 1.832 3.425 2.632 10.958 8.007 19.066 18.07 23.288 29.051 4.111 10.752 4.567 22.305 1.256 33.169 0 .8-1.37 5.147-4.453 14.755-2.624 8.12-6.165 19.217-5.937 20.132v.114l-23.744 83.611s-.458 1.942-2.171 7.434c-.798 2.629-1.712 5.603-1.712 5.947-2.396 8.007-2.054 15.897-1.712 24.248 0 1.829.114 3.661.228 5.489 0 0 .228 1.145.458 2.06.684 3.546.912 4.346.912 4.574l21.234 112.32h-.456l-.114.228Z" opacity=".56"/>
        <path fill="url(#D)" d="m349.391 641.544-22.833-113.465s-.572-2.743-.914-4.346c-.456-2.057-.456-2.402-.456-2.402 0-1.714-.114-3.432-.228-5.147-.458-8.579-.8-16.814 1.826-25.048 0-.342.342-1.487 1.941-6.176 1.028-2.973 2.168-6.75 2.284-7.32v-.114l25.915-84.642c0-1.028 1.484-5.603 6.393-20.471 2.283-6.979 4.795-14.299 4.681-14.871 7.191-22.417-2.171-45.637-25.345-61.992-1.028-.687-1.94-1.487-3.082-2.174-2.969-2.173-5.938-4.46-9.362-6.175l-115.078-67.484c-25.229-12.353-33.106-34.77-29.682-50.325l8.79-37.518c7.193-28.937-12.445-55.128-30.254-71.942-8.448-8.006-15.755-14.526-23.747-20.818l-.228-.228.228-.228v-.228c-.456-3.777-35.844-26.31-54.57-37.749l.228-.456c2.17 1.37 54.342 33.17 54.798 38.086v.344c7.992 6.176 15.299 12.81 23.633 20.702 11.874 11.209 20.664 22.873 26.031 34.429 5.935 13.037 7.422 25.735 4.451 37.857l-8.79 37.516c-3.31 15.441 4.453 37.63 29.454 49.869l115.078 67.484c3.424 1.715 6.507 4.002 9.476 6.175 1.028.801 2.054 1.487 3.082 2.174 23.291 16.472 32.767 39.917 25.459 62.564 0 .687-1.256 4.347-4.795 14.985-2.854 8.691-6.507 19.557-6.393 20.358v.114l-25.915 84.642s-.456 1.714-2.285 7.434c-.911 2.629-1.826 5.603-1.94 5.947v.114c-2.624 8.235-2.282 16.356-1.826 24.935 0 1.715.114 3.429.228 5.147 0 0 .228 1.259.456 2.287.8 3.546.914 4.233.914 4.461l22.832 113.348h-.455v.347Z" opacity=".55"/>
        <path fill="url(#E)" d="m349.395 641.542-24.43-114.491s-.456-2.059-.798-3.546c-.572-2.401-.686-3.087-.686-3.204-2.283-10.177-1.599-20.471 1.712-30.537 0-.342.458-1.373 2.057-6.176 1.026-3.09 2.396-6.75 2.51-7.32v-.117l28.199-85.667c0-.915 1.371-4.689 6.85-20.588 2.512-7.207 5.023-14.527 5.136-15.099 7.65-22.303-2.282-45.637-26.37-62.334-.573-.459-1.257-.801-1.827-1.259-3.541-2.402-7.079-5.033-11.188-6.979l-120.671-66.452c-22.948-11.209-35.621-31.455-31.396-50.556l8.676-37.972c5.592-23.219-5.137-48.382-30.026-70.801-8.676-7.89-17.012-14.413-25.573-20.13h-.228l.228-.344c0-2.171-35.619-23.218-59.593-36.944l.227-.456C78.256 4 131.57 34.538 132.026 37.856a253.791 253.791 0 0 1 25.459 20.132c25.003 22.645 35.735 47.924 30.142 71.371l-8.68 37.972c-4.111 18.873 8.447 39.003 31.165 50.1l120.674 66.452c4.108 2.06 7.763 4.575 11.302 6.976.57.459 1.256.917 1.826 1.259 24.317 16.814 34.248 40.376 26.601 62.909 0 .687-1.142 3.774-5.139 15.211-2.966 8.693-6.735 19.445-6.849 20.474v.114l-28.2 85.67s-.456 1.715-2.51 7.548c-.914 2.632-1.94 5.606-2.054 6.062-3.311 9.952-3.997 20.132-1.712 30.312 0 0 .341 1.714.683 3.087.57 2.746.798 3.432.798 3.66l24.319 114.493h-.458l.002-.116Z" opacity=".53"/>
        <path fill="url(#F)" d="m349.394 641.542-25.917-115.635s-.57-2.746-1.026-4.461l-.573-2.401c-2.282-10.294-1.712-20.588 1.943-30.768 0 0 .456-1.487 2.168-6.292a327.705 327.705 0 0 0 2.627-7.434v-.114l30.368-86.585c.114-.687 1.14-3.774 7.419-20.93 2.513-7.092 5.251-14.413 5.367-15.099 7.875-22.189-2.398-45.637-27.515-62.679-4.109-2.859-8.676-5.719-13.699-8.234l-126.38-65.424c-12.216-5.948-21.692-13.955-27.513-22.99-5.709-8.921-7.65-18.531-5.595-27.794l8.561-38.316c5.367-23.562-5.137-48.383-29.795-69.771a172.055 172.055 0 0 0-27.4-19.446h-.228v-.228c-1.945-2.059-39.387-22.533-64.507-35.915l.228-.456c14.962 8.002 63.368 33.965 64.735 36.257 9.702 5.606 18.952 12.126 27.286 19.443 24.772 21.505 35.276 46.44 29.911 70.23l-8.561 38.316c-4.111 19.101 8.445 38.316 32.992 50.325l126.38 65.424c5.023 2.404 9.59 5.378 13.699 8.237 25.344 17.156 35.621 40.718 27.629 63.251 0 0-.914 2.744-5.367 15.211-3.197 8.807-7.077 19.787-7.305 20.818v.114l-30.368 86.585s-.573 1.829-2.627 7.548c-1.028 2.86-2.054 5.72-2.168 6.176-3.539 10.066-4.225 20.36-1.94 30.54 0 0 .228 1.259.57 2.401.798 3.546 1.028 4.347 1.028 4.575l25.915 115.521h-.459.117Z" opacity=".52"/>
        <path fill="url(#G)" d="m349.393 641.544-29.225-123.645c-2.513-10.408-1.713-20.816 2.054-31.11l51.374-138.055c9.817-26.191-6.622-53.527-42.813-71.141L198.81 213.197c-26.031-12.695-39.159-31.796-34.934-51.014l8.447-38.772c7.194-32.71-14.727-65.424-58.565-87.615L44 .686l.23-.456 69.642 35.107c44.066 22.189 65.984 55.13 58.907 88.072l-8.448 38.774c-4.108 18.985 8.79 37.858 34.707 50.439l131.973 64.396c36.419 17.729 52.858 45.178 43.041 71.714l-51.374 138.054c-3.767 10.181-4.453 20.588-2.054 30.883l29.225 123.642h-.456v.233Z" opacity=".5"/>
        <path fill="url(#H)" d="M349.737 641.542h-.344l29.57-82.007 68.955-101.454c17.581-25.851 14.613-54.902-8.22-79.492l-43.954-47.354c-41.67-44.95-71.01-93.102-87.107-142.86-8.447-25.963-10.618-52.498-6.393-78.919a180.263 180.263 0 0 1 6.849-28.137c9.362-28.136 25.801-55.358 49.092-80.865l.228.228c-23.174 25.507-39.73 52.615-48.978 80.751a180.537 180.537 0 0 0-6.849 28.139c-4.108 26.305-1.94 52.726 6.393 78.692 16.097 49.753 45.439 97.793 87.109 142.743l43.952 47.352c22.947 24.706 25.915 53.871 8.22 79.836l-68.841 101.34-29.568 81.893-.114.114Z"/>
        <path fill="url(#I)" d="M349.742 641.542h-.342l28.883-78.464 66.557-97.106c5.253-6.404 8.678-13.724 10.504-22.417 1.37-6.862.456-17.273 0-21.389-.57-5.261-1.598-12.011-3.425-18.3-.342-1.259-.8-2.632-1.142-4.119-1.484-5.717-3.425-12.695-6.963-17.27-.687-.914-1.257-2.059-1.827-3.204-.686-1.37-1.37-2.857-2.284-3.888l-28.884-34.884s-1.712-2.06-2.74-3.318c-1.827-2.174-2.169-2.516-2.169-2.63-.228-.344-3.082-3.66-4.795-5.605-1.484-1.601-1.826-2.059-1.826-2.173-1.028-1.601-2.285-2.974-3.652-4.233a32.281 32.281 0 0 1-1.943-2.059l-2.738-3.088c-4.681-5.261-9.476-10.636-14.043-16.011-34.707-41.52-58.682-81.207-69.528-114.721-7.077-21.847-14.726-50.441-10.501-76.749.227-1.487.341-2.974.569-4.458.228-1.948.456-3.891.801-5.722v-.456c1.14-5.491 2.168-11.21 3.652-16.928 1.599-6.064 3.653-12.125 5.938-18.073 3.31-8.234 7.191-16.241 11.758-23.79 8.675-14.184 19.521-28.825 29.684-40.033l.228.228c-10.277 11.211-21.123 25.852-29.684 40.034-4.567 7.434-8.448 15.44-11.758 23.675-2.285 5.948-4.339 12.012-5.938 17.96-1.484 5.602-2.626 11.322-3.652 16.927v.456c-.459 1.831-.687 3.774-.801 5.719a52.237 52.237 0 0 1-.57 4.461c-4.111 26.308 3.425 54.788 10.502 76.633 10.846 33.511 34.821 73.089 69.528 114.607 4.567 5.377 9.362 10.752 14.043 16.013l2.738 3.088c.572.686 1.256 1.373 1.943 2.059 1.37 1.373 2.738 2.746 3.652 4.347l1.826 2.059c4.225 4.802 4.795 5.489 4.909 5.717 0 .23 1.143 1.373 2.171 2.518 2.168 2.515 2.738 3.201 2.852 3.432l28.77 34.77c.914 1.028 1.712 2.515 2.398 3.888.57 1.145 1.143 2.287 1.827 3.202 3.538 4.577 5.478 11.667 7.077 17.386.458 1.487.8 2.86 1.142 4.119 1.94 6.403 2.855 13.153 3.425 18.414.458 4.233 1.484 14.641 0 21.503-1.827 8.579-5.365 16.241-10.502 22.533l-66.559 97.107-28.769 78.347-.342-.114Z"/>
        <path fill="url(#J)" d="M349.74 641.542h-.342l28.085-74.918 64.161-92.874c6.279-6.634 10.045-14.754 11.644-24.934.8-5.375-.798-15.897-1.712-22.189l-.228-1.487c-.228-1.829-.57-3.66-.801-5.606-.684-5.03-1.368-10.294-2.51-15.21-.456-1.831-.8-4.347-1.028-6.979-.684-5.947-1.599-13.495-4.567-17.155-.684-.915-1.026-2.402-1.485-3.888-.456-1.718-.912-3.319-1.712-4.347l-26.029-35.687s-1.484-2.173-2.51-3.43c-1.829-2.404-2.057-2.632-2.057-2.745 0-.345-3.196-4.005-4.795-5.834a63.502 63.502 0 0 0-1.712-2.059c-1.026-1.715-2.396-3.088-3.767-4.461a30.23 30.23 0 0 1-1.826-1.945l-7.193-7.89a483.728 483.728 0 0 1-10.046-11.095c-25.915-29.967-61.65-74.117-73.978-111.977-.915-2.86-1.943-5.834-2.855-8.808-7.077-21.158-14.955-45.064-11.758-65.882.228-1.601.228-3.316.342-4.917 0-1.601 0-3.318.342-4.919.342-1.943.57-3.888.798-5.833.456-3.66.914-7.435 1.715-11.095a147.34 147.34 0 0 1 4.795-17.959c2.966-8.576 6.621-16.697 11.071-24.131 6.738-11.095 18.496-28.48 29.684-40.718l.228.228c-11.188 12.24-22.946 29.623-29.681 40.718a118.037 118.037 0 0 0-11.074 24.02 141.914 141.914 0 0 0-4.795 17.959c-.801 3.657-1.257 7.434-1.713 11.094-.228 1.943-.456 3.888-.8 5.834-.228 1.601-.228 3.315-.342 4.916 0 1.718 0 3.432-.342 5.033-3.311 20.702 4.681 44.606 11.758 65.655 1.028 3.085 1.94 5.945 2.969 8.805 12.216 37.746 47.949 81.896 73.864 111.861 3.196 3.776 6.621 7.434 10.046 11.094l7.193 7.893c.57.686 1.256 1.259 1.826 1.945 1.371 1.373 2.855 2.86 3.881 4.575 0 0 .8 1.028 1.598 1.945 4.225 5.033 4.909 5.834 4.795 6.175 0 .114 1.029 1.373 1.943 2.518 2.054 2.515 2.51 3.202 2.624 3.544l25.915 35.573c.914.914 1.37 2.743 1.829 4.461.342 1.486.798 2.973 1.368 3.774 2.968 3.774 3.883 11.322 4.681 17.386.344 2.629.686 5.147 1.028 6.976 1.142 4.919 1.826 10.18 2.513 15.213.228 1.829.456 3.66.798 5.603l.227 1.487c.915 6.292 2.513 16.928 1.713 22.305-1.599 10.294-5.365 18.415-11.644 25.163l-64.161 92.76-28.085 74.803.114-.344Z"/>
        <path fill="url(#K)" d="M349.846 641.542h-.341l27.285-71.486 61.878-88.527c7.421-7.092 11.416-15.786 12.786-27.452.456-4.345-1.484-14.525-2.854-21.389-.286-1.604-.59-3.205-.912-4.802-.345-1.718-.573-3.319-.915-5.033-1.142-6.292-2.168-12.126-2.282-18.073-.914-2.288-.914-6.518-.8-10.981 0-6.175 0-13.037-2.283-16.011-.686-.917-.8-2.631-1.028-4.46-.228-1.945-.342-3.891-1.142-4.805l-23.289-36.488s-1.37-2.173-2.284-3.429c-1.485-2.06-1.941-2.632-1.827-2.86 0-.459-3.196-4.347-4.68-6.175-.912-1.145-1.485-1.832-1.485-1.946-1.026-1.715-2.51-3.201-3.88-4.691-.57-.57-1.143-1.256-1.713-1.829-2.854-3.201-5.937-6.406-8.792-9.379-2.966-3.088-6.048-6.176-8.903-9.494l-2.285-2.515c-27.399-30.768-65.072-72.745-76.032-106.6-1.826-5.72-4.225-11.781-6.621-18.073-7.194-18.529-14.727-37.744-12.103-54.444.228-1.601.114-3.318 0-5.03 0-1.604-.228-3.205 0-4.577.228-2.516.456-5.033.57-7.435a84.94 84.94 0 0 1 .801-9.149c.911-6.406 2.054-12.24 3.652-17.959 2.627-9.035 6.051-16.927 10.504-24.476 7.536-12.581 20.092-30.882 29.682-41.404l.23.228c-9.59 10.522-22.148 28.826-29.684 41.404-4.453 7.435-7.877 15.441-10.504 24.362a123.288 123.288 0 0 0-3.652 17.845c-.456 3.088-.57 6.062-.798 9.035-.114 2.516-.228 5.033-.573 7.549-.114 1.372 0 2.973 0 4.574 0 1.718.228 3.546 0 5.147-2.624 16.586 4.795 35.801 11.989 54.332 2.51 6.404 4.795 12.351 6.621 18.187 10.96 33.739 48.519 75.83 75.918 106.484l2.285 2.515c2.855 3.204 5.937 6.406 8.903 9.494 2.969 3.087 5.938 6.178 8.792 9.379.57.687 1.143 1.259 1.713 1.829 1.37 1.49 2.854 2.976 3.88 4.805 0 .114.801.915 1.485 1.946 3.655 4.574 4.794 6.061 4.794 6.403 0 .23 1.029 1.487 1.827 2.632 1.829 2.401 2.398 3.315 2.398 3.66l23.175 36.371c.8.917 1.028 2.973 1.256 4.919.114 1.715.342 3.546.914 4.346 2.397 3.088 2.397 10.066 2.397 16.242 0 4.46 0 8.693.8 10.866 0 6.062 1.142 11.895 2.282 18.187.342 1.715.573 3.316.915 5.03.228 1.145.57 2.86.911 4.806 1.371 6.747 3.428 17.041 2.855 21.502-1.256 11.781-5.365 20.588-12.786 27.68l-61.878 88.414L349.732 642l.114-.458Z"/>
        <path fill="url(#L)" d="M349.852 641.542h-.345l26.487-67.939 59.594-84.184c10.162-8.921 15.071-19.557 13.814-29.965 1.029-3.66-1.826-14.185-3.883-21.733-.797-2.86-1.481-5.375-1.712-6.862-.228-1.031-.342-1.945-.57-2.859-1.484-7.779-2.968-15.213-2.396-22.648-.8-2.287-.344-7.206.114-12.581.684-6.862 1.368-14.641-.8-17.27-.684-.917-.57-2.859-.57-5.033 0-2.173 0-4.46-.687-5.261l-20.55-37.288s-1.254-2.287-2.054-3.546c-1.256-1.829-1.712-2.632-1.712-2.974 0-.572-2.969-4.346-4.339-6.291-.798-1.029-1.368-1.829-1.599-2.057-1.025-1.832-2.51-3.318-3.994-4.919-.57-.573-1.142-1.145-1.598-1.715-3.083-3.432-6.394-6.75-9.704-10.066a203.152 203.152 0 0 1-8.448-8.693 965.386 965.386 0 0 0-12.102-12.924c-25.915-27.566-61.42-65.198-70.554-93.449-2.168-6.861-5.709-14.296-9.362-22.188-7.763-16.7-15.755-33.968-13.47-48.38.228-1.49 0-3.204-.344-4.919-.228-1.487-.456-2.974-.342-4.347.228-2.746.114-5.491 0-8.12v-8.01c.456-6.406 1.256-12.24 2.626-17.842a84.965 84.965 0 0 1 9.932-24.823c6.507-10.75 20.322-31.794 29.684-42.088l.342.228c-9.362 10.294-23.177 31.224-29.684 41.976-4.45 7.435-7.763 15.786-9.932 24.707-1.368 5.603-2.168 11.436-2.626 17.842-.114 2.746 0 5.375 0 8.004v8.238c0 1.372.116 2.859.344 4.346.228 1.715.57 3.546.342 5.033-2.285 14.296 5.707 31.452 13.47 48.152 3.655 7.893 7.08 15.327 9.362 22.189 9.134 28.139 44.525 65.883 70.44 93.332 4.339 4.577 8.333 8.922 12.102 12.926 2.738 2.974 5.593 5.834 8.448 8.693a202.536 202.536 0 0 1 9.704 10.064c.569.572 1.028 1.145 1.598 1.717 1.484 1.601 2.969 3.202 3.997 5.033.114.228.798 1.029 1.482 2.057 2.968 3.891 4.567 5.95 4.453 6.52 0 .23.914 1.601 1.598 2.632 1.598 2.287 2.171 3.315 2.171 3.774l20.433 37.057c.801.801.801 3.09.687 5.492 0 2.059 0 4.116.456 4.802 2.168 2.86 1.484 10.294.8 17.614-.458 5.264-.914 10.183-.114 12.356-.458 7.549.912 14.866 2.396 22.645.228 1.028.342 1.945.57 2.974.231 1.373.915 3.888 1.712 6.862 2.057 7.664 4.912 18.072 3.883 21.847 1.257 10.522-3.766 21.274-13.928 30.195l-59.48 84.184-26.487 67.711.345-.228Z"/>
        <path fill="url(#M)" d="M349.854 641.541h-.345l25.687-64.393 57.197-79.951c11.53-9.493 16.898-21.274 14.957-32.483.912-3.318-2.854-15.213-5.253-23.106-1.14-3.546-1.94-6.405-2.282-7.776l-.342-1.717c-1.827-9.035-3.655-17.614-2.513-26.191-.798-2.173.114-7.893 1.142-13.954 1.257-7.551 2.625-16.242.684-18.759-.684-.801-.342-3.202-.114-5.603.228-2.404.573-5.033-.114-5.72L420.863 323.8s-1.142-2.401-1.826-3.66c-1.143-1.829-1.599-2.632-1.599-2.974 0-.572-2.854-4.575-4.225-6.52a31.968 31.968 0 0 1-1.484-2.059c-1.026-1.943-2.624-3.546-4.222-5.261-.459-.573-.915-1.029-1.485-1.601-3.196-3.546-6.621-6.862-10.276-10.408-2.738-2.632-5.593-5.378-8.333-8.235-5.137-5.377-11.531-11.781-18.266-18.414-27.057-26.994-60.849-60.622-68.727-85.212-2.285-7.206-6.852-15.441-11.647-24.134-8.561-15.555-17.35-31.569-15.299-44.264.231-1.259-.228-2.862-.684-4.347-.456-1.601-1.025-3.318-.683-4.805-.912-5.489-1.029-11.094-1.029-15.897 0-6.408.456-12.125 1.484-17.844 1.713-9.15 4.795-17.615 9.362-25.163 5.824-9.722 20.664-32.941 29.684-42.777l.342.228c-8.906 9.838-23.86 32.941-29.57 42.663-4.564 7.548-7.649 16.013-9.245 25.051-1.028 5.603-1.484 11.436-1.484 17.726 0 4.805.228 10.41 1.025 15.785-.342 1.373.228 3.091.684 4.689.459 1.603.915 3.09.687 4.46-1.94 12.698 6.737 28.598 15.299 44.036 4.795 8.693 9.362 16.928 11.644 24.134 7.878 24.476 41.556 58.107 68.727 84.984a1321.35 1321.35 0 0 1 18.265 18.415c2.741 2.86 5.596 5.603 8.336 8.235a221.66 221.66 0 0 1 10.388 10.408c.456.572.915 1.028 1.371 1.6 1.484 1.718 3.082 3.433 4.225 5.378.114.228.683 1.028 1.37 1.943 2.396 3.318 4.45 6.061 4.336 6.748 0 .23.801 1.717 1.485 2.745 1.37 2.174 2.054 3.318 1.94 3.888l17.581 37.861c.801.914.459 3.432.231 6.061-.231 2.287-.459 4.689 0 5.375 2.054 2.632.684 10.981-.687 18.987-1.028 6.062-1.94 11.781-1.142 13.84-1.14 8.58.572 17.042 2.513 26.08l.342 1.715c.342 1.373 1.256 4.346 2.284 7.776 2.625 8.351 6.163 19.788 5.251 23.22 1.941 11.322-3.538 23.334-15.071 32.827l-57.194 79.834-25.687 64.168v.456Z"/>
        <path fill="url(#N)" d="M349.852 641.541h-.458l25.003-60.847 54.912-75.604c12.901-10.066 18.724-22.762 16.097-35.001.801-3.088-3.652-15.897-6.621-24.476-1.484-4.119-2.624-7.434-2.855-8.807v-.801c-2.396-10.18-4.45-19.787-2.738-29.509-.686-2.173.57-8.237 2.169-15.327 1.826-8.351 3.997-17.842 2.168-20.132-.57-.8-.114-3.316.344-6.175.456-2.632 1.026-5.606.342-6.29l-14.841-38.888s-.914-2.518-1.598-3.775c-.914-1.603-1.37-2.517-1.37-2.976 0-.8-2.627-4.688-4.111-6.748-.684-.914-1.143-1.714-1.371-2.059-1.139-2.057-2.738-3.774-4.336-5.603-.458-.458-.8-.914-1.256-1.373-3.311-3.66-6.966-7.092-10.847-10.636-2.74-2.517-5.595-5.147-8.333-7.892-5.937-6.062-14.043-13.613-22.604-21.619-27.516-25.507-61.65-57.418-68.727-79.262-2.285-7.207-7.878-15.9-13.701-25.051-9.362-14.641-19.066-29.737-17.24-41.288.228-1.145-.456-2.746-1.026-4.118-.683-1.601-1.37-3.319-1.028-4.575-1.256-5.264-1.826-10.752-2.282-15.558-.456-6.403-.345-12.236.342-17.728 1.256-9.263 4.222-17.842 8.789-25.62C278.84 33.507 294.254 9.26 302.359.338l.342.344c-8.105 8.921-23.405 33.056-29.567 43.35a64.55 64.55 0 0 0-8.678 25.39c-.684 5.492-.798 11.323-.342 17.731.342 4.686.912 10.178 2.282 15.438-.228 1.259.344 2.863 1.028 4.347.57 1.487 1.257 3.09 1.029 4.347-1.829 11.322 7.877 26.421 17.237 40.948 5.937 9.149 11.418 17.842 13.814 25.162 7.078 21.847 41.214 53.53 68.614 79.037 8.561 8.006 16.667 15.555 22.604 21.616 2.741 2.746 5.595 5.375 8.333 7.893 3.883 3.546 7.536 6.976 10.847 10.636.456.458.8.914 1.256 1.373 1.598 1.714 3.311 3.546 4.453 5.719.114.342.684 1.029 1.37 1.943 2.282 3.318 4.223 6.178 4.109 7.092 0 .345.686 1.715 1.37 2.746 1.142 2.059 1.826 3.432 1.712 4.002L439.013 358c.687.8.228 3.66-.342 6.634-.456 2.401-.912 5.261-.456 5.833 1.94 2.515-.114 11.667-2.054 20.474-1.484 6.748-2.969 13.151-2.171 15.097v.114c-1.826 9.607.228 19.215 2.513 29.395l.228.8c.342 1.373 1.484 4.805 2.855 8.807 3.082 9.038 7.419 21.389 6.621 24.707 2.74 12.353-3.197 25.163-16.211 35.343l-54.801 75.49-24.887 60.619-.456.228Z"/>
        <path fill="url(#O)" d="m349.849 641.541-.456-.228 24.202-57.075 52.631-71.372c14.384-10.636 20.664-24.362 17.239-37.516.798-2.859-4.453-16.814-7.878-26.077-1.712-4.577-3.082-8.237-3.424-9.607-2.627-11.325-5.023-21.961-2.513-32.714-.684-2.059 1.143-8.807 3.311-16.583 2.513-9.152 5.253-19.56 3.655-21.619-.573-.686 0-2.974.798-6.748.684-2.746 1.484-6.292.914-6.862l-12.102-39.689s-.684-2.518-1.371-3.89c-.798-1.601-1.256-2.516-1.256-3.088.114-.915-2.51-4.919-3.881-6.976-.57-.917-1.028-1.603-1.256-1.945-1.142-2.174-2.855-4.002-4.681-6.062-.342-.344-.684-.686-1.026-1.145-3.31-3.774-7.079-7.089-11.188-10.636-2.741-2.517-5.709-5.033-8.45-7.778-6.279-6.176-15.41-14.182-26.029-23.448-28.199-24.476-63.246-55.016-69.639-74.573-2.285-6.979-8.792-15.9-15.755-25.393-10.276-13.955-20.892-28.365-19.294-38.889.114-1.029-.572-2.629-1.37-4.002-.8-1.601-1.598-3.202-1.37-4.461-1.713-5.033-2.627-10.294-3.425-15.096-1.028-6.292-1.256-12.126-.8-17.731.8-9.38 3.541-18.187 8.105-25.963 6.51-10.867 22.265-36.03 29.684-44.15l.342.342c-7.307 8.007-23.057 33.17-29.567 44.036-4.567 7.776-7.308 16.355-8.106 25.735-.456 5.605-.228 11.322.798 17.614.801 4.92 1.712 10.066 3.425 15.097v.116c-.228 1.143.57 2.629 1.37 4.23.8 1.604 1.598 3.09 1.368 4.349-1.596 10.294 9.02 24.59 19.182 38.545 6.966 9.493 13.584 18.414 15.869 25.507 6.279 19.557 41.328 49.983 69.525 74.459 10.618 9.266 19.866 17.27 26.146 23.448 2.738 2.745 5.592 5.261 8.447 7.662 3.995 3.546 7.878 6.978 11.188 10.752.342.342.684.687 1.029 1.143 1.826 1.945 3.538 3.89 4.678 6.064.23.342.686 1.028 1.256 1.943 2.171 3.318 4.111 6.291 3.997 7.32 0 .344.57 1.717 1.14 2.746 1.029 2.059 1.715 3.432 1.485 4.118l11.988 39.345c.57.8 0 3.202-.8 7.206-.57 2.746-1.368 5.72-.912 6.406 1.826 2.287-.915 12.351-3.539 22.075-2.057 7.548-3.997 14.641-3.31 16.469v.114c-2.513 10.639 0 21.275 2.51 32.6.342 1.256 1.598 4.916 3.424 9.491 3.655 9.838 8.678 23.22 7.992 26.307 3.538 13.268-2.855 27.108-17.353 37.861l-52.514 71.257-24.205 57.073-.228-.114Z"/>
        <path fill="url(#P)" d="m349.856 641.541-.456-.228 23.402-53.529 50.234-67.025c15.641-11.209 22.491-26.077 18.266-40.031v-.117c.686-2.515-5.251-17.612-9.248-27.678-2.055-5.147-3.653-9.151-3.881-10.408-2.741-11.439-5.595-23.334-2.399-35.114-.57-1.946 1.713-9.38 4.339-17.957 3.083-9.952 6.622-21.16 5.023-23.105-.456-.687.114-3.202 1.257-7.321.8-2.859 1.94-6.862 1.37-7.434l-9.248-40.376c.342-.686-.57-2.629-1.142-4.002-.57-1.373-1.14-2.517-1.026-3.09.114-1.142-2.285-5.03-3.769-7.318a13.668 13.668 0 0 1-1.14-1.945c-1.256-2.287-2.969-4.233-4.795-6.292a6.565 6.565 0 0 0-.8-.914c-3.311-3.774-7.305-7.093-11.416-10.636-2.855-2.404-5.824-4.919-8.562-7.665-6.279-6.061-16.783-14.527-28.883-24.362-29.114-23.676-65.417-53.071-71.126-70.799-2.169-6.748-9.818-15.786-17.81-25.393-11.302-13.382-22.832-27.222-21.348-36.716.114-1.028-.8-2.401-1.712-3.888-1.028-1.601-1.943-3.09-1.712-4.347-2.171-4.919-3.541-9.95-4.567-14.754-1.484-6.29-2.057-12.123-1.94-17.731.342-9.491 2.852-18.415 7.533-26.305 5.367-9.149 22.495-36.943 29.684-44.722l.342.344c-7.078 7.777-24.203 35.57-29.568 44.723-4.681 7.89-7.194 16.583-7.535 26.077-.228 5.605.455 11.322 1.823 17.614 1.145 4.805 2.399 9.952 4.57 14.754v.114c-.228 1.031.798 2.518 1.712 4.002 1.028 1.604 1.94 3.091 1.712 4.233-1.484 9.266 10.046 23.106 21.234 36.374 8.106 9.607 15.641 18.642 17.924 25.507 5.709 17.614 41.9 47.007 71.012 70.568 12.1 9.838 22.604 18.301 28.997 24.479 2.741 2.629 5.709 5.147 8.561 7.548 4.225 3.546 8.106 6.862 11.533 10.753.228.342.57.686.798.914 1.826 2.059 3.653 4.119 4.795 6.406.228.342.57 1.028 1.142 1.829 2.055 3.318 3.995 6.406 3.881 7.665 0 .456.456 1.714 1.028 2.859.912 2.057 1.484 3.544 1.257 4.23l9.245 40.148c.572.8-.114 3.432-1.37 7.776-.798 2.86-1.827 6.292-1.368 6.865 1.712 2.173-1.713 13.039-5.026 23.561-2.396 7.893-5.023 16.014-4.336 17.729v.114c-3.197 11.666-.342 23.447 2.396 35 .345 1.257 1.943 5.261 3.883 10.294 4.223 10.522 9.932 24.935 9.362 27.909 4.222 14.068-2.741 29.164-18.496 40.489l-50.117 66.911-23.405 53.53-.114-.117Z"/>
        <path fill="url(#Q)" d="m349.856 641.542-.459-.228 22.604-49.983 47.95-62.795c17.125-11.781 24.433-27.678 19.41-42.547v-.116c.684-2.288-6.166-18.529-10.619-29.279-2.284-5.605-4.111-9.952-4.453-11.094-2.968-12.24-6.165-24.821-2.168-37.516-.572-1.946 2.282-9.952 5.479-19.332 3.539-10.18 7.878-22.875 6.507-24.704-.456-.572.228-2.974 1.713-7.779.914-2.973 2.398-7.434 1.942-7.892v-.114l-6.509-41.063c.344-.686-.342-2.629-.912-4.116-.456-1.372-.915-2.517-.915-3.087.114-1.259-2.168-5.264-3.652-7.665-.456-.8-.798-1.373-1.029-1.829-1.253-2.404-3.196-4.577-5.136-6.864l-.456-.456c-3.425-3.774-7.422-7.093-11.758-10.639-2.855-2.401-5.938-4.802-8.792-7.548-6.28-5.833-17.924-14.641-31.397-24.935-30.253-22.989-67.812-51.47-73.063-67.483-2.057-6.406-10.618-15.441-19.752-25.049-12.214-12.923-24.887-26.307-23.516-34.884.113-.914-.912-2.287-1.943-3.66-1.14-1.601-2.282-3.09-2.052-4.118-2.629-4.803-4.456-9.95-5.826-14.413-1.94-6.29-2.966-12.006-2.966-17.612-.114-9.607 2.168-18.531 6.963-26.652 6.051-10.294 23.291-38.544 29.57-45.406l.342.342c-6.282 6.864-23.519 35.115-29.57 45.409-4.795 8.004-7.077 16.927-6.849 26.419 0 5.605 1.028 11.325 2.969 17.502 1.367 4.459 3.082 9.608 5.82 14.413v.228c-.228.912.915 2.401 2.057 3.888 1.14 1.601 2.282 2.974 2.054 4.116-1.367 8.465 11.189 21.733 23.405 34.542 9.131 9.724 17.807 18.874 19.864 25.279 5.137 15.897 42.698 44.378 72.838 67.253 13.47 10.294 25.228 19.102 31.394 24.935a130.886 130.886 0 0 0 8.792 7.434c4.336 3.546 8.333 6.865 11.758 10.753l.456.456c2.056 2.29 3.997 4.46 5.253 6.978.228.342.57 1.028 1.026 1.829 1.484 2.632 3.883 6.52 3.655 7.893 0 .458.342 1.714.798 2.859.686 1.715 1.37 3.547.914 4.461l6.507 40.834c.456.686-.228 3.202-1.826 8.349-.914 2.859-2.171 6.862-1.829 7.434 1.599 1.945-2.51 13.726-6.393 25.163-2.966 8.579-6.049 17.5-5.365 18.987v.114c-3.88 12.581-.798 25.165 2.168 37.288.345 1.144 2.171 5.489 4.453 11.094 4.681 11.322 11.189 26.763 10.619 29.509 5.023 14.985-2.399 31.113-19.636 43.008l-47.835 62.564L349.856 642v-.458Z"/>
        <path fill="url(#R)" d="m349.853 641.541-.459-.228 21.806-46.437 45.551-58.448c18.61-12.467 26.259-29.281 20.55-45.064v-.114c.572-2.06-6.963-19.446-11.986-30.882-2.627-6.064-4.681-10.753-5.023-11.895-3.769-14.871-6.279-27.339-2.057-39.92-.456-1.715 2.171-8.921 6.507-20.474 4.111-10.98 9.134-24.59 7.878-26.191-.456-.572.344-2.974 2.285-8.351 1.142-3.316 2.74-7.89 2.396-8.463v-.114l-3.653-41.862c.456-.801-.228-2.746-.684-4.347-.458-1.373-.8-2.401-.686-3.087.228-1.487-2.168-5.492-3.539-8.007-.341-.687-.686-1.259-.914-1.717-1.37-2.63-3.425-5.031-5.593-7.549-3.424-3.888-7.535-7.09-11.988-10.636-2.966-2.287-6.049-4.691-9.018-7.434-6.051-5.491-18.837-14.641-33.564-25.165-31.396-22.303-70.554-50.097-75.235-64.624-1.94-5.947-11.53-14.982-21.692-24.704-13.242-12.467-26.829-25.393-25.684-33.283.111-.801-1.145-2.288-2.285-3.546-1.37-1.487-2.627-2.974-2.399-4.002-3.196-4.806-5.365-10.067-6.965-14.071-2.397-6.176-3.767-11.895-4.109-17.615-.684-9.721 1.484-18.756 6.393-26.99 3.883-6.52 23.405-39.348 29.57-46.096l.342.342c-6.165 6.75-25.687 39.575-29.57 45.981-4.795 8.12-6.963 17.156-6.279 26.763.345 5.606 1.715 11.323 4.111 17.503 1.598 4.003 3.767 9.263 6.966 14.066v.228c-.117.803 1.14 2.29 2.279 3.663 1.373 1.486 2.627 2.973 2.399 4.002-1.14 7.548 12.331 20.36 25.459 32.827 10.276 9.722 19.866 18.871 21.806 24.932 4.567 14.299 43.611 41.979 75.007 64.282 14.841 10.522 27.627 19.674 33.678 25.163 2.969 2.631 5.938 5.033 8.904 7.434 4.453 3.546 8.564 6.748 11.988 10.638 2.168 2.516 4.339 4.917 5.707 7.663.231.344.572 1.03.914 1.717 1.485 2.629 3.767 6.634 3.539 8.349 0 .572.342 1.714.686 2.859.57 1.715 1.14 3.546.684 4.575l3.653 41.634c.458.687-.456 3.316-2.396 8.808-1.143 3.087-2.627 7.434-2.283 7.89 1.368 1.717-2.284 11.667-7.763 26.652-3.425 9.263-6.966 18.87-6.507 20.243v.114c-4.225 12.467-1.713 24.821 2.054 39.689.228 1.031 2.396 5.834 4.909 11.781 6.849 15.672 12.444 28.823 11.986 31.113 5.709 16.011-1.94 33.055-20.778 45.636l-45.437 58.332-21.806 46.437h.345Z"/>
        <path fill="url(#S)" d="m349.855 641.541-.456-.228 21.12-42.891 43.269-54.102c20.091-13.039 28.199-30.882 21.689-47.582v-.114c.459-1.6-6.393-16.583-11.302-27.563-3.994-8.694-7.305-16.128-7.533-17.615-6.279-13.84-6.965-28.48-1.94-42.321-.344-1.6 2.624-9.493 7.647-21.844 4.681-11.667 10.39-26.193 9.248-27.68-.456-.573.456-2.974 2.741-8.921 1.37-3.547 3.196-8.352 2.854-8.922v-.114l-.914-42.665c.456-.914 0-2.743-.456-4.461-.345-1.256-.572-2.401-.572-3.087.227-1.715-2.055-5.948-3.425-8.349-.342-.572-.57-1.145-.798-1.487-1.37-2.632-3.311-5.033-5.595-7.665-3.425-3.888-7.65-7.089-12.214-10.522-3.083-2.287-6.166-4.688-9.248-7.434-5.709-5.033-19.522-14.298-35.619-25.051-32.652-21.842-73.294-48.95-77.519-61.873-1.712-5.491-12.444-14.526-23.633-24.134-14.27-12.125-28.883-24.593-27.855-31.682 0-.687-1.37-2.174-2.626-3.433-1.485-1.487-2.855-2.859-2.855-3.888-3.653-4.691-6.277-9.835-8.106-13.726-2.852-6.061-4.564-11.895-5.25-17.614-1.14-9.836.8-18.985 5.709-27.45v-.228C241.971 20.699 252.359 4.23 255.897.339l.456.344c-3.538 3.888-13.926 20.358-29.453 46.551v.228c-5.023 8.237-6.849 17.387-5.824 27.108.684 5.606 2.399 11.323 5.254 17.387 1.824 3.888 4.453 9.035 8.105 13.726v.228c-.114.684 1.368 2.287 2.625 3.546 1.598 1.601 2.968 2.86 2.74 3.888-1.028 6.748 13.473 19.215 27.627 31.226 11.302 9.608 22.037 18.757 23.861 24.363 4.111 12.809 44.753 39.803 77.291 61.533 16.097 10.753 29.909 20.018 35.733 25.049 2.968 2.745 6.165 5.033 9.248 7.434 4.567 3.432 8.789 6.75 12.214 10.525 2.284 2.629 4.339 5.033 5.709 7.776.228.344.456.917.8 1.487 1.482 2.745 3.653 6.864 3.425 8.693 0 .572.228 1.717.456 2.973.456 1.832.912 3.661.456 4.692l.914 42.432c.342.686-.458 2.974-2.854 9.38-1.257 3.318-2.969 7.892-2.741 8.465 1.256 1.601-2.852 12.123-9.245 28.25-3.997 9.952-8.108 20.246-7.536 21.616v.231c-5.137 13.724-4.453 28.25 1.826 41.976 0 1.373 3.653 9.263 7.536 17.615 6.849 14.982 11.644 25.849 11.416 27.794 6.507 16.928-1.598 34.998-21.92 48.152l-43.155 53.988-21.12 42.89.114-.344Z"/>
        <path fill="url(#T)" d="m349.854 641.541-.458-.228 20.322-39.345 40.986-49.869c21.575-13.726 30.023-32.483 22.832-50.097v-.116c.456-1.487-7.077-17.384-12.445-28.937-5.023-10.636-8.105-17.387-8.219-18.643-6.849-14.64-7.422-30.081-1.712-44.722-.228-1.601 3.196-9.952 8.675-23.22 4.909-11.781 11.647-27.908 10.732-29.165-.342-.458.342-2.517 3.197-9.493 1.484-3.774 3.538-8.921 3.424-9.494v-.114l1.941-43.463c.572-.917.116-2.86-.228-4.577-.228-1.256-.456-2.287-.342-3.088.228-1.943-1.941-6.289-3.311-8.807-.228-.456-.456-.914-.684-1.259-1.37-2.857-3.655-5.489-5.709-7.776-5.823-6.634-13.129-12.581-21.806-17.731-5.593-6.976-27.4-20.471-50.46-34.77-31.396-19.443-63.818-39.459-67.015-49.411-1.712-5.033-13.242-13.954-25.573-23.447-15.185-11.779-30.937-23.904-29.912-30.194 0-.572-1.595-2.061-2.968-3.204-1.94-1.715-3.197-2.859-3.197-3.66-3.31-3.66-6.279-7.893-9.359-13.382-3.313-6.063-5.481-11.78-6.396-17.5-1.596-9.95.117-19.215 5.14-27.794l.797-1.373c15.755-27.45 25.459-42.89 28.542-46.323l.456.344c-3.083 3.43-12.787 18.871-28.77 46.095l-.798 1.257c-4.908 8.465-6.621 17.614-5.136 27.45.911 5.72 2.968 11.322 6.279 17.386 3.08 5.491 6.049 9.722 9.359 13.382v.228c-.114.575 1.715 2.175 2.969 3.318 2.057 1.831 3.196 2.976 3.082 3.776-.911 5.948 15.414 18.641 29.798 29.735 12.445 9.61 24.089 18.645 25.801 23.792 3.197 9.836 36.989 30.654 66.787 49.069 23.06 14.296 44.867 27.794 50.574 34.77 8.677 5.147 16.097 11.209 21.92 17.842 2.054 2.29 4.225 5.033 5.709 7.893.114.345.342.801.684 1.259 1.484 2.86 3.653 7.092 3.311 9.149 0 .687.114 1.718.342 2.86.344 1.831.8 3.774.23 4.919l-1.829 43.235c.231.687-.684 3.202-3.424 9.95-1.485 3.774-3.425 8.351-3.197 8.921 1.143 1.373-3.538 12.698-10.616 29.74-4.225 10.18-9.133 21.73-8.677 22.875v.228c-5.707 14.526-5.137 29.854 1.712 44.38 0 1.143 3.997 9.608 8.219 18.529 7.422 15.897 12.673 27.222 12.559 29.165 7.307 17.958-1.257 36.831-22.946 50.669l-40.873 49.755-20.319 39.348v-.117Z"/>
        <path fill="url(#U)" d="m349.85 641.657-.456-.23 19.522-35.799 38.587-45.522c23.063-14.299 31.966-33.972 23.861-52.615v-.228c.342-1.373-7.764-18.073-13.585-30.426-5.367-11.323-8.792-18.301-9.02-19.557-7.421-15.441-7.991-31.683-1.598-47.124-.114-1.603 3.653-10.408 9.818-24.362 5.481-12.467 12.9-29.511 12.103-30.768-.342-.458.227-2.059 3.652-10.066 1.712-4.119 3.997-9.266 3.883-10.066v-.228l4.679-44.264c.572-1.031.344-3.087 0-4.805-.228-1.142-.342-2.287-.228-3.087.342-2.288-2.055-6.976-3.197-9.494-.114-.342-.342-.572-.456-.914-1.37-2.86-3.539-5.492-5.593-7.893-5.823-6.634-13.359-12.581-22.262-17.614-5.026-6.29-28.2-19.788-52.63-33.97-32.653-18.987-66.331-38.544-69.186-47.352-1.482-4.46-14.154-13.384-27.513-22.761-16.211-11.439-32.992-23.22-32.08-28.825 0-.456-1.94-2.057-3.311-3.088-2.168-1.715-3.424-2.743-3.538-3.546-3.767-3.546-7.08-7.662-10.505-13.037-3.88-5.948-6.279-11.667-7.533-17.503-2.056-9.95-.572-19.44 4.565-28.134l1.256-2.173c5.937-10.294 24.203-41.52 28.314-45.867l.456.344c-2.625 2.86-12.1 18.301-28.197 45.865l-1.257 2.173c-5.023 8.58-6.51 17.843-4.453 27.68 1.14 5.72 3.653 11.323 7.422 17.27 3.424 5.378 6.735 9.494 10.502 13.04v.228c0 .456 1.94 2.059 3.31 3.204 2.285 1.715 3.655 2.86 3.425 3.66-.798 5.261 16.555 17.498 31.852 28.251 13.473 9.493 26.259 18.528 27.744 23.103 2.738 8.579 37.9 29.053 68.955 47.012 24.544 14.296 47.721 27.678 52.858 34.084 9.02 5.033 16.553 11.094 22.376 17.728 2.168 2.401 4.339 5.147 5.707 8.121.116.228.23.572.458.914 1.371 2.746 3.653 7.434 3.311 9.838 0 .684 0 1.715.228 2.857.228 1.832.57 3.891 0 5.147l-4.681 44.036c.228.687-.684 2.86-3.88 10.525-1.715 4.002-3.77 8.921-3.656 9.493.915 1.257-3.88 12.695-12.1 31.338-4.681 10.753-10.048 22.989-9.703 24.134v.228c-6.394 15.327-5.824 31.455 1.484 46.782 0 1.028 4.336 10.066 8.903 19.443 7.992 16.7 13.701 28.825 13.701 30.654 3.995 9.266 3.767 18.987-.342 28.25-4.225 9.266-12.444 17.959-23.746 24.935l-38.474 45.408-19.524 35.801-.228-.228Z"/>
        <path fill="url(#V)" d="m349.853 641.655-.456-.342 18.721-32.255 36.305-41.29c24.545-14.985 33.793-35.573 25.003-55.13v-.228c.228-1.373-8.45-18.987-14.729-31.799-5.821-11.895-9.473-19.329-9.704-20.474-7.991-16.241-8.447-33.283-1.368-49.525 0-1.486 3.311-9.149 10.844-25.621 6.279-13.84 14.157-30.996 13.587-32.368-.342-.342.342-1.943 4.108-10.408 1.943-4.347 4.339-9.836 4.453-10.636v-.231l7.536-44.95c.684-1.259.456-3.202.342-5.033 0-1.142-.228-2.173 0-2.974.342-2.515-1.94-7.434-3.197-10.18l-.228-.456c-1.484-3.087-3.766-5.947-5.709-8.12-5.821-6.637-13.47-12.582-22.718-17.503-4.453-5.603-28.884-18.985-54.799-33.167-33.906-18.529-68.955-37.744-71.353-45.409-1.257-3.888-15.642-13.153-29.454-22.075-17.239-11.094-35.049-22.644-34.251-27.449 0-.456-2.168-1.946-3.538-2.974-2.511-1.831-3.767-2.746-3.881-3.432-4.111-3.432-7.991-7.549-11.644-12.696-4.339-5.833-7.08-11.552-8.678-17.386-2.513-9.95-1.14-19.787 3.997-28.48a166.84 166.84 0 0 0 1.94-3.319C207.604 34.31 225.185 4.002 228.61.225l.455.456c-3.31 3.663-21.575 35.115-27.513 45.409a151.547 151.547 0 0 1-1.94 3.318c-5.023 8.579-6.393 18.3-3.883 28.022 1.487 5.834 4.339 11.44 8.561 17.156 3.77 5.033 7.539 9.152 11.647 12.695h.114v.345c0 .456 2.285 2.059 3.653 2.973 2.74 1.946 3.883 2.86 3.769 3.547-.684 4.574 17.809 16.355 34.02 26.877 14.615 9.38 28.314 18.301 29.684 22.417 2.396 7.437 38.929 27.452 71.123 45.066 25.915 14.185 50.348 27.567 54.915 33.17 9.246 5.033 17.009 10.866 22.832 17.614 1.941 2.173 4.223 5.033 5.707 8.235l.231.458c1.368 2.86 3.652 7.779 3.31 10.408v2.86c.114 1.831.342 4.005-.344 5.375l-7.419 44.836c0 .687-.915 2.974-4.453 11.095-1.826 4.118-4.111 9.265-4.111 9.952.572 1.372-3.539 10.98-13.471 32.827-5.136 11.322-11.074 24.248-10.846 25.39v.231c-6.963 16.125-6.507 33.053 1.371 49.066 0 .915 4.908 10.867 9.703 20.474 8.906 18.073 14.841 30.196 14.841 32.027 4.339 9.608 4.225 19.902-.114 29.737-4.45 9.722-13.128 18.759-25.114 26.194l-36.077 41.062-18.724 32.252-.684-.114Z"/>
        <path fill="url(#W)" d="m349.851 641.658-.456-.345 18.037-28.708 33.909-36.944c25.573-15.327 35.619-37.516 26.143-57.648v-.228c0-1.259-9.134-19.673-15.869-33.055-6.507-12.923-10.274-20.474-10.504-21.616-8.562-16.928-8.904-34.887-1.254-51.929 0-1.487 3.88-9.607 11.986-26.994 6.735-14.41 15.185-32.369 14.84-33.855-.228-.342.114-1.373 4.567-10.981 2.171-4.574 4.795-10.294 4.909-11.208v-.228l10.277-45.751c.683-1.373.683-3.432.57-5.377v-2.86c.341-3.088-2.169-8.691-3.197-10.864-1.143-2.518-2.855-5.033-5.707-8.237-5.709-6.634-13.815-12.582-23.177-17.384-3.766-4.805-29.567-18.187-56.969-32.371-35.162-18.185-71.465-36.944-73.633-43.461-1.029-3.318-16.439-12.468-31.397-21.277-19.065-11.323-37.103-21.961-36.533-26.191 0-.342-2.398-1.829-3.88-2.746-2.741-1.715-3.997-2.629-4.225-3.202-4.567-3.432-8.79-7.434-12.901-12.353-4.68-5.603-7.991-11.55-9.703-17.384-2.969-9.952-1.827-20.018 3.31-28.825.342-.57 1.026-1.715 2.054-3.546C197.786 34.425 215.71 3.313 218.562.11l.456.456c-2.853 3.09-21.348 35.345-27.4 45.867-1.025 1.715-1.712 2.974-2.051 3.547-5.142 8.807-6.282 18.528-3.313 28.364 1.712 5.833 5.022 11.553 9.589 17.158 4.111 4.917 8.22 8.921 12.901 12.237h.114v.344c0 .456 2.399 1.829 3.997 2.86 3.082 1.943 4.222 2.746 4.222 3.43-.57 3.774 18.952 15.327 36.191 25.621 15.642 9.265 30.482 18.073 31.625 21.619 2.054 6.289 39.843 25.849 73.294 43.119 27.285 14.068 53.086 27.452 57.08 32.371 9.476 4.803 17.582 10.866 23.291 17.498 2.741 3.201 4.567 5.833 5.707 8.348 1.598 3.433 3.541 8.238 3.196 11.097v2.744c0 1.945.114 4.118-.569 5.605l-10.274 45.523c0 .686-.801 2.745-4.909 11.553-2.057 4.344-4.567 9.835-4.567 10.522.456 1.372-3.655 10.408-14.843 34.314-5.593 12.009-11.986 25.618-11.872 26.763v.228c-7.65 16.814-7.191 34.656 1.256 51.47 0 .915 5.365 11.439 10.388 21.503 10.732 21.505 15.755 31.685 15.869 33.399 9.59 20.474-.57 42.891-26.371 58.446l-33.792 36.83-17.926 28.711Z"/>
        <path fill="url(#X)" d="m349.85 641.655-.57-.342 17.24-25.162 31.624-32.6c27.055-16.013 37.445-39.002 27.285-60.163v-.228c0-1.259-9.82-20.36-16.897-34.314-7.536-14.869-11.075-21.73-11.303-22.759-9.02-17.731-9.475-36.601-1.028-54.33.114-1.372 3.541-8.465 13.014-28.252 7.308-15.097 16.328-33.856 16.328-35.343-.228-.342.228-1.373 5.137-11.553 2.282-4.802 5.137-10.75 5.365-11.781v-.228l13.014-46.437c.801-1.601.915-3.774.915-5.719 0-.915 0-1.829.114-2.629.342-2.29-.684-6.178-2.969-11.097-1.142-2.63-2.969-5.261-5.707-8.349-5.823-6.634-13.929-12.581-23.633-17.27-3.196-4.002-30.367-17.272-59.023-31.34-36.419-17.843-74.092-36.257-75.921-41.635-.912-2.743-17.351-11.778-33.22-20.471-23.518-12.812-39.045-21.505-38.704-24.935-.227-.458-2.51-1.717-4.222-2.746-3.197-1.831-4.339-2.515-4.567-3.09-5.137-3.316-9.704-7.204-14.043-11.895-5.137-5.603-8.789-11.436-10.846-17.27-3.539-10.066-2.51-20.13 2.741-29.28.342-.457 1.14-2.06 2.512-4.347 6.622-11.78 24.659-43.236 26.941-45.865l.456.456c-2.28 2.518-20.205 33.858-26.941 45.753-1.256 2.287-2.168 3.774-2.512 4.347-5.251 8.92-6.163 18.87-2.738 28.709 2.054 5.833 5.592 11.55 10.729 17.041a76.021 76.021 0 0 0 14.043 11.895h.228v.228c.228.459 2.513 1.717 4.225 2.746 3.653 2.059 4.567 2.746 4.567 3.318-.456 3.088 21.006 14.869 38.359 24.248 17.468 9.491 32.536 17.729 33.562 20.816 1.715 5.147 40.872 24.362 75.579 41.29 28.656 14.068 55.713 27.222 59.251 31.341 9.704 4.688 17.924 10.75 23.747 17.383 2.741 3.091 4.567 5.834 5.709 8.466 2.283 5.033 3.311 8.921 2.966 11.436v2.518c0 2.059 0 4.346-.911 5.947l-13.015 46.323c0 .573-.914 2.63-5.481 12.123-2.396 4.919-5.023 10.525-5.023 11.095.114 1.489-4.109 10.752-16.325 35.801-6.393 13.267-13.015 26.88-13.015 28.022v.23c-8.333 17.615-7.991 36.257 1.026 53.872.114.914 5.824 12.009 11.302 22.761 11.533 22.647 16.67 32.825 16.898 34.542 10.39 21.503-.228 44.836-27.513 60.964l-31.396 32.483-17.24 25.162-.114.114Z"/>
        <path fill="url(#Y)" d="m349.856 641.655-.458-.456 16.441-21.619 29.226-28.25c28.541-16.7 39.501-40.72 28.427-62.795v-.228c-.114-1.142-10.162-20.474-18.154-35.915-8.105-15.669-11.644-22.417-11.872-23.448-9.59-18.528-9.931-38.202-.914-56.845.344-1.487 3.655-8.348 14.043-29.281 7.877-15.783 17.581-35.456 17.695-37.171-.114-.345.342-1.373 5.595-12.012 2.511-5.03 5.593-11.322 5.821-12.35v-.231l15.869-47.237c.915-1.829 1.143-4.233 1.257-6.292 0-.801 0-1.601.228-2.287.456-3.544-1.485-8.577-2.625-11.323-1.256-2.746-3.082-5.491-5.709-8.465-5.823-6.634-14.157-12.581-24.088-17.156h-.114c-2.513-3.318-31.055-16.469-61.078-30.423-37.789-17.503-76.719-35.574-78.203-39.92-.684-2.173-18.268-10.978-35.163-19.557-25.345-12.812-40.872-20.819-40.872-23.562-.342-.456-2.738-1.715-4.567-2.632-3.538-1.829-4.681-2.515-4.909-2.973a78.607 78.607 0 0 1-15.299-11.667c-5.593-5.49-9.587-11.323-11.986-17.27-3.994-10.18-3.197-20.36 2.171-29.623.228-.459 1.254-2.29 2.852-5.033 7.422-12.698 24.889-43.35 26.715-45.409l.456.456c-1.824 1.945-19.863 33.742-26.599 45.753-1.484 2.746-2.512 4.575-2.854 5.033-5.251 9.035-6.052 19.099-2.168 29.053 2.282 5.945 6.276 11.665 11.872 17.04a78.329 78.329 0 0 0 15.185 11.553h.228v.228c.456.455 2.738 1.717 4.567 2.631 4.222 2.288 4.909 2.63 4.909 3.202-.345 2.401 22.262 13.84 40.527 22.989 21.576 10.867 34.707 17.615 35.505 19.904 1.37 4.116 42.012 22.873 77.861 39.459 31.28 14.527 58.337 26.994 61.305 30.426 10.046 4.575 18.382 10.639 24.317 17.27 2.627 3.09 4.567 5.833 5.709 8.693 1.257 2.746 3.197 8.007 2.741 11.667 0 .686-.114 1.373-.23 2.173-.114 2.174-.228 4.689-1.254 6.52l-15.755 47.124c0 .57-1.029 2.859-5.938 12.695-2.51 5.147-5.478 10.98-5.478 11.553 0 1.373-3.77 9.377-17.81 37.516-6.738 13.609-13.815 27.794-14.043 29.05v.231c-8.906 18.415-8.678 37.858.912 56.272.231.801 5.824 11.781 11.875 23.448 12.786 24.707 17.809 34.542 18.151 36.257 11.188 22.419.228 46.782-28.655 63.595l-29.112 28.137-16.439 21.616-.114-.114Z"/>
        <path fill="url(#Z)" d="m349.852 641.655-.458-.456 15.641-18.073 26.829-23.903c30.026-17.273 41.328-42.321 29.567-65.311v-.23c-.455-1.487-10.843-21.272-19.179-37.171-9.246-17.615-12.328-23.562-12.787-24.593-10.159-19.329-10.387-39.803-.684-59.246.342-1.145 2.969-6.634 15.183-30.768 8.336-16.47 18.838-37.058 19.066-38.545 0-.458.686-1.945 6.051-12.583 2.741-5.489 5.937-11.781 6.279-12.81l18.724-48.152c1.14-2.059 1.37-4.691 1.598-7.092 0-.572 0-1.145.228-1.601.456-4.118-1.484-9.379-2.398-11.439-1.254-2.859-3.083-5.603-5.707-8.576-5.824-6.637-14.271-12.584-24.547-17.045h-.114c-1.941-2.515-31.622-15.552-63.132-29.395-47.949-21.044-79.459-34.998-80.485-38.086-.573-1.603-19.98-10.638-37.106-18.642-28.769-13.385-42.582-20.132-43.04-22.306-.456-.344-2.966-1.6-4.795-2.515-3.881-1.831-5.023-2.404-5.251-2.862a78.722 78.722 0 0 1-16.439-11.209c-6.051-5.375-10.504-11.208-13.128-17.27-4.453-10.18-3.883-20.587 1.595-29.964.228-.459 1.601-2.749 3.542-6.295 12.214-21.728 24.772-43.92 25.914-45.29l.456.456c-1.253 1.373-18.493 32.027-25.912 45.067-1.943 3.546-3.313 5.834-3.541 6.29-5.365 9.265-5.937 19.331-1.484 29.395 2.626 5.95 6.965 11.667 12.9 16.928a78.7 78.7 0 0 0 16.439 11.21h.228v.228c.456.456 2.969 1.601 4.911 2.516 5.137 2.403 5.251 2.631 5.251 3.09.228 1.943 23.747 12.923 42.699 21.733 22.832 10.636 36.875 17.27 37.445 19.098.911 2.974 44.866 22.303 80.029 37.744 32.65 14.299 60.963 26.766 63.362 29.395 10.388 4.461 18.952 10.411 24.773 17.159 2.626 2.974 4.567 5.947 5.709 8.807.912 2.173 2.969 7.548 2.51 11.895 0 .458 0 1.028-.114 1.601-.228 2.401-.57 5.147-1.712 7.32l-18.607 47.924c-.231.686-1.371 3.204-6.394 13.154-2.74 5.491-5.937 11.666-6.051 12.239-.114 1.256-3.31 7.776-19.065 38.889-7.308 14.296-14.841 29.164-15.186 30.537v.228c-9.589 19.218-9.362 39.461.687 58.563.228.8 6.279 12.353 12.672 24.592 14.613 27.792 18.835 35.913 19.18 37.4 11.872 23.333.456 48.726-29.798 66.11l-26.715 23.906-15.639 18.071v-.117Z"/>
        <path fill="url(#aa)" d="m349.854 641.769-.456-.456 14.841-14.526 24.544-19.674c31.511-17.842 43.269-43.805 30.713-67.825v-.114c-.573-1.601-11.533-22.075-20.322-38.547-10.505-19.785-13.129-24.704-13.471-25.619-10.732-20.132-10.96-41.406-.572-61.65.342-1.031 2.74-5.719 16.325-32.141 9.02-17.386 20.208-38.888 20.436-40.031 0 0 1.142-2.632 6.621-13.154 2.969-5.719 6.279-12.125 6.735-13.267v-.231l21.465-48.724c1.37-2.629 1.826-5.833 2.168-8.579v-.228c.458-3.202-.342-7.548-2.168-11.667-1.257-2.86-3.083-5.834-5.71-8.807-5.82-6.748-14.498-12.582-25-16.928h-.114c-1.256-1.715-33.679-15.211-65.189-28.25-49.661-20.702-82.197-34.315-82.884-36.488-.8-1.256-21.006-9.949-38.932-17.728-32.305-13.954-44.18-19.329-45.208-21.044-.342-.228-2.966-1.487-5.251-2.404-3.994-1.715-5.251-2.287-5.593-2.629-6.509-3.09-12.444-6.75-17.581-10.867-6.51-5.26-11.302-11.094-14.271-17.158-4.909-10.294-4.681-20.816.912-30.31.114-.227 1.598-2.973 3.883-6.975 13.014-23.22 25.001-44.606 25.801-45.523l.456.456c-.798.917-18.151 31.913-25.457 45.067-2.284 4.002-3.769 6.634-3.883 6.976-5.481 9.38-5.709 19.673-.911 29.737 2.852 6.064 7.647 11.669 14.04 16.93 5.137 4.23 11.074 7.89 17.581 10.866h.228v.228c.684.342 3.197 1.487 5.251 2.402 5.253 2.287 5.595 2.517 5.595 2.859 1.14 1.715 25.345 12.24 44.867 20.702 27.057 11.667 38.932 16.928 39.274 18.187 1.14 2.173 46.234 20.93 82.425 36.029 39.274 16.356 63.363 26.419 65.303 28.25 10.618 4.461 19.294 10.294 25.231 17.159 2.624 2.974 4.567 5.947 5.707 8.921 1.826 4.347 2.626 8.693 2.284 12.123v.23c-.344 2.857-.8 6.062-2.284 8.807l-21.348 48.725c-.228.8-1.599 3.315-6.849 13.609-2.969 5.834-6.394 12.354-6.508 12.812-.23 1.029-2.74 6.176-20.436 40.262-7.763 14.982-15.755 30.423-16.325 31.91v.228c-10.276 20.016-10.048 41.062.57 60.964.228.686 6.621 12.812 13.471 25.621 16.897 31.682 19.98 37.63 20.322 38.775 12.672 24.362.914 50.669-30.938 68.739l-24.433 19.56-14.841 14.527-.114-.117Z"/>
        <path fill="url(#ab)" d="m349.854 641.769-.458-.57 14.157-10.98 22.148-15.327c32.881-18.529 45.095-45.409 31.738-70.343v-.114c-.798-1.601-12.216-22.762-21.348-39.917-12.33-22.876-14.042-26.194-14.27-26.766-11.303-20.93-11.417-43.119-.342-64.052.342-.914 2.852-5.833 17.695-33.855 9.932-18.871 21.234-40.376 21.576-41.176.228-.687 1.484-3.088 6.849-13.382 3.197-6.062 6.738-12.809 7.422-14.068v-.228l24.202-49.528c1.257-2.401 2.171-5.261 2.627-9.035.456-3.546-.228-7.892-1.94-11.894-1.257-2.974-3.197-5.948-5.71-8.922-5.823-6.75-14.612-12.583-25.459-16.814-1.142-1.03-34.706-14.184-67.129-27.107-60.849-24.021-83.681-33.17-85.166-34.657-.912-.8-21.234-9.035-40.872-16.927-38.359-15.441-46.12-18.76-47.265-19.902 0 0-3.194-1.373-5.593-2.29-3.88-1.601-5.251-2.171-5.821-2.515-7.079-2.974-13.473-6.52-18.951-10.639-6.966-5.144-12.103-10.866-15.413-17.155-5.479-10.294-5.251-20.93.341-30.766 0-.116 1.713-3.204 4.111-7.32C161.824 18.754 171.87.684 172.209.223l.573.456c-.57.803-17.924 32.026-25.345 45.294-2.51 4.46-3.995 7.206-4.109 7.32-5.481 9.494-5.595 19.902-.344 29.966 3.197 6.064 8.333 11.783 15.185 16.816 5.479 4.002 11.758 7.548 18.724 10.522h.228v.114c.684.344 3.31 1.373 5.479 2.287 4.681 1.946 5.709 2.288 5.823 2.632 1.368 1.142 25.684 10.98 47.037 19.557 32.65 13.154 40.411 16.358 41.212 17.158 1.484 1.373 45.781 18.871 84.824 34.429 43.955 17.383 65.417 25.963 67.357 27.222 10.96 4.346 19.866 10.18 25.687 17.041 2.512 2.974 4.453 6.062 5.823 9.149 1.712 4.233 2.396 8.58 1.94 12.354-.456 3.774-1.37 6.748-2.626 9.265l-24.203 49.525c-.228.801-1.712 3.546-7.419 14.413-3.311 6.289-6.738 12.809-6.852 13.153-.342 1.143-3.31 6.862-21.576 41.404-8.333 15.783-16.897 32.141-17.695 33.628v.114c-10.846 20.702-10.732 42.663.342 63.365.456 1.028 7.194 13.496 14.271 26.763 18.151 33.856 21.006 39.117 21.348 40.034 13.473 25.277 1.256 52.613-32.08 71.258l-22.149 15.324-14.154 10.981h.342l.002.002Z"/>
        <path fill="url(#ac)" d="m349.85 641.771-.342-.686 33.109-18.415c34.362-19.101 46.921-47.009 32.878-72.858l-37.673-69.201c-11.875-21.73-11.875-44.72-.231-66.453l84.141-156.925c1.598-2.974 2.626-6.064 2.968-9.152.912-7.32-1.598-14.64-7.307-21.274-5.821-6.748-14.841-12.467-25.915-16.697L170.27 111.972c-17.239-6.52-30.254-16.241-36.647-27.336-5.823-10.18-5.823-20.93-.228-31.11L162.96.34l.684.344-29.454 53.413c-5.478 9.952-5.364 20.474.228 30.312 6.282 10.98 19.066 20.588 36.191 26.992l261.211 98.137c11.302 4.23 20.322 10.064 26.259 16.928 5.821 6.748 8.448 14.296 7.533 21.847-.456 3.202-1.368 6.289-3.08 9.377l-84.14 156.928c-11.53 21.502-11.416 44.264.228 65.652l37.675 69.198c14.271 26.194 1.599 54.558-33.222 73.89l-33.109 18.414h-.114Z"/>
    </g>
    <defs>
        <linearGradient id="b" x1="394.954" x2="780.936" y1=".111" y2="457.091" gradientUnits="userSpaceOnUse">
            <stop stop-color="#7dd3fc4a"/>
            <stop offset="1" stop-color="#01151c42" stop-opacity="0"/>
        </linearGradient>
        <linearGradient id="c" x1="389.017" x2="779.649" y1=".111" y2="417.628" gradientUnits="userSpaceOnUse">
            <stop stop-color="#7dd3fc4a"/>
            <stop offset="1" stop-color="#01151c42" stop-opacity="0"/>
        </linearGradient>
        <linearGradient id="d" x1="383.089" x2="774.146" y1=".111" y2="373.036" gradientUnits="userSpaceOnUse">
            <stop stop-color="#7dd3fc4a"/>
            <stop offset="1" stop-color="#01151c42" stop-opacity="0"/>
        </linearGradient>
        <linearGradient id="e" x1="376.99" x2="762.552" y1=".111" y2="323.695" gradientUnits="userSpaceOnUse">
            <stop stop-color="#7dd3fc4a"/>
            <stop offset="1" stop-color="#01151c42" stop-opacity="0"/>
        </linearGradient>
        <linearGradient id="f" x1="371.053" x2="742.759" y1=".111" y2="268.709" gradientUnits="userSpaceOnUse">
            <stop stop-color="#7dd3fc4a"/>
            <stop offset="1" stop-color="#01151c42" stop-opacity="0"/>
        </linearGradient>
        <linearGradient id="g" x1="364.842" x2="712.444" y1=".111" y2="211.49" gradientUnits="userSpaceOnUse">
            <stop stop-color="#7dd3fc4a"/>
            <stop offset="1" stop-color="#01151c42" stop-opacity="0"/>
        </linearGradient>
        <linearGradient id="h" x1="356.148" x2="680.742" y1=".111" y2="172.728" gradientUnits="userSpaceOnUse">
            <stop stop-color="#7dd3fc4a"/>
            <stop offset="1" stop-color="#01151c42" stop-opacity="0"/>
        </linearGradient>
        <linearGradient id="i" x1="345.548" x2="652.212" y1=".225" y2="148.398" gradientUnits="userSpaceOnUse">
            <stop stop-color="#7dd3fc4a"/>
            <stop offset="1" stop-color="#01151c42" stop-opacity="0"/>
        </linearGradient>
        <linearGradient id="j" x1="334.953" x2="621.12" y1=".225" y2="124.522" gradientUnits="userSpaceOnUse">
            <stop stop-color="#7dd3fc4a"/>
            <stop offset="1" stop-color="#01151c42" stop-opacity="0"/>
        </linearGradient>
        <linearGradient id="k" x1="327.828" x2="616.533" y1=".339" y2="127.446" gradientUnits="userSpaceOnUse">
            <stop stop-color="#7dd3fc4a"/>
            <stop offset="1" stop-color="#01151c42" stop-opacity="0"/>
        </linearGradient>
        <linearGradient id="l" x1="323.386" x2="629.353" y1=".339" y2="147.679" gradientUnits="userSpaceOnUse">
            <stop stop-color="#7dd3fc4a"/>
            <stop offset="1" stop-color="#01151c42" stop-opacity="0"/>
        </linearGradient>
        <linearGradient id="m" x1="318.735" x2="638.57" y1=".339" y2="166.161" gradientUnits="userSpaceOnUse">
            <stop stop-color="#7dd3fc4a"/>
            <stop offset="1" stop-color="#01151c42" stop-opacity="0"/>
        </linearGradient>
        <linearGradient id="n" x1="314.464" x2="647.309" y1=".457" y2="186.089" gradientUnits="userSpaceOnUse">
            <stop stop-color="#7dd3fc4a"/>
            <stop offset="1" stop-color="#01151c42" stop-opacity="0"/>
        </linearGradient>
        <linearGradient id="o" x1="309.967" x2="655.02" y1=".457" y2="207.313" gradientUnits="userSpaceOnUse">
            <stop stop-color="#7dd3fc4a"/>
            <stop offset="1" stop-color="#01151c42" stop-opacity="0"/>
        </linearGradient>
        <linearGradient id="p" x1="305.763" x2="662.098" y1=".225" y2="229.761" gradientUnits="userSpaceOnUse">
            <stop stop-color="#7dd3fc4a"/>
            <stop offset="1" stop-color="#01151c42" stop-opacity="0"/>
        </linearGradient>
        <linearGradient id="q" x1="301.728" x2="669.889" y1=".684" y2="259.715" gradientUnits="userSpaceOnUse">
            <stop stop-color="#7dd3fc4a"/>
            <stop offset="1" stop-color="#01151c42" stop-opacity="0"/>
        </linearGradient>
        <linearGradient id="r" x1="297.835" x2="674.642" y1=".345" y2="286.172" gradientUnits="userSpaceOnUse">
            <stop stop-color="#7dd3fc4a"/>
            <stop offset="1" stop-color="#01151c42" stop-opacity="0"/>
        </linearGradient>
        <linearGradient id="s" x1="293.773" x2="677.547" y1=".228" y2="314.627" gradientUnits="userSpaceOnUse">
            <stop stop-color="#7dd3fc4a"/>
            <stop offset="1" stop-color="#01151c42" stop-opacity="0"/>
        </linearGradient>
        <linearGradient id="t" x1="287.69" x2="677.799" y1=".223" y2="359.495" gradientUnits="userSpaceOnUse">
            <stop stop-color="#7dd3fc4a"/>
            <stop offset="1" stop-color="#01151c42" stop-opacity="0"/>
        </linearGradient>
        <linearGradient id="u" x1="282.468" x2="673.6" y1=".223" y2="406.934" gradientUnits="userSpaceOnUse">
            <stop stop-color="#7dd3fc4a"/>
            <stop offset="1" stop-color="#01151c42" stop-opacity="0"/>
        </linearGradient>
        <linearGradient id="v" x1="276.108" x2="663.414" y1=".339" y2="447.869" gradientUnits="userSpaceOnUse">
            <stop stop-color="#7dd3fc4a"/>
            <stop offset="1" stop-color="#01151c42" stop-opacity="0"/>
        </linearGradient>
        <linearGradient id="w" x1="270.403" x2="650.599" y1=".454" y2="484.26" gradientUnits="userSpaceOnUse">
            <stop stop-color="#7dd3fc4a"/>
            <stop offset="1" stop-color="#01151c42" stop-opacity="0"/>
        </linearGradient>
        <linearGradient id="x" x1="264.24" x2="635.561" y1=".228" y2="515.777" gradientUnits="userSpaceOnUse">
            <stop stop-color="#7dd3fc4a"/>
            <stop offset="1" stop-color="#01151c42" stop-opacity="0"/>
        </linearGradient>
        <linearGradient id="y" x1="258.189" x2="619.492" y1="0" y2="542.511" gradientUnits="userSpaceOnUse">
            <stop stop-color="#7dd3fc4a"/>
            <stop offset="1" stop-color="#01151c42" stop-opacity="0"/>
        </linearGradient>
        <linearGradient id="z" x1="252.429" x2="602.531" y1=".228" y2="566.708" gradientUnits="userSpaceOnUse">
            <stop stop-color="#7dd3fc4a"/>
            <stop offset="1" stop-color="#01151c42" stop-opacity="0"/>
        </linearGradient>
        <linearGradient id="A" x1="246.524" x2="585.368" y1=".228" y2="587.614" gradientUnits="userSpaceOnUse">
            <stop stop-color="#7dd3fc4a"/>
            <stop offset="1" stop-color="#01151c42" stop-opacity="0"/>
        </linearGradient>
        <linearGradient id="B" x1="240.192" x2="567.39" y1=".457" y2="606.332" gradientUnits="userSpaceOnUse">
            <stop stop-color="#7dd3fc4a"/>
            <stop offset="1" stop-color="#01151c42" stop-opacity="0"/>
        </linearGradient>
        <linearGradient id="C" x1="234.48" x2="550.732" y1=".341" y2="622.229" gradientUnits="userSpaceOnUse">
            <stop stop-color="#7dd3fc4a"/>
            <stop offset="1" stop-color="#01151c42" stop-opacity="0"/>
        </linearGradient>
        <linearGradient id="D" x1="228.376" x2="533.757" y1=".225" y2="636.52" gradientUnits="userSpaceOnUse">
            <stop stop-color="#7dd3fc4a"/>
            <stop offset="1" stop-color="#01151c42" stop-opacity="0"/>
        </linearGradient>
        <linearGradient id="E" x1="222.56" x2="517.418" y1=".57" y2="649.085" gradientUnits="userSpaceOnUse">
            <stop stop-color="#7dd3fc4a"/>
            <stop offset="1" stop-color="#01151c42" stop-opacity="0"/>
        </linearGradient>
        <linearGradient id="F" x1="216.23" x2="500.989" y1=".57" y2="660.046" gradientUnits="userSpaceOnUse">
            <stop stop-color="#7dd3fc4a"/>
            <stop offset="1" stop-color="#01151c42" stop-opacity="0"/>
        </linearGradient>
        <linearGradient id="G" x1="210.479" x2="485.925" y1=".23" y2="669.763" gradientUnits="userSpaceOnUse">
            <stop stop-color="#7dd3fc4a"/>
            <stop offset="1" stop-color="#01151c42" stop-opacity="0"/>
        </linearGradient>
        <linearGradient id="H" x1="379.939" x2="766.686" y1=".454" y2="451.187" gradientUnits="userSpaceOnUse">
            <stop stop-color="#7dd3fc4a"/>
            <stop offset="1" stop-color="#01151c42" stop-opacity="0"/>
        </linearGradient>
        <linearGradient id="I" x1="376.207" x2="762.475" y1=".454" y2="454.727" gradientUnits="userSpaceOnUse">
            <stop stop-color="#7dd3fc4a"/>
            <stop offset="1" stop-color="#01151c42" stop-opacity="0"/>
        </linearGradient>
        <linearGradient id="J" x1="371.887" x2="757.138" y1=".57" y2="461.258" gradientUnits="userSpaceOnUse">
            <stop stop-color="#7dd3fc4a"/>
            <stop offset="1" stop-color="#01151c42" stop-opacity="0"/>
        </linearGradient>
        <linearGradient id="K" x1="368.323" x2="752.259" y1=".57" y2="468.638" gradientUnits="userSpaceOnUse">
            <stop stop-color="#7dd3fc4a"/>
            <stop offset="1" stop-color="#01151c42" stop-opacity="0"/>
        </linearGradient>
        <linearGradient id="L" x1="364.186" x2="746.102" y1=".568" y2="477.369" gradientUnits="userSpaceOnUse">
            <stop stop-color="#7dd3fc4a"/>
            <stop offset="1" stop-color="#01151c42" stop-opacity="0"/>
        </linearGradient>
        <linearGradient id="M" x1="359.663" x2="738.484" y1=".225" y2="490.195" gradientUnits="userSpaceOnUse">
            <stop stop-color="#7dd3fc4a"/>
            <stop offset="1" stop-color="#01151c42" stop-opacity="0"/>
        </linearGradient>
        <linearGradient id="N" x1="355.096" x2="730.193" y1=".339" y2="503.335" gradientUnits="userSpaceOnUse">
            <stop stop-color="#7dd3fc4a"/>
            <stop offset="1" stop-color="#01151c42" stop-opacity="0"/>
        </linearGradient>
        <linearGradient id="O" x1="350.19" x2="721.674" y1=".225" y2="515.292" gradientUnits="userSpaceOnUse">
            <stop stop-color="#7dd3fc4a"/>
            <stop offset="1" stop-color="#01151c42" stop-opacity="0"/>
        </linearGradient>
        <linearGradient id="P" x1="345.009" x2="712.26" y1=".339" y2="527.203" gradientUnits="userSpaceOnUse">
            <stop stop-color="#7dd3fc4a"/>
            <stop offset="1" stop-color="#01151c42" stop-opacity="0"/>
        </linearGradient>
        <linearGradient id="Q" x1="339.813" x2="702.485" y1=".684" y2="539.366" gradientUnits="userSpaceOnUse">
            <stop stop-color="#7dd3fc4a"/>
            <stop offset="1" stop-color="#01151c42" stop-opacity="0"/>
        </linearGradient>
        <linearGradient id="R" x1="334.31" x2="692.344" y1=".225" y2="549.852" gradientUnits="userSpaceOnUse">
            <stop stop-color="#7dd3fc4a"/>
            <stop offset="1" stop-color="#01151c42" stop-opacity="0"/>
        </linearGradient>
        <linearGradient id="S" x1="329.199" x2="682.032" y1=".339" y2="561.714" gradientUnits="userSpaceOnUse">
            <stop stop-color="#7dd3fc4a"/>
            <stop offset="1" stop-color="#01151c42" stop-opacity="0"/>
        </linearGradient>
        <linearGradient id="T" x1="325.591" x2="671.184" y1=".339" y2="575.568" gradientUnits="userSpaceOnUse">
            <stop stop-color="#7dd3fc4a"/>
            <stop offset="1" stop-color="#01151c42" stop-opacity="0"/>
        </linearGradient>
        <linearGradient id="U" x1="322.429" x2="659.554" y1=".339" y2="591.086" gradientUnits="userSpaceOnUse">
            <stop stop-color="#7dd3fc4a"/>
            <stop offset="1" stop-color="#01151c42" stop-opacity="0"/>
        </linearGradient>
        <linearGradient id="V" x1="319.665" x2="648.549" y1=".225" y2="604.301" gradientUnits="userSpaceOnUse">
            <stop stop-color="#7dd3fc4a"/>
            <stop offset="1" stop-color="#01151c42" stop-opacity="0"/>
        </linearGradient>
        <linearGradient id="W" x1="315.83" x2="636.382" y1=".111" y2="616.562" gradientUnits="userSpaceOnUse">
            <stop stop-color="#7dd3fc4a"/>
            <stop offset="1" stop-color="#01151c42" stop-opacity="0"/>
        </linearGradient>
        <linearGradient id="X" x1="312.985" x2="625.053" y1=".225" y2="628.119" gradientUnits="userSpaceOnUse">
            <stop stop-color="#7dd3fc4a"/>
            <stop offset="1" stop-color="#01151c42" stop-opacity="0"/>
        </linearGradient>
        <linearGradient id="Y" x1="309.922" x2="613.766" y1=".225" y2="638.779" gradientUnits="userSpaceOnUse">
            <stop stop-color="#7dd3fc4a"/>
            <stop offset="1" stop-color="#01151c42" stop-opacity="0"/>
        </linearGradient>
        <linearGradient id="Z" x1="306.778" x2="602.761" y1=".228" y2="648.151" gradientUnits="userSpaceOnUse">
            <stop stop-color="#7dd3fc4a"/>
            <stop offset="1" stop-color="#01151c42" stop-opacity="0"/>
        </linearGradient>
        <linearGradient id="aa" x1="303.617" x2="591.872" y1=".225" y2="656.984" gradientUnits="userSpaceOnUse">
            <stop stop-color="#7dd3fc4a"/>
            <stop offset="1" stop-color="#01151c42" stop-opacity="0"/>
        </linearGradient>
        <linearGradient id="ab" x1="300.548" x2="581.503" y1=".223" y2="664.536" gradientUnits="userSpaceOnUse">
            <stop stop-color="#7dd3fc4a"/>
            <stop offset="1" stop-color="#01151c42" stop-opacity="0"/>
        </linearGradient>
        <linearGradient id="ac" x1="297.564" x2="570.925" y1=".339" y2="672.096" gradientUnits="userSpaceOnUse">
            <stop stop-color="#7dd3fc4a"/>
            <stop offset="1" stop-color="#01151c42" stop-opacity="0"/>
        </linearGradient>
        <clipPath id="a">
            <path fill="#fff" d="M0 0h521v642H0z"/>
        </clipPath>
    </defs>
</svg>