<svg xmlns="http://www.w3.org/2000/svg" width="520" height="642" fill="none" viewBox="0 0 520 642">
    <g clip-path="url(#a)">
        <path stroke="#389CFF" stroke-miterlimit="10" stroke-width=".2" d="m650.357 641-5.754-83.64-31.161 54.022-23.994-1.996-10.531-47.144-37.89 49.696-14.114-107.6-38.544-3.438-5.21-115.809-26.492 37.049-31.269-19.19-24.101 9.761-24.212-186.8-62.971 88.742-18.565-59.014-30.074 24.073-47.12-16.639-18.675-94.511-47.336 56.35L128.133 1.396"/>
        <path fill="#389CFF" d="m537.375 463.887 4.69.852 4.585-19.19-4.69-.961-4.585 19.299Zm-11.285 6.396 4.798.852 9.381-39.979-4.691-.96-9.488 40.087Zm-15.993 25.692 4.798.745 10.129-42.751-4.799-.853-10.128 42.859Zm-20.362 43.176 4.904.532 11.302-47.443-4.904-.853-11.302 47.764Zm-15.037 20.257 5.012.534 5.009-21.43-5.009-.532-5.012 21.428Zm-19.945 40.084 5.117.321 10.555-44.35-5.117-.535-10.555 44.564Zm1.936-53.092 5.225.64 5.651-23.881-5.225-.64-5.651 23.881Zm-6.933-16.098 5.225.64 5.756-23.883-5.33-.745-5.651 23.988Zm-23.68 53.842 5.438.427 15.459-65.674-5.33-.747-15.567 65.994Zm3.313-60.88 5.438.64 8.955-38.06-5.33-.853-9.063 38.273Zm-23.028 49.362 5.544.427 13.539-56.93-5.543-.747-13.54 57.25Zm-2.668-36.994 5.545.64 10.234-43.285-5.543-.745-10.236 43.39Zm-20.053 34.973 5.756.534 8.531-36.144-5.651-.639-8.636 36.249Zm-17.26 22.815 5.864.321 11.195-47.231-5.757-.639-11.302 47.549Zm5.124-72.496 5.864.639 4.904-20.577-5.864-.853-4.904 20.791Zm-10.351-8.212 5.972.747 11.513-48.722-5.864-.958-11.621 48.933Zm-4.477-33.794 6.077.853 7.997-33.901-5.97-1.066-8.104 34.114Zm-16.848 17.27 6.183.853 5.332-22.602-6.185-.853-5.33 22.602Zm-16.843 16.74 6.291.747 4.051-17.379-6.291-.853-4.051 17.485Zm-9.39-15.995 6.396.853 10.128-42.646-6.396-1.066-10.128 42.859Zm-3.627-41.469 6.504 1.066 15.139-63.862-6.398-1.385-15.245 64.181Zm8.751-94.566 6.501 1.385 5.012-20.896-6.504-1.598-5.009 21.109Zm-22.698 37.416 6.609 1.387 11.621-49.149-6.609-1.492-11.621 49.254Zm-7.79-27.074 6.717 1.492 11.834-49.896-6.717-1.706-11.834 50.11Zm-2.455-50.215 6.822 1.6 5.438-22.923-6.825-1.705-5.435 23.028Zm-22.698 33.791 6.93 1.6 8.849-37.207-6.93-1.706-8.849 37.313Zm-20.803 24.418 7.144 1.387 7.996-33.691-7.144-1.598-7.996 33.902Zm-24.736 40.192 7.357 1.279 13.007-55.013-7.251-1.598-13.113 55.332Zm-9.165-26.869 7.462 1.387 11.194-47.23-7.462-1.705-11.194 47.548Zm-23.548 32.522 7.675 1.279 10.449-44.245-7.57-1.492-10.554 44.458Zm-6.185-42.326 7.783 1.492 11.194-47.228-7.675-1.705-11.302 47.441Zm-8.124-34.968 7.783 1.706 11.834-50.002-7.783-1.919-11.834 50.215Zm-17.156 1.493 7.996 1.705 7.036-29.637-7.994-1.814-7.038 29.746Zm-10.349-28.893 8.209 1.811 16.206-68.553-8.104-2.237-16.311 68.979Zm-.314-72.714 8.315 2.238 15.034-63.541-8.104-2.559-15.245 63.862Zm-2.661-63.752 8.315 2.559 8.53-35.823-8.317-2.771-8.528 36.035Zm-9.808-35.714 8.528 2.879 13.648-57.677-8.423-3.09-13.753 57.888Zm-10.348-34.97 8.636 3.09 12.579-53.092-8.529-3.306-12.686 53.308ZM114.34 56.41l8.744 3.412 6.714-28.145-8.741-3.52-6.717 28.253Zm-20.47 4.475 8.957 3.306 7.996-33.585-8.957-3.625-7.996 33.904ZM69.467 80.292l9.168 3.305 12.368-52.133-9.17-3.52-12.366 52.347Zm-14.411-24.95 9.383 3.411 3.943-16.524L59 38.71l-3.945 16.632Zm-32.606 50.32 9.594 3.306 16.42-69.297-9.487-3.627-16.527 69.618ZM36.306 2.463l-8.423 35.715-9.807-3.624 7.57-32.09h10.66ZM14.55 3.956-6.133 91.273l-10.129-3.414L3.995 2.463h6.822l3.733 1.493Zm-54.903 92.22 10.341 3.411 4.372-18.764-10.341-3.516-4.372 18.87ZM-65.506 106.2l10.66 3.411 11.302-47.87-10.555-3.624-11.407 48.083Zm-32.84 40.94 10.875 3.195 10.768-45.309-10.876-3.519-10.768 45.633Zm-14.822-38.274 11.195 3.519 8.849-37.315-11.089-3.624-8.955 37.42Zm-1.279-97.02-4.158 17.376v41.26l2.347.746 13.108-55.332-11.297-4.05Zm715.686 342.439 4.265 1.174 7.038-29.745-4.267-1.387-7.036 29.958Zm-16.509 30.704 4.369 1.173 7.783-33.156-4.264-1.279-7.888 33.262Zm-13.435 17.058 4.478 1.066 5.972-25.16-4.48-1.171-5.97 25.265Zm-15.884 26.866 4.585.96 7.996-33.903-4.477-1.172-8.104 34.115Z" opacity=".4"/>
        <path fill="#004775" d="m537.383 463.887 4.69.852 4.585-19.19-4.69-.961-4.585 19.299Zm-11.31 6.396 4.799.852 9.381-39.979-4.691-.96-9.489 40.087Zm-15.992 25.692 4.798.745 10.128-42.751-4.798-.853-10.128 42.859Zm-20.362 43.176 4.906.535 11.3-47.444-4.904-.853-11.302 47.762Zm-15.037 20.259 5.012.532 5.011-21.428-5.011-.534-5.012 21.43Zm-19.926 40.082 5.117.321 10.555-44.35-5.117-.535-10.555 44.564Zm1.917-53.092 5.224.64 5.651-23.881-5.224-.64-5.651 23.881Zm-6.933-16.098 5.225.64 5.756-23.883-5.33-.745-5.651 23.988Zm-23.656 53.842 5.438.426 15.458-65.673-5.33-.745-15.566 65.992Zm3.289-60.88 5.438.64 8.955-38.06-5.33-.853-9.063 38.273Zm-23.009 49.362 5.544.427 13.539-56.93-5.543-.747-13.54 57.25Zm-2.668-36.994 5.545.64 10.234-43.285-5.543-.745-10.236 43.39Zm-20.048 34.973 5.756.534 8.531-36.144-5.652-.639-8.635 36.249Zm-17.265 22.817 5.864.319 11.195-47.228-5.757-.64-11.302 47.549Zm5.1-72.498 5.864.639 4.904-20.577-5.864-.853-4.904 20.791Zm-10.327-8.212 5.972.747 11.513-48.722-5.864-.958-11.621 48.933Zm-4.477-33.794 6.077.853 7.997-33.901-5.97-1.066-8.104 34.114Zm-16.843 17.27 6.183.853 5.332-22.602-6.185-.853-5.33 22.602Zm-16.848 16.74 6.291.747 4.051-17.379-6.291-.853-4.051 17.485Zm-9.39-15.995 6.396.853 10.128-42.646-6.396-1.066-10.128 42.859Zm-3.622-41.469 6.504 1.066 15.139-63.862-6.398-1.385-15.245 64.181Zm8.746-94.566 6.501 1.385 5.012-20.896-6.504-1.598-5.009 21.109ZM296 398.314l6.612 1.387 11.621-49.149-6.612-1.492L296 398.314Zm-7.766-27.074 6.717 1.492 11.834-49.896-6.717-1.706-11.834 50.11Zm-2.455-50.215 6.822 1.6 5.438-22.923-6.825-1.705-5.435 23.028Zm-22.717 33.791 6.93 1.6 8.849-37.207-6.93-1.706-8.849 37.313Zm-20.784 24.42 7.144 1.385 7.996-33.689-7.144-1.6-7.996 33.904Zm-24.736 40.19 7.357 1.279 13.007-55.013-7.251-1.598-13.113 55.332Zm-9.16-26.866 7.462 1.384 11.194-47.227-7.462-1.708-11.194 47.551Zm-23.572 32.519 7.677 1.279 10.447-44.243-7.57-1.492-10.554 44.456Zm-6.186-42.326 7.783 1.492 11.195-47.228-7.675-1.705-11.303 47.441Zm-8.099-34.968 7.783 1.706 11.834-50.002-7.783-1.919-11.834 50.215Zm-17.161 1.493 7.996 1.705 7.036-29.637-7.994-1.814-7.038 29.746Zm-10.349-28.893 8.209 1.811 16.206-68.553-8.104-2.237-16.311 68.979Zm-.309-72.714 8.315 2.238 15.034-63.541-8.104-2.559-15.245 63.862Zm-2.666-63.752 8.315 2.559 8.53-35.823-8.317-2.771-8.528 36.035Zm-9.808-35.714 8.529 2.879 13.647-57.677-8.423-3.09-13.753 57.888Zm-10.348-34.97 8.636 3.09 12.579-53.092-8.528-3.306-12.687 53.308Zm-5.541-56.825 8.744 3.412 6.714-28.145-8.741-3.52-6.717 28.253Zm-20.47 4.475 8.957 3.306 7.996-33.585-8.956-3.624-7.997 33.903ZM69.451 80.292l9.168 3.305 12.368-52.133-9.17-3.52L69.45 80.291Zm-14.388-24.95 9.381 3.411L68.39 42.23l-9.381-3.519-3.946 16.632Zm-32.629 50.32 9.594 3.306 16.419-69.297-9.486-3.627-16.527 69.618ZM36.292 2.463l-8.425 35.715-9.807-3.624 7.57-32.09h10.662ZM14.557 3.956-6.125 91.273l-10.129-3.414L4 2.463h6.823l3.732 1.493h.002Zm-54.907 92.22 10.341 3.411 4.372-18.764-10.341-3.516-4.372 18.87ZM-65.522 106.2l10.66 3.411 11.302-47.87-10.555-3.624-11.407 48.083Zm-32.838 40.94 10.873 3.195 10.768-45.309-10.876-3.519-10.768 45.63.003.003Zm-14.805-38.274 11.195 3.519 8.849-37.315-11.089-3.624-8.955 37.42Zm-5.126-38.278 2.027.64 13.115-55.332-11.302-4.05-3.732 15.565m719.425 326.877 4.265 1.171 7.038-29.745-4.267-1.385-7.036 29.959Zm-16.529 30.701 4.37 1.173 7.783-33.156-4.264-1.279-7.889 33.262Zm-13.434 17.058 4.478 1.066 5.972-25.16-4.478-1.171-5.972 25.265Zm-15.889 26.866 4.585.96 7.996-33.903-4.477-1.172-8.104 34.115Z"/>
        <path fill="#0678B7" d="m539.432 463.574 4.69.852 4.585-19.19-4.69-.961-4.585 19.299Zm-11.31 6.396 4.798.852 9.381-39.979-4.69-.96-9.489 40.087Zm-15.992 25.692 4.798.745 10.128-42.751-4.798-.853-10.128 42.859Zm-20.362 43.176 4.906.535 11.3-47.444-4.904-.852-11.302 47.761Zm-15.037 20.259 5.011.532 5.012-21.428-5.012-.534-5.011 21.43Zm-19.926 40.082 5.117.321 10.555-44.35-5.117-.535-10.555 44.564Zm1.917-53.092 5.224.64 5.651-23.881-5.224-.64-5.651 23.881Zm-6.933-16.098 5.225.64 5.756-23.883-5.33-.745-5.651 23.988Zm-23.656 53.842 5.438.427 15.458-65.674-5.33-.745-15.566 65.992Zm3.289-60.88 5.438.64 8.954-38.06-5.33-.853-9.062 38.273Zm-23.009 49.362 5.543.427 13.54-56.93-5.543-.747-13.54 57.25Zm-2.668-36.994 5.545.64 10.234-43.285-5.543-.745-10.236 43.39Zm-20.049 34.973 5.757.534 8.53-36.144-5.651-.639-8.636 36.249Zm-17.264 22.817 5.864.319L385.49 546.2l-5.756-.64-11.302 47.549Zm5.1-72.498 5.864.639 4.904-20.577-5.864-.853-4.904 20.791Zm-10.327-8.212 5.972.747 11.513-48.722-5.864-.958-11.621 48.933Zm-4.477-33.794 6.077.853 7.996-33.901-5.969-1.066-8.104 34.114Zm-16.843 17.27 6.183.853 5.332-22.602-6.185-.853-5.33 22.602Zm-16.848 16.74 6.291.747 4.05-17.379-6.29-.853-4.051 17.485Zm-9.39-15.995 6.396.853 10.128-42.646-6.396-1.066-10.128 42.859Zm-3.622-41.469 6.503 1.066 15.14-63.862-6.398-1.385-15.245 64.181Zm8.746-94.566 6.501 1.385 5.011-20.896-6.503-1.598-5.009 21.109Zm-22.722 37.416 6.612 1.387 11.62-49.149-6.611-1.492-11.621 49.254Zm-7.766-27.074 6.717 1.492 11.834-49.896-6.717-1.706-11.834 50.11Zm-2.456-50.215 6.823 1.6 5.438-22.923-6.825-1.705-5.436 23.028Zm-22.716 33.791 6.93 1.6 8.849-37.207-6.93-1.706-8.849 37.313Zm-20.784 24.42 7.144 1.385 7.996-33.689-7.144-1.6-7.996 33.904Zm-24.736 40.19 7.357 1.279 13.007-55.013-7.251-1.598-13.113 55.332Zm-9.161-26.866 7.462 1.384 11.195-47.227-7.462-1.708-11.195 47.551Zm-23.571 32.519 7.677 1.279 10.447-44.243-7.57-1.492-10.554 44.456Zm-6.186-42.326 7.783 1.492 11.195-47.228-7.676-1.705-11.302 47.441Zm-8.099-34.968 7.783 1.706 11.834-50.002-7.783-1.919-11.834 50.215Zm-17.162 1.493 7.997 1.705 7.035-29.637-7.993-1.814-7.039 29.746Zm-10.348-28.893 8.209 1.811 16.206-68.552-8.104-2.238-16.311 68.979Zm-.309-72.714 8.315 2.238 15.034-63.541-8.104-2.559-15.245 63.862Zm-2.666-63.752 8.314 2.559 8.531-35.823-8.317-2.771-8.528 36.035Zm-9.808-35.714 8.528 2.879 13.648-57.677-8.423-3.09-13.753 57.888Zm-10.348-34.97 8.636 3.09 12.578-53.092-8.528-3.306-12.686 53.308Zm-5.541-56.824 8.743 3.41 6.715-28.144-8.741-3.52-6.717 28.254Zm-20.47 4.474 8.957 3.306 7.996-33.585-8.957-3.624-7.996 33.903ZM71.5 79.978l9.167 3.306 12.368-52.133-9.17-3.52L71.5 79.979ZM57.112 55.03l9.381 3.411 3.946-16.524-9.381-3.519-3.946 16.632Zm-32.63 50.32 9.595 3.306 16.419-69.297-9.486-3.627-16.527 69.618Zm13.86-103.2-8.425 35.715-9.807-3.624 7.57-32.09h10.66ZM16.606 3.643-4.077 90.96l-10.128-3.414L6.05 2.15h6.823l3.732 1.493h.002ZM-38.3 95.863l10.341 3.412 4.372-18.765-10.342-3.516-4.371 18.87Zm-25.173 10.023 10.66 3.411 11.303-47.87-10.555-3.624-11.408 48.083Zm-32.837 40.94 10.873 3.195 10.768-45.309-10.876-3.519-10.768 45.63.003.003Zm-14.805-38.274 11.195 3.519 8.849-37.315-11.089-3.624-8.955 37.42Zm-5.126-38.278 2.026.64 13.116-55.332-11.302-4.05-3.732 15.565m719.425 326.877 4.264 1.171 7.038-29.745-4.266-1.385-7.036 29.959Zm-16.529 30.701 4.37 1.173 7.783-33.156-4.264-1.279-7.889 33.262Zm-13.434 17.058 4.477 1.066 5.972-25.16-4.477-1.171-5.972 25.265Zm-15.889 26.866 4.585.96 7.996-33.903-4.477-1.172-8.104 34.115Z"/>
        <path fill="url(#b)" d="M572.753 633.783c-1.001 0-1.912-.324-2.732-.973l-3.735-2.921s-.364-.216-.636-.216l-3.917-.217c-1.092 0-2.095-.539-3.006-1.405l-7.559-7.464-.546-.649-6.739-8.871-8.013-9.628s-.639-.539-1.093-.649l-7.559-.649c-1.003 0-1.913-.432-2.734-1.188l-7.375-6.167s-.638-.325-.911-.432l-4.919-.433c-1.365-.109-2.64-.865-3.642-2.056l-2.55-3.029s-.639-.865-.911-1.298l-7.559-14.496c-.364-.649-.638-1.514-.91-2.379l-1.64-6.922s-.274-.866-.456-1.298l-10.655-19.255s-.547-.759-.819-.975l-2.551-1.837c-.911-.759-1.73-1.731-2.276-3.029l-6.376-14.17-13.205-24.233-5.92-12.223s-.455-.866-.729-1.082l-11.291-11.681-.821-.649-4.189-2.163a7.84 7.84 0 0 1-2.277-1.84l-1.183-1.514c-1.093-1.298-2.642-1.624-4.189-.759l-1.003.542c-1.457.866-2.914 1.082-4.463.866l-7.559-1.408h-1.275l-2.549.542a6.609 6.609 0 0 1-3.553-.325l-6.831-2.703c-.546-.217-1.182-.326-1.821-.11l-8.105 1.624-10.381 1.298h-2.004l-11.019-2.056c-1.234-.207-2.398-.805-3.37-1.731l-5.192-4.543a11.416 11.416 0 0 1-2.368-3.244l-4.188-9.305-6.559-12.763a8.553 8.553 0 0 1-.818-2.163l-4.646-15.794-.272-.974-5.283-23.689-10.473-53.222a8.459 8.459 0 0 0-1.001-2.703l-7.833-13.63a16.422 16.422 0 0 1-1.365-3.245l-7.742-29.099-11.111-35.588s-.364-.975-.547-1.407l-7.377-15.036c-.536-1.16-1.322-2.13-2.277-2.812l-5.007-3.787c-.911-.756-1.822-1.621-2.46-2.703l-14.116-20.878c-.91-1.405-2.095-2.38-3.46-2.812l-9.745-3.571a5.925 5.925 0 0 0-1.913-.323h-10.291l-14.026 1.837c-.454 0-.91.219-1.366.326l-9.471 3.571a5.972 5.972 0 0 1-1.457.432l-34.699 7.029c-.694.122-1.393.195-2.094.219l-21.767-.435c-.636 0-1.182 0-1.821-.216l-14.754-3.029c-1.275-.216-2.55-.216-3.734.219l-11.656 3.784c-2.152.65-4.407.65-6.559 0l-15.118-4.868c-1.609-.532-3.121-1.412-4.461-2.596l-7.105-6.273c-1.744-1.525-3.15-3.53-4.097-5.843l-8.471-20.876-.819-1.622-9.47-15.903c-.819-1.298-1.367-2.812-1.822-4.326l-4.555-16.334s-.272-.865-.364-1.191l-6.282-16.226-16.942-47.056-6.466-16.55a13.22 13.22 0 0 0-1.73-3.244l-5.373-7.355s-.636-.973-.91-1.515l-7.56-12.765c-.364-.649-.728-1.19-1.002-1.837L.912 3.787A23.936 23.936 0 0 1 0 1.514L3.37 0c.184.649.457 1.191.639 1.73l10.199 22.284s.456.972.728 1.407l7.56 12.763s.456.759.728 1.082l5.373 7.357c.911 1.298 1.732 2.703 2.278 4.217l6.466 16.66 16.94 47.055 6.282 16.227c.184.539.364 1.081.546 1.621l4.556 16.333a10.433 10.433 0 0 0 1.364 3.138l9.473 15.901c.454.758.819 1.514 1.093 2.272l8.47 20.879c.636 1.621 1.729 3.135 3.005 4.326l7.101 6.274a8.552 8.552 0 0 0 3.28 1.84l15.209 4.866a6.85 6.85 0 0 0 4.645 0l11.658-3.785a10.954 10.954 0 0 1 5.281-.325l14.755 3.028s.818.109 1.274.109l21.767.433c.454 0 1.003 0 1.457-.109l34.698-7.032s.638-.107.91-.323l9.473-3.571a12.142 12.142 0 0 1 2.095-.539l14.024-1.84h10.655c1.003 0 2.005.218 2.916.542l9.745 3.568c2.003.758 3.824 2.163 5.189 4.219l14.118 20.879c.454.649 1 1.298 1.639 1.73l5.009 3.894c1.391 1.112 2.544 2.593 3.368 4.327l7.377 15.035c.365.649.639 1.298.821 2.056l11.11 35.805 7.741 29.099c.182.756.456 1.514.91 2.163l7.834 13.631c.728 1.188 1.182 2.595 1.547 4.11l10.473 53.219 5.466 24.231 4.645 15.687s.272.865.546 1.298l6.647 12.979 4.19 9.304c.365.756.819 1.405 1.275 1.837l5.192 4.546c.546.432 1.093.756 1.821.865l11.02 2.054h1.092l10.291-1.298 7.924-1.621a7.009 7.009 0 0 1 3.642.323l6.831 2.705c.546.216 1.183.323 1.821.107l2.55-.54a4.747 4.747 0 0 1 2.459 0l7.56 1.405c.728.11 1.547 0 2.367-.432l1.001-.54c3.006-1.623 6.194-1.081 8.38 1.621l1.182 1.515s.729.649 1.095.865l4.189 2.165a7.296 7.296 0 0 1 1.821 1.298l11.292 11.575c.638.649 1.095 1.405 1.549 2.27l5.828 12.116 13.025 23.798s.182.433.364.649l6.374 14.17c.274.542.639 1.082 1.003 1.298l2.55 1.947c.818.542 1.457 1.407 1.911 2.273l10.655 19.145c.364.758.729 1.624.911 2.489l1.641 6.922s.272.866.454 1.191l7.651 14.713s.273.432.365.648l2.457 3.029s.821.649 1.275.756l4.92.432c1 0 2.003.543 2.731 1.191l7.377 6.167s.547.323.911.432l7.559.649c1.365 0 2.55.756 3.46 1.838l8.014 9.627 6.83 8.872 7.742 7.678s.546.326.82.435l3.915.216c.911 0 1.731.433 2.46.973l3.734 2.921s.911.324 1.457 0l4.189-1.84c2.185-.972 4.281-.432 5.738 1.515.728.865 1.729.432 2.185 0l9.199-6.706c.891-.701 1.936-1.077 3.006-1.082h3.824l.819-.326 3.644-1.947c.637-.323 1.365-1.081 1.912-2.053l7.104-12.007s.273-.542.455-.759l9.654-13.847 10.928-17.522 15.118-28.666s.274-.432.364-.758l5.192-12.44 3.278 1.947-5.192 12.44s-.364.758-.546 1.081l-15.572 29.425-10.748 17.199-9.927 14.386-7.102 12.007c-.853 1.548-2.051 2.784-3.461 3.571l-3.644 1.946c-.729.433-1.457.542-2.186.649h-3.824s-.729.326-1.183.542l-9.198 6.706c-2.46 1.731-5.102 1.405-6.831-.758-.364-.539-1.003-.649-1.731-.323l-4.189 1.837a4.845 4.845 0 0 1-2.095.433l.182-.216Z" style="mix-blend-mode:screen"/>
        <path fill="url(#c)" fill-opacity=".3" d="m-110.237 608.154.039.571L157.89 717.594l1.275-.088-22.883-9.351 14.296-74.583 53.451 18.978-12.174 62.711.637-.044 11.944-62.346 57.123 20.335-7.245 37.759 1.272-.087 7.151-37.293 61.319 21.887-2.067 10.837.638-.044 2.082-10.608 24.503 8.78 2.798-.192-27.118-9.634 15.791-82.623 66.457 20.386-13.151 68.984 1.272-.088 13.182-68.526 71.678 21.98-7.897 41.256.634-.043 7.917-41.025 77.552 23.762-2.155 11.415 1.272-.088 2.053-11.066 28.988 8.932 1.523-.105-30.42-9.293 17.787-92.647 84.718 22.004-14.831 76.118.634-.044 14.593-75.869 92.263 23.901-8.78 45.221 1.275-.088 8.546-44.861 72.737 18.801-.078-1.144-72.478-18.706 19.27-100.8 45.652 9.626-.04-.571-45.397-9.643 19.271-100.801 18.743 3.078-.078-1.142-18.356-2.993 13.334-70.033-.323-4.691-14.307 74.467-93.854-15.51 18.533-96.61 87.763 10.526-.04-.574-87.628-10.418 18.536-96.608 62.048 4.586-.079-1.145-61.793-4.605 18.536-96.608 36.378 1.178-.04-.574-36.244-1.071 18.537-96.61 10.986-.065-.071-1.032-10.724.164 6.957-36.36-.638.045-6.964 36.243-89.257 1.195 6.023-31.35-1.272.088-6.031 31.234-82.236 1.056 5.074-26.569-.637.044-5.074 26.568-76.107.978 4.214-22.37-1.272.088-4.222 22.256-70.613.947 3.469-18.295-.634.043-3.472 18.296-65.635.831 2.832-14.57-1.272.088-2.835 14.57-61.158.872 2.176-11.075-.634.044-2.18 11.075-57.201.828 1.508-7.81-1.272.088-1.507 7.809-53.506.69.949-4.781-.635.043-.952 4.782-50.308.7.374-1.982-1.272.087-.382 1.866-33.325.452-19.591 1.347 4.975-.112-12.972 67.822-44.06-1.34 12.233-63.745-1.272.088-12.24 63.632-41.626-1.28 11.378-59.43-.637.043L10.47 97.876l-39.32-1.205 10.628-55.47-1.272.087-10.636 55.357-37.14-1.126 9.87-51.624-.638.044-9.878 51.508-35.219-1.027 9.225-48.014-1.272.087-9.233 47.898-33.43-1.034 8.57-44.52-.635.044-14.123 73.421.157 2.289 5.945-30.654 33.43 1.037-11.275 59.08-26.074-1.887.079 1.145 25.819 1.904-11.276 59.08-10.435-1.236.04.571 10.309 1.247-7.531 39.156.323 4.693 8.367-43.699 34.668 4.169-11.679 60.604-30.254-5.049.079 1.145 29.991 4.953-11.682 60.601-14.133-2.937.04.573 13.879 2.955-10.046 52.787.157 2.288 10.534-55.005 35.927 7.65-11.945 62.346-34.091-8.811.079 1.145 33.829 8.715-11.944 62.346-17.367-5.362.04.574 17.233 5.254-11.952 62.232-.661-.3.078 1.144.383-.026-.272 1.628.322 4.694 1.141-5.712 36.953 13.211-12.21 64.09-21.562-8.75.383-.026ZM33.121 443.963l12.964-67.935 45.263 9.536-13.341 69.92-44.894-11.634.008.113Zm44.71 12.682-13.342 69.918-44.526-13.729 12.966-67.938 44.894 11.634.008.115Zm77.493-133.209 51.838 8.51-14.299 74.582-51.358-10.842 13.819-72.25ZM140.855 395.5l-48.117-10.145 13.46-70.042 48.609 8.042-13.826 72.137-.126.008Zm-49.284-10.411-45.263-9.536 12.966-67.938 45.636 7.557-13.339 69.917Zm-45.914-9.722-42.67-9.027 12.59-65.955 43.047 7.044-12.967 67.938Zm46.987 10.454 48.114 10.146-13.827 72.137-47.755-12.357 13.46-70.042.008.116Zm48.767 10.331 51.358 10.843-14.299 74.582-50.881-13.175 13.822-72.25Zm52.525 11.109 54.865 11.635-14.768 77.031-54.396-14.084 14.299-74.582Zm.089-.582 14.299-74.583 55.326 9.077-14.771 77.028-54.861-11.636.007.114Zm129.538-56.632-59.205-9.729 14.768-77.031 59.67 7.168-15.225 79.705-.008-.113Zm16.512-79.566 64.049 7.67-15.791 82.62-63.474-10.469 15.342-79.83-.126.009Zm-76.233 69.756-55.326-9.074 14.296-74.582 55.798 6.628-14.768 77.028Zm.333 1.129 59.205 9.728-15.225 79.708-58.623-12.416 14.769-77.028-.126.008Zm60.374 9.993 63.475 10.47-15.791 82.62-62.9-13.268 15.342-79.83-.126.008Zm64.117 10.539 68.261 11.293-16.47 85.771-67.699-14.319 15.79-82.62.118-.125Zm.184-1.046 15.791-82.62 68.819 8.262-16.47 85.771-68.258-11.291.118-.122Zm85.89-74.332 74.224 8.81-17.013 89.03-73.561-12.192 16.468-85.77-.118.122Zm.086-.58 16.47-85.773 74.893 5.545-17.01 89.03-74.224-8.811-.129.009Zm-1.159-.15-68.819-8.262 15.791-82.623 69.37 5.121-16.478 85.657.136.107Zm-69.462-8.334-64.051-7.671 15.345-79.83 64.615 4.756-15.791 82.623-.118.122Zm-65.21-7.821-59.669-7.165 14.768-77.031 60.251 4.482-15.225 79.705-.125.009Zm-60.312-7.238-55.798-6.627 14.299-74.583 56.267 4.18-14.768 77.03Zm-56.96-6.778-52.187-6.186 13.819-72.25 52.675 3.967-14.299 74.585-.008-.116Zm-.086.583-14.299 74.582-51.838-8.51 13.822-72.25 52.186 6.186.129-.008Zm-66.662 65.878-48.607-8.042 13.46-70.042 48.969 5.834-13.83 72.134.008.116Zm-49.769-8.192-45.635-7.557 12.964-67.938 46.005 5.462-13.341 69.917.007.116Zm-46.28-7.629-43.045-7.045 12.592-65.956 43.427 5.179-12.967 67.938-.007-.116Zm-44.215-7.308-40.595-6.754 12.335-64.099 40.98 4.888-12.591 65.956-.129.009Zm-.183 1.046-12.59 65.956-40.206-8.504 12.335-64.099 40.597 6.754-.136-.107ZM3.012 366.685l42.669 9.024-12.967 67.938-42.294-11.006 12.592-65.956Zm29.393 78.017L19.43 512.524l-41.911-12.872 12.591-65.956 42.295 11.006ZM19.34 513.107 6.369 580.929l-41.536-14.854 12.588-65.956 41.912 12.872.008.116Zm.525.194 44.529 13.728-13.342 69.917-44.151-15.71 12.964-67.935Zm45.696 13.992 47.398 14.567-13.83 72.134-46.9-16.671 13.46-70.039-.128.009Zm.089-.58 13.46-70.042 47.754 12.357-13.826 72.134-47.396-14.565.008.116Zm61.739-57.491 50.881 13.175-14.307 74.47-50.401-15.511 13.819-72.25.008.116Zm52.048 13.441 54.395 14.084-14.77 77.031-53.921-16.532 14.296-74.583Zm54.92 14.275 58.166 15.091-15.222 79.705-57.715-17.765 14.771-77.031Zm.183-1.046 14.768-77.033 58.623 12.415-15.224 79.706-58.167-15.088Zm74.561-64.354 62.9 13.268-15.791 82.623-62.334-16.183 15.217-79.822.008.114Zm63.55 13.454 67.703 14.321-16.475 85.657-67.018-17.355 15.79-82.623Zm68.872 14.584 72.89 15.458-17.01 89.029-72.35-18.714 16.47-85.773Zm.087-.58 16.467-85.773 73.564 12.192-17.013 89.03-72.889-15.458-.129.009Zm90.547-73.503 79.507 13.163-17.784 92.649-78.853-16.657 17.01-89.03.12-.125Zm80.669 13.313 86.225 14.197-18.533 96.608-85.479-18.156 17.787-92.649Zm-.984-1.312-79.509-13.163 17.007-89.027 80.283 9.547-17.783 92.646.002-.003Zm-62.41-102.772 17.008-89.027 80.938 6.049-17.786 92.646-80.283-9.544.121-.122.002-.002Zm17.315-90.201 17.01-89.03 81.583 2.439-17.784 92.649-80.938-6.049.129-.009Zm-.638.044-74.893-5.545 16.468-85.773 75.438 2.288-17.013 89.03Zm-76.055-5.695-69.37-5.121 15.791-82.621 70.058 2.085-16.479 85.657Zm-70.012-5.191-64.615-4.755 15.342-79.83 65.064 1.965-15.791 82.62Zm-65.777-4.908-60.251-4.479 14.771-77.031 60.704 1.805-15.224 79.705Zm-60.768-4.56-56.267-4.18 14.298-74.585 56.74 1.734-14.771 77.031Zm-57.418-4.217-52.678-3.966 13.822-72.25 53.152 1.634-14.296 74.582Zm-53.312-3.923-49.457-3.614 13.462-70.039 49.821 1.517-13.826 72.136Zm-.184 1.046-13.827 72.137-48.968-5.831 13.459-70.042 49.454 3.615-.118.121ZM118.5 243.281l-46.006-5.461 12.967-67.938 46.506 3.473-13.341 69.917-.126.009Zm-46.648-5.534-43.428-5.179 12.59-65.953 43.805 3.197-12.967 67.935Zm-44.59-5.329-40.98-4.884 12.338-64.099 41.234 3.03-12.591 65.953Zm-41.497-4.965-38.656-4.587 11.944-62.346 38.93 2.959-12.21 64.09-.008-.116Zm-39.818-4.737-36.598-4.383 11.674-60.717 36.868 2.754-11.944 62.346Zm1.072.732 38.66 4.587-12.21 64.088-38.265-6.338 11.944-62.346-.129.009Zm26.142 69.732-12.21 64.09-38.003-8.082 11.944-62.345 38.269 6.337Zm-11.78 64.75 40.205 8.504-12.592 65.956-39.821-10.37 12.335-64.098-.126.008Zm27.43 75.509-12.59 65.956-39.559-12.117 12.335-64.096 39.822 10.37-.008-.113Zm-12.686 66.425-12.597 65.84-39.176-13.98 12.334-64.099 39.56 12.115-.121.124Zm-11.724 67.39L5.94 582.108-7.035 649.93l-41.154-16.72 12.591-65.956Zm42.062 15.048 44.151 15.708-13.342 69.917-43.655-17.812L6.582 582.18l-.118.122Zm45.2 16.096 46.903 16.671-13.827 72.134-46.543-18.879 13.46-70.039.007.113Zm83.178 109.279-49.57-20.164L99.1 615.376l50.05 17.835-14.307 74.466Zm14.483-75.628-50.05-17.835 13.819-72.25 50.401 15.509-14.307 74.471.137.105Zm1.175.379 14.298-74.585 53.924 16.532-14.771 77.031-53.451-18.978Zm111.109 39.623-57.126-20.336 14.771-77.03 57.713 17.765-15.224 79.708-.134-.107Zm62.496 22.265-61.321-21.886L278 592.608l61.888 18.974-15.79 82.621.007.113Zm15.878-83.2-61.886-18.974 15.214-79.821 62.334 16.183-15.788 82.621.126-.009Zm67.11 20.571-66.457-20.386 15.788-82.62 67.018 17.355-16.478 85.66.129-.009Zm72.855 22.359-71.681-21.98 16.47-85.773 72.347 18.715-17.01 89.03-.126.008Zm78.078 23.957-77.553-23.763 17.01-89.03 78.208 20.268-17.786 92.647.121-.122Zm17.967-93.696-78.209-20.267 17.013-89.03 78.854 16.657-17.784 92.649.126-.009Zm1.167.264 17.786-92.647 85.476 18.156-18.537 96.61-84.715-22.004-.01-.115Zm177.778 46.309-92.266-23.898 18.539-96.613 92.994 19.709-19.267 100.8v.002Zm38.622-202.179-19.268 100.8-92.994-19.711 18.533-96.608 93.855 15.51-.126.009Zm-94.19-16.637-86.223-14.197 17.783-92.646 86.984 10.346-18.537 96.61-.007-.113ZM718 314.988l-86.98-10.35 17.783-92.649 87.741 6.504-18.536 96.608-.008-.113Zm18.72-97.659-87.741-6.502 17.783-92.646 88.499 2.653-18.533 96.61-.008-.115ZM684.627 24.837l89.26-1.193-18.536 96.61-88.499-2.655 17.786-92.647-.008-.116h-.003Zm-1.272.087-17.783 92.649-81.583-2.441 17.013-89.028 82.233-1.055.12-.125Zm-158.972 2.193 76.11-.978-17.013 89.028-75.436-2.286 16.467-85.773-.128.01Zm-1.272.088-16.475 85.657-70.054-2.082 15.79-82.62 70.613-.947.126-.008Zm-136.885 1.821 65.638-.831-15.791 82.62-65.064-1.967 15.217-79.822Zm-1.272.088-15.225 79.708-60.704-1.805 14.768-77.03 61.161-.873Zm-119.007 1.63 57.2-.83-14.768 77.031-56.739-1.734 14.299-74.582.008.116Zm-1.272.088-14.307 74.467-53.152-1.634 13.819-72.25 53.506-.69.134.107Zm-104.45 1.43 50.309-.697-13.827 72.135-49.823-1.517 13.459-70.042-.118.122Zm-48.52.694 47.248-.606-13.341 69.92-46.874-1.379 12.967-67.935Zm-13.061 68.402 46.873 1.379-13.341 69.917-46.507-3.474 12.967-67.935.008.113Zm-44.697-1.296 44.06 1.34-12.964 67.937-43.806-3.197 12.592-65.956.118-.124ZM11.17 98.748l41.626 1.28-12.592 65.956-41.235-3.03 12.335-64.099-.134-.107Zm-39.957-1.162 39.32 1.206-12.206 64.089-38.922-2.842 11.944-62.346-.136-.107Zm-38.42-1.151 37.14 1.125-11.944 62.346-36.87-2.754 11.673-60.717Zm-35.865-1.1 35.219 1.028-11.682 60.604-34.938-2.543 11.275-59.08.126-.009Zm-22.852 119.331 11.275-59.08 34.938 2.543-11.679 60.601-34.668-4.169.134.105Zm35.09 4.716 36.598 4.385-11.944 62.346-36.199-6.02 11.67-60.72-.125.009Zm-23.411 122.361 11.674-60.717 36.2 6.02-11.944 62.345-35.93-7.648Zm37.002 8.381 38.004 8.082-12.208 64.089-37.606-9.718 11.947-62.349-.137-.104Zm-12.127 63.394 37.605 9.719-12.209 64.09-37.34-11.463 11.944-62.346Zm-23.977 125.274 11.944-62.348 37.343 11.463-12.209 64.09-36.95-13.214-.128.009Zm37.419 14.445 39.176 13.983-12.6 65.84-38.785-15.731 12.209-64.092Z"/>
    </g>
    <defs>
        <linearGradient id="b" x1="82.063" x2="659.51" y1="202.125" y2="561.235" gradientUnits="userSpaceOnUse">
            <stop stop-color="#0F172A"/>
            <stop offset=".38" stop-color="#1A568D"/>
            <stop offset=".51" stop-color="#154877"/>
            <stop offset=".61" stop-color="#154775"/>
            <stop offset=".69" stop-color="#16426B"/>
            <stop offset=".75" stop-color="#154775"/>
            <stop offset=".81" stop-color="#154775"/>
            <stop offset=".86" stop-color="#14172B"/>
            <stop offset=".91" stop-color="#082C4E"/>
            <stop offset=".96" stop-color="#25294A"/>
            <stop offset=".987" stop-color="#14172B"/>
        </linearGradient>
        <linearGradient id="c" x1="364.032" x2="316.9" y1="703.418" y2="18.039" gradientUnits="userSpaceOnUse">
            <stop stop-color="#38BDF8"/>
            <stop offset="1" stop-color="#0036FC" stop-opacity="0"/>
        </linearGradient>
        <clipPath id="a">
            <path fill="#fff" d="M0 0h521v642H0z"/>
        </clipPath>
    </defs>
</svg>